<?xml version="1.0" encoding="utf-8"?>
<!-- Generator: Adobe Illustrator 24.1.0, SVG Export Plug-In . SVG Version: 6.00 Build 0)  -->
<svg version="1.1" id="Capa_1" xmlns="http://www.w3.org/2000/svg" xmlns:xlink="http://www.w3.org/1999/xlink" x="0px" y="0px"
	 viewBox="0 0 446.5 446.5" style="enable-background:new 0 0 446.5 446.5;" xml:space="preserve">
<g>
	<path d="M443.5,363.1L338.2,257.7c-3.9-3.9-10.2-3.9-14.1,0s-3.9,10.2,0,14.1l98.3,98.3l-52.1,52.1l-17.6-17.6l26.7-26.7
		c3.9-3.9,3.9-10.2,0-14.1s-10.2-3.9-14.1,0l-26.7,26.7L317,369l26.7-26.7c3.9-3.9,3.9-10.2,0-14.1s-10.2-3.9-14.1,0l-26.7,26.7
		l-23.4-23.4l26.7-26.7c3.9-3.9,3.9-10.2,0-14.1s-10.2-3.9-14.1,0l-26.7,26.7l-18.5-18.5c-3.9-3.9-10.2-3.9-14.1,0
		c-3.9,3.9-3.9,10.2,0,14.1l130.6,130.6c2,2,4.5,2.9,7.1,2.9s5.1-1,7.1-2.9l66.2-66.2C447.4,373.4,447.4,367,443.5,363.1z"/>
	<path d="M189.5,108.9l-106-106C79.6-1,73.3-1,69.4,2.9L3,68.9c-1.9,1.9-2.9,4.4-3,7.1c0,2.7,1,5.2,2.9,7.1l130.7,130.7
		c2,2,4.5,2.9,7.1,2.9s5.1-1,7.1-2.9c3.9-3.9,3.9-10.2,0-14.1l-18.6-18.6l26.7-26.7c3.9-3.9,3.9-10.2,0-14.1
		c-3.9-3.9-10.2-3.9-14.1,0L115,167l-23.4-23.4l26.7-26.7c3.9-3.9,3.9-10.2,0-14.1s-10.2-3.9-14.1,0l-26.7,26.7L56,107.9l26.7-26.7
		c3.9-3.9,3.9-10.2,0-14.1l0,0c-3.9-3.9-10.2-3.9-14.1,0L41.9,93.8L24.2,76.1l52.3-51.9l98.9,98.9c3.9,3.9,10.2,3.9,14.1,0
		C193.4,119.2,193.4,112.8,189.5,108.9z"/>
</g>
<path d="M431.1,15.4c-9.4-9.4-22-14.6-35.4-14.6c-13.4,0-25.9,5.1-35.3,14.6L331.8,44l-35.3,35.3L67.2,308.7c0,0,0,0,0,0.1
	c-0.3,0.3-0.6,0.6-0.9,1c0,0.1-0.1,0.1-0.2,0.2c-0.2,0.3-0.4,0.7-0.6,1l-0.1,0.1l-37.3,70.5v0.1L2,431c-2,3.9-1.3,8.6,1.8,11.7
	c1.9,1.9,4.5,2.9,7.1,2.9c1.6,0,3.2-0.4,4.7-1.2L65,418.3h0.1l71.3-37.8l0,0l0.3-0.3l22.3-22.3c5-5,3.4-13.5-3.2-16.3
	c-1.3-0.5-2.6-0.8-3.9-0.8c-2.6,0-5.1,1-7,2.9l-17.6,17.6l-22.9-5l-14.1-14.2l-5.1-23.2l218.3-218.3l14.1,14.1l0.4,0.4l7.1,7.1
	c3.9,3.9,10.2,3.9,14.1,0c2-2,3-4.5,3-7.1c0-2.5-1-5.1-2.9-7.1l-21.6-21.6l21.2-21.2l21.6,21.6c3.9,3.9,10.3,3.9,14.2,0l0,0
	c3.9-3.9,3.9-10.2,0-14.1l-21.7-21.7l21.6-21.6c5.6-5.7,13.2-8.8,21.2-8.8s15.6,3.1,21.2,8.8c11.7,11.7,11.7,30.7,0,42.4l-234,233.9
	c-2,1.9-3,4.5-3,7.1c0,1.8,0.5,3.6,1.5,5.3c3.4,5.4,11,6.3,15.5,1.8L431.1,86.1C450.6,66.6,450.6,34.9,431.1,15.4z M101.9,376.2
	l-39.8,21.1l-27.3,14.4l35.5-67.2l4.3,19.7c0,0.1,0,0.1,0,0.2c0.1,0.4,0.2,0.7,0.3,1.1c0,0.1,0,0.1,0.1,0.2c0.1,0.4,0.3,0.8,0.5,1.2
	c0,0,0.1,0.1,0.1,0.2c0.2,0.3,0.4,0.6,0.6,0.9c0.1,0.1,0.1,0.2,0.2,0.3c0.3,0.3,0.5,0.7,0.8,1s0.6,0.6,1,0.8
	c0.1,0.1,0.2,0.1,0.3,0.2c0.3,0.2,0.6,0.4,0.9,0.6c0.1,0,0.1,0.1,0.2,0.1c0.4,0.2,0.8,0.4,1.2,0.5c0.1,0,0.1,0,0.2,0.1
	c0.4,0.1,0.7,0.2,1.1,0.3h0.1L101.9,376.2z"/>
<polygon points="136.4,380.5 136.4,380.5 136.4,380.5 "/>
</svg>
