<?xml version="1.0" encoding="utf-8"?>
<!-- Generator: Adobe Illustrator 24.1.0, SVG Export Plug-In . SVG Version: 6.00 Build 0)  -->
<svg version="1.1" id="Layer_1" xmlns="http://www.w3.org/2000/svg" xmlns:xlink="http://www.w3.org/1999/xlink" x="0px" y="0px"
	 viewBox="0 0 512 512" style="enable-background:new 0 0 512 512;" xml:space="preserve">
<path d="M231.9,235.1c28.2,0,51.2-22.9,51.2-51.1s-22.9-51.2-51.2-51.2s-51.1,22.9-51.1,51.2C180.8,212.2,203.7,235.1,231.9,235.1z
	 M231.9,162.8c11.7,0,21.2,9.5,21.2,21.2s-9.5,21.1-21.2,21.1s-21.1-9.5-21.1-21.1C210.8,172.3,220.2,162.8,231.9,162.8z"/>
<path d="M512,15L512,15c0-8.3-6.7-15-15-15L24.3,0C11,0,0,11,0,24.3v463.3C0,501,11,512,24.3,512H497c8.3,0,15-6.7,15-15l0,0
	c0-8.3-6.7-15-15-15H35.6c-3.1,0-5.6-2.5-5.6-5.6V35.6c0-3.1,2.5-5.6,5.6-5.6H497C505.3,30,512,23.3,512,15z"/>
<path d="M456.1,284.5c0,3.8-1.4,7.2-3.7,9.9c-2.8,3.3-6.9,5.3-11.5,5.3c-3.3,0-6.4-1.1-9-2.9l-3.3-3.3l-52.1-52.1L243.1,374.7
	c-3,3-7,4.6-11.2,4.6c-4.3,0-8.2-1.6-11.2-4.6l-85.2-85.2l-48.3,48.3c-2.6,2.3-6.1,3.7-9.9,3.7c-8.4,0-15.2-6.8-15.2-15.2
	c0-3.1,0.9-6,2.5-8.3l4.3-4.3l55.3-55.4c3-3,7-4.6,11.2-4.6c4.3,0,8.2,1.6,11.2,4.6l85.2,85.2L365.3,210c6.1-6.1,16.1-6.1,22.3,0
	l62,62C453.5,274.8,456.1,279.3,456.1,284.5z"/>
<path d="M88.8,336.2c-0.5,0.6-1,1.1-1.6,1.6L88.8,336.2z"/>
<path d="M431.9,296.7c-1.3-0.9-2.4-2-3.3-3.3L431.9,296.7z"/>
</svg>
