<?xml version="1.0" encoding="utf-8"?>
<!-- Generator: Adobe Illustrator 24.1.0, SVG Export Plug-In . SVG Version: 6.00 Build 0)  -->
<svg version="1.1" id="Layer_1" xmlns="http://www.w3.org/2000/svg" xmlns:xlink="http://www.w3.org/1999/xlink" x="0px" y="0px"
	 viewBox="0 0 512 512" style="enable-background:new 0 0 512 512;" xml:space="preserve">
<style type="text/css">
	.st0{fill:#010002;}
</style>
<path d="M512,15L512,15c0-8.3-6.7-15-15-15H18.7C8.4,0,0,8.4,0,18.7v474.6C0,503.6,8.4,512,18.7,512H497c8.3,0,15-6.7,15-15l0,0
	c0-8.3-6.7-15-15-15H30V30h467C505.3,30,512,23.3,512,15z"/>
<path d="M435,416.8H77c-7.7,0-14,6.3-14,14l0,0c0,7.7,6.3,14,14,14h358c7.7,0,14-6.3,14-14l0,0C449,423,442.7,416.8,435,416.8z"/>
<path d="M397.3,361h-292c-7.7,0-14,6.3-14,14l0,0c0,7.7,6.3,14,14,14h292c7.7,0,14-6.3,14-14l0,0C411.3,367.2,405,361,397.3,361z"/>
<path d="M435,304.8H77c-7.7,0-14,6.3-14,14l0,0c0,7.7,6.3,14,14,14h358c7.7,0,14-6.3,14-14l0,0C449,311,442.7,304.8,435,304.8z"/>
<g>
	<path class="st0" d="M391.3,262.5c-2.8,0-5-2.2-5-5l0,0c0-30.5-25.7-55.3-57.2-55.3s-57.2,24.8-57.2,55.3l0,0c0,2.8-2.2,5-5,5
		h-19.7c-2.8,0-5-2.2-5-5l0,0c0-46.9,39-85,86.9-85s86.9,38.1,86.9,85l0,0c0,2.8-2.2,5-5,5H391.3z"/>
	<path class="st0" d="M329.1,160c-24.2,0-43.9-19.6-43.9-43.9c0-11.7,4.6-22.7,12.8-31c8.3-8.3,19.3-12.8,31-12.8
		c24.2,0,43.9,19.6,43.9,43.9S353.3,160,329.1,160z M329.1,94.3c-12,0-21.8,9.7-21.8,21.8s9.7,21.8,21.8,21.8
		c12,0,21.8-9.7,21.8-21.8S341.1,94.3,329.1,94.3z"/>
</g>
</svg>
