<?xml version="1.0" encoding="utf-8"?>
<!-- Generator: Adobe Illustrator 24.1.0, SVG Export Plug-In . SVG Version: 6.00 Build 0)  -->
<svg version="1.1" id="Layer_1" xmlns="http://www.w3.org/2000/svg" xmlns:xlink="http://www.w3.org/1999/xlink" x="0px" y="0px"
	 viewBox="0 0 1000 1000" style="enable-background:new 0 0 1000 1000;" xml:space="preserve">
<style type="text/css">
	.st0{fill:#F2F2F2;}
	.st1{display:none;}
	.st2{display:inline;}
	.st3{font-family:'Roboto-Regular';}
	.st4{font-size:72.4396px;}
	.st5{letter-spacing:11;}
	.st6{font-family:'Calibri-Light';}
	.st7{font-size:52.3736px;}
	.st8{letter-spacing:24.4;}
	.st9{clip-path:url(#SVGID_2_);}
	.st10{clip-path:url(#SVGID_4_);fill:#565656;}
	.st11{display:inline;opacity:0.5;fill:#CCCCCC;enable-background:new    ;}
	.st12{clip-path:url(#SVGID_6_);}
	.st13{clip-path:url(#SVGID_8_);fill:#565656;}
	.st14{fill:#555655;}
	.st15{fill:#999999;}
	.st16{fill:#989898;}
</style>
<path class="st0" d="M500,0L500,0c276.1,0,500,223.9,500,500v0c0,276.1-223.9,500-500,500h0C223.9,1000,0,776.1,0,500v0
	C0,223.9,223.9,0,500,0z"/>
<path d="M798.3,296.1c-0.6-11.5-2.3-22.7-5-33.4c-2.5-10.7-6.3-21.2-10.9-30.9c-9.2-19.5-21.4-37.4-36.7-52.7
	c-3.8-4-7.8-7.6-12-11.1c-2.3-1.9-4.2-3.6-6.5-5.2l-3.4-2.5l-3.1-2.3c-8.2-6.1-17-11.1-25.8-15.7c-17.8-9.2-36.5-16-55.6-20.2
	c-9.4-2.1-19.1-3.6-28.6-4.6c-9.7-1-19.1-1.3-28.6-1.3c-9.4,0.2-18.9,0.6-28.1,1.9c-9.2,1.3-18.5,2.7-27.5,4.8
	c-18.1,4.2-35.5,10.3-52.3,17.8c-8.2,3.8-16.4,8-24.4,12.8c-4,2.3-8,4.8-11.8,7.3c-3.8,2.5-7.6,5-11.5,8.2
	c-15.5,11.8-29.2,26-40.9,42c-11.5,16-21,34.2-26.9,54c-2.9,9.9-5,20.2-5.2,30.4s0.2,20.2,1.7,29.8c1.7,9.4,4,18.7,6.5,27.5
	c2.9,8.8,6.1,17.2,9.7,25.2c7.6,16,16.2,30.7,26,44.3c9.2,13.6,19.3,26,29.8,37.6c13.6,14.9,27.7,28.5,41.4,41.6l-18.1,12.1
	c-5.6-3.9-11.5-7.4-17.6-10.5c-14.3-7.3-29.8-12.8-45.8-15.7c-16-2.9-32.5-3.1-48.3-0.6c-15.7,2.5-31.1,7.6-45.1,14.9
	c-7.1,3.6-13.9,7.8-20.2,12.2c-6.3,4.6-12.2,9.7-17.8,14.9c-22.3,21.4-38.2,49.1-43.5,78.3c12.8-26.7,31.9-48.9,54.6-65.1
	c5.7-4,11.5-7.8,17.6-10.9c6.1-3.4,12.4-6.1,18.7-8.6c12.8-4.8,26-8,39.3-9c27.9-2.9,55.8,4.9,79.3,19.7
	c-7.4,5.2-14.9,10.6-22.2,16.2c-12.4,9.7-24.6,19.7-36.1,31.1c-11.3,11.3-22,23.7-31.3,37.4s-17,28.3-22.9,44.3
	c-2.7,8-5,16.2-6.7,24.6c-1.7,8.4-2.7,17.2-2.7,26.2c0,9,1,18.5,4.2,28.1c2.9,9.7,8.2,19.3,15.7,27.1c7.3,7.8,16.6,13.4,25.8,17
	c9.2,3.6,18.7,5.2,27.7,5.7c9,0.4,18.1-0.2,26.7-1.9c4.2-0.8,8.6-1.9,12.8-3.1s8.2-2.7,12.2-4.4c15.7-6.5,30-16.2,42.4-27.5
	c12.2-11.3,22.5-24.6,30.7-39.1c8.2-14.5,14.1-30,17.4-46.4s4.2-33.2,1.9-50c-2.3-16.8-7.8-32.8-15.5-47.5
	c-2.3-4.3-4.7-8.4-7.4-12.5c4-2,8-4,12-6c2.7-1.4,5.4-2.7,8.1-4c10.6,12.2,19.9,24.8,27.2,38.3c6.3,11.3,11.3,23.3,14.7,35.7
	c3.6,12.4,5.2,25.6,5.9,38.6c1.3,26.2-3.4,52.7-13.2,76.8c-9.9,24.1-25,45.8-44.7,62.8c-19.9,17-43.5,30-68.9,37.6
	c-25.4,7.3-52.5,10.1-78.5,5.9c-13-2.1-25.8-5.7-38-10.9c-12.2-5-23.9-11.8-34.9-19.7c-43.7-32.1-75.6-83.8-79.6-143
	c-5.9,29-2.5,60.5,7.1,89.4c2.5,7.3,5.9,14.3,9.4,21.2c3.6,6.7,7.6,13.4,12,19.9s9.2,12.6,14.5,18.5c5,5.9,10.7,11.5,16.6,16.8
	c23.3,21.2,53.1,36.7,84.8,43.3c31.7,6.5,64.9,5.5,96-2.7c31.1-8.4,60.7-23.1,85.7-44.1c12.6-10.5,23.9-22.5,33.6-35.7
	c9.7-13.2,17.6-27.5,23.9-42.6c12.4-30.2,18.3-62.8,17.2-95.1c-0.4-16.2-2.7-32.1-6.7-48.3c-4-16.2-10.1-31.5-17.6-46
	c-7.1-13.4-15.3-25.8-24-37.5c9.5-4.6,19.1-9.3,28.6-13.9c26.2-12.6,53.5-25.6,80.8-40.5c13.6-7.6,27.1-15.5,40.7-24.4
	c13.6-9.2,27.9-19.5,41.8-33c13.9-13.2,27.1-30.2,36.7-51.2c1.3-2.5,2.3-5.2,3.4-8c1-2.7,2.1-5.5,2.9-8.4c1.7-5.7,3.1-11.3,4.2-17.2
	C798.1,319.2,799,307.4,798.3,296.1z M479.6,660.6c-5.5,24.8-19.1,47.9-38,64.7c-18.7,16.6-43.3,27.1-65.7,25.2
	c-5.5-0.6-10.7-1.7-15.1-3.6s-7.8-4.4-10.5-7.3c-2.5-2.9-4.4-6.5-5.7-10.9c-1.3-4.6-1.7-9.7-1.5-15.3c0.2-5.5,1.3-11.3,2.7-17.4
	c1.5-6.1,3.6-12,5.9-17.6c4.6-11.3,11.3-22.3,19.3-32.5c8-10.1,17.2-19.5,27.1-28.1c5-4.4,10.3-8.6,15.7-12.6
	c5.5-4,11.1-7.8,17-11.5c10.6-6.6,21.5-12.9,32.8-19c2.6,4,5,8.2,7.1,12.5c5.7,11.5,9.4,23.7,10.9,36.1S482.4,648.2,479.6,660.6z
	 M682.7,318.6c0,0.6-0.2,1.5-0.2,2.1c0,0.8-0.2,1.5-0.4,2.3c-1.5,6.3-5.2,13.6-11.1,22c-5.9,8.2-14.1,16.8-23.7,25.6
	c-9.7,9-20.2,17.8-31.1,26.5c-21.6,17.4-45.4,34-69.5,50.8c-12.2,8.6-24.5,17.1-36.9,25.6c-15.3-16.2-30.1-31.9-43.1-48.1
	c-8.4-10.7-16.4-21.6-22.7-33c-2.7-5.7-5.2-11.3-7.3-17.2c-1.9-5.9-3.6-11.8-4.6-17.6c-2.1-11.8-1.9-23.3,0.4-33.6
	c1.3-5,2.7-9.9,4.8-14.1c2.3-4.2,4-8.2,6.3-12c2.3-4,5-7.6,8.2-11.1c2.9-3.6,6.3-6.9,10.1-10.1c7.3-6.5,16-11.8,24.8-16.2l7.1-3.4
	c2.5-1,5-2.1,7.6-3.1c5-2.1,10.3-3.8,15.5-5.5c10.5-3.4,21.4-5.7,32.1-7.1c10.7-1.5,21.4-1.9,31.9-1.7c10.5,0.6,20.6,1.7,30.2,4
	c9.4,2.3,18.5,5.2,26.9,9.4c4.2,2.1,8.2,4.2,12,6.7l1.5,0.8l1,0.8c0.8,0.6,1.5,1.3,2.3,1.7c1.5,1,2.9,2.3,4.4,3.6
	c5.7,5.2,11.1,11.5,14.9,18.3c3.8,6.9,6.7,13.9,7.8,20.2c0.6,3.1,1,6.1,1,9C682.9,315.8,682.9,317.1,682.7,318.6z"/>
<g class="st1">
	<text transform="matrix(1 0 0 1 252.5267 364.8619)" class="st2 st3 st4 st5">APANICSPUD</text>
	<text transform="matrix(1.0654 0 0 1 325.2354 416.9331)" class="st2 st6 st7 st8">DESIGNS</text>
</g>
<g id="_x39_9d_logo" class="st1">
	<g class="st2">
		<g>
			<defs>
				<path id="SVGID_1_" d="M236.3,421.1c15.7-27.3,50.3-36.6,77.4-20.9s36.4,50.6,20.7,77.9c-15.7,27.3-50.3,36.6-77.4,20.9
					C230,483.3,220.7,448.4,236.3,421.1z M452.7,421.1c15.7-27.3,50.3-36.6,77.4-20.9c27.1,15.7,36.4,50.6,20.7,77.9
					s-50.3,36.6-77.4,20.9C446.4,483.3,437.1,448.4,452.7,421.1z M755.7,593.2c-11.2,11.3-25.5,16.9-42.9,16.9
					c-8.4,0-16.2-1.5-23.6-4.5c-7.3-3-13.5-7.1-18.7-12.4c-5.1-5.3-9.2-11.6-12.1-19c-3-7.4-4.4-15.4-4.4-24.2
					c0-8.5,1.5-16.4,4.4-23.7c3-7.4,7.1-13.6,12.4-18.8c5.3-5.2,11.6-9.2,18.9-12.2c7.3-3,15.3-4.5,24-4.5c8.4,0,16.2,1.5,23.3,4.5
					s13.4,7.1,18.6,12.4c5.3,5.3,9.4,11.5,12.4,18.5s4.4,14.8,4.4,23.2C772.5,567.5,766.9,582,755.7,593.2z M393.6,510.8
					c10.5,18.9,26.1,35.3,46.2,47c16.8,9.8,35,15,53.1,16.3l-54,94.1h80.8L584.1,556c0.5,16.2,3.4,31.2,8.5,44.9
					c5.8,15.3,13.8,28.5,24.3,39.6c10.4,11.1,22.8,19.8,37.1,26.1s30,9.4,47.1,9.4c16.2,0,29.8-2.6,40.8-7.7
					c11-5.2,21.2-13.5,30.6-25.1v24.9h66.3v-336h-70V453c-9.6-9.4-19.9-16.4-30.8-20.9c-10.9-4.5-23.7-6.8-38.3-6.8
					c-16.5,0-31.8,3.1-45.9,9.4c-10.3,4.6-19.6,10.4-27.9,17.5c0.9-44-21.5-87.1-62-110.7c-59.4-34.5-135.3-14-169.5,45.7
					c-0.2,0.4-0.5,0.9-0.7,1.3c-10.5-18.9-26.1-35.3-46.2-47c-59.4-34.5-135.3-14-169.5,45.7c-34.3,59.7-13.9,136.1,45.4,170.5
					c16.8,9.8,35,15,53.1,16.3l-54,94.1h80.8l89.6-156C393.1,511.6,393.4,511.2,393.6,510.8L393.6,510.8z"/>
			</defs>
			<clipPath id="SVGID_2_">
				<use xlink:href="#SVGID_1_"  style="overflow:visible;"/>
			</clipPath>
			<g class="st9">
				<g>
					<defs>
						<rect id="SVGID_3_" x="-385.5" y="-385.8" width="1770.8" height="1770.8"/>
					</defs>
					<clipPath id="SVGID_4_">
						<use xlink:href="#SVGID_3_"  style="overflow:visible;"/>
					</clipPath>
					<rect x="150.2" y="313.7" class="st10" width="699.6" height="373.2"/>
				</g>
			</g>
		</g>
	</g>
</g>
<g id="Guides" class="st1">
</g>
<g id="TEMPLATE__x28_delete_x29_" class="st1">
	<path class="st11" d="M0,0v1000h1000V0H0z M800,800H200V200h600V800z"/>
	<g class="st2">
		<g>
			<defs>
				<path id="SVGID_5_" d="M247.5,294.9c2-3.5,6.4-4.6,9.8-2.6s4.6,6.4,2.6,9.9s-6.4,4.6-9.8,2.6
					C246.7,302.8,245.5,298.4,247.5,294.9z M276.1,294.9c2-3.5,6.4-4.6,9.8-2.6s4.6,6.4,2.6,9.9s-6.4,4.6-9.8,2.6
					C275.3,302.8,274.1,298.4,276.1,294.9z M319.4,316.7c-1.4,1.4-3.2,2.1-5.4,2.1c-1.1,0-2.1-0.2-3-0.6s-1.7-0.9-2.4-1.6
					c-0.7-0.7-1.2-1.5-1.5-2.4c-0.4-0.9-0.6-2-0.6-3.1s0.2-2.1,0.6-3s0.9-1.7,1.6-2.4c0.7-0.7,1.5-1.2,2.4-1.5
					c0.9-0.4,1.9-0.6,3-0.6s2.1,0.2,3,0.6s1.7,0.9,2.4,1.6c0.7,0.7,1.2,1.5,1.6,2.3c0.4,0.9,0.6,1.9,0.6,2.9
					C321.5,313.5,320.8,315.3,319.4,316.7z M321,283.6V299c-1.2-1.2-2.5-2.1-3.9-2.7s-3-0.9-4.9-0.9c-2.1,0-4,0.4-5.8,1.2
					c-1.8,0.8-3.3,1.9-4.6,3.3c-1.3,1.4-2.3,3.1-3.1,5c-0.7,1.9-1.1,4-1.1,6.3s0.4,4.5,1.1,6.4s1.8,3.6,3.1,5
					c1.3,1.4,2.9,2.5,4.7,3.3c1.8,0.8,3.8,1.2,6,1.2c2.1,0,3.8-0.3,5.2-1c1.4-0.7,2.7-1.7,3.9-3.2v3.2h8.4v-42.6h-9V283.6z
					 M268,291.9c0.2-0.4,0.4-0.9,0.7-1.3c4.3-7.6,14-10.2,21.5-5.8c7.5,4.4,10.1,14.1,5.8,21.6l-11.4,19.8h-10.2l6.8-11.9
					c-2.3-0.2-4.6-0.8-6.7-2.1c-2.9-1.7-5.1-4.2-6.4-7.1c-0.2,0.4-0.4,0.9-0.7,1.3L256,326.2h-10.2l6.8-11.9
					c-2.3-0.2-4.6-0.8-6.7-2.1c-7.5-4.4-10.1-14.1-5.8-21.6c4.3-7.6,14-10.2,21.5-5.8C264.5,286.5,266.7,289,268,291.9z
					 M340.7,308.2c0.4-1.7,1.1-2.9,2.3-3.8c1.2-0.9,2.6-1.3,4.3-1.3c1.7,0,3.2,0.5,4.4,1.4c1.2,0.9,2,2.2,2.3,3.7L340.7,308.2
					L340.7,308.2z M361.6,305.3c-0.8-2-1.9-3.7-3.3-5.1s-3-2.6-5-3.4c-1.9-0.8-4-1.2-6.2-1.2c-2.1,0-4.1,0.4-6,1.2
					c-1.9,0.8-3.5,2-4.9,3.4s-2.5,3.1-3.3,5s-1.2,4-1.2,6.2s0.4,4.3,1.2,6.2c0.8,1.9,1.9,3.6,3.3,5s3,2.5,4.9,3.4
					c1.9,0.8,3.9,1.2,6.1,1.2c3.1,0,6-0.9,8.5-2.7c2.4-1.7,4.3-4.1,5.7-7.1h-9.2c-0.9,0.9-1.8,1.5-2.6,1.8c-0.8,0.3-1.7,0.5-2.8,0.5
					c-1.8,0-3.2-0.5-4.4-1.5c-1.2-1-1.9-2.3-2.1-4h22.1C363,311.2,362.8,308.2,361.6,305.3z M387.2,304.9c-0.4-5.8-5-9.3-11.3-9.3
					c-6,0-11.5,3.8-11.5,9.6c0,3.5,2,6.4,9.4,8.7c4.4,1.4,5.4,2.2,5.4,3.9c0,1.4-1.5,2.3-3.1,2.3c-1.8,0-3.1-0.9-3.4-2.7H364
					c0.6,6,5.4,9.8,12,9.8c6.7,0,12-3.9,12-10.1c0-4.3-2.3-7.1-9.3-9c-4.1-1.1-5.5-1.9-5.5-3.5c0-1.1,1.1-2,2.6-2
					c1.4,0,2.7,0.5,2.7,2.2h8.7V304.9z M394.9,293.4c2.9,0,5.3-2.4,5.3-5.3s-2.4-5.3-5.3-5.3s-5.3,2.4-5.3,5.3
					S392,293.4,394.9,293.4z M399.3,326.2h-8.8v-29.7h8.8V326.2z M416.2,302.2c2.7,0,4.9,2.2,4.9,4.9s-2.2,4.9-4.9,4.9
					c-2.7,0-4.9-2.2-4.9-4.9C411.3,304.4,413.5,302.2,416.2,302.2z M422.4,332.3c-1,1.4-2.9,1.9-4.5,1.9c-1.9,0.1-4.5-0.3-5.7-1.9
					c-1.2-1.5-1-3.6,0.7-4.6c0.5-0.3,1-0.5,1.5-0.6h4.4c1.9,0,4.4,0.5,4.3,2.9C423.1,330.9,422.8,331.7,422.4,332.3z M413.8,320.4
					c-3.6-0.6-3.5-2-2.6-2.7c8.2,3.1,18.1-0.8,18.2-10.3c0-3.5-1.3-5.7-2.2-6.7c0.7-1.4,1.6-2.2,3.4-2.6l-3.7-6.5
					c-3.4,0.3-5.6,2.4-6.6,4.5c-2-0.8-6.1-0.9-9.3,0.3c-1.6,0.6-3,1.4-4.2,2.5c-1.2,1-2.1,2.3-2.8,3.8c-0.7,1.5-1,3.1-1,4.8
					c0,2.3,0.7,4.9,2,6.8c-3.6,3.5-3.4,8.7,0.3,12c-0.4,0.3-0.8,0.6-1.1,1c-3.3,3.6-1.8,8.7,2.1,11.3c4.8,3.5,13.4,3.7,18.7,1.3
					c9.3-3.8,9.6-17.6-1.2-19.4C420.8,320,417.4,320.9,413.8,320.4z M432.8,326.2h8.9v-16.6c0-3.9,1.7-5.8,5-5.8
					c1.6,0,2.8,0.5,3.5,1.5s1.1,2.6,1.1,4.7v16.2h8.9v-18.6c0-1.2-0.1-2.2-0.1-3.1c-0.1-0.9-0.3-1.7-0.5-2.4
					c-0.2-0.7-0.5-1.3-0.9-1.9s-0.9-1.1-1.4-1.7c-0.9-0.9-2.1-1.7-3.5-2.2s-2.9-0.8-4.4-0.8c-1.9,0-3.5,0.3-4.7,1s-2.4,1.7-3.4,3.2
					v-3.1h-8.4v29.6H432.8z M485.1,304.9c-0.4-5.8-5-9.3-11.3-9.3c-6,0-11.5,3.8-11.5,9.6c0,3.5,2,6.4,9.4,8.7
					c4.4,1.4,5.4,2.2,5.4,3.9c0,1.4-1.5,2.3-3.1,2.3c-1.8,0-3.1-0.9-3.4-2.7H462c0.6,6,5.4,9.8,12,9.8c6.7,0,12-3.9,12-10.1
					c0-4.3-2.3-7.1-9.3-9c-4.1-1.1-5.5-1.9-5.5-3.5c0-1.1,1.1-2,2.6-2c1.4,0,2.7,0.5,2.7,2.2h8.6V304.9z"/>
			</defs>
			<clipPath id="SVGID_6_">
				<use xlink:href="#SVGID_5_"  style="overflow:visible;"/>
			</clipPath>
			<g class="st12">
				<g>
					<defs>
						<rect id="SVGID_7_" x="196.7" y="142.6" width="330.7" height="330.7"/>
					</defs>
					<clipPath id="SVGID_8_">
						<use xlink:href="#SVGID_7_"  style="overflow:visible;"/>
					</clipPath>
					<rect x="235.9" y="280.6" class="st13" width="252.2" height="62.8"/>
				</g>
			</g>
		</g>
	</g>
	<g class="st2">
		<path class="st14" d="M243,385.8h7v3.1h-10.3v-16.8h3.3V385.8z"/>
		<path class="st14" d="M264.3,382.8c0,3.8-2.7,6.4-6.4,6.4c-3.6,0-6.4-2.6-6.4-6.4s2.7-6.3,6.4-6.3
			C261.6,376.5,264.3,379,264.3,382.8z M254.8,382.8c0,2,1.3,3.5,3.2,3.5s3.1-1.5,3.1-3.5s-1.2-3.5-3.1-3.5S254.8,380.8,254.8,382.8
			z"/>
		<path class="st14" d="M277.9,379.4h-1.8c0.1,0.4,0.2,0.9,0.2,1.4c0,2.4-2,4.2-4.8,4.2c-0.7,0-1.4-0.1-2-0.3
			c-0.2,0.2-0.3,0.5-0.3,0.9c0,0.6,0.5,1,1.2,1h2.9c2.5,0,4,1.2,4,3.5c0,2.7-2.1,4.2-5.4,4.2c-3.6,0-5.5-1.3-5.5-3.7
			c0-1.1,0.6-1.8,1.2-2.1c-0.7-0.5-1.4-1.4-1.4-2.6s0.5-2,1.2-2.6c-0.5-0.7-0.8-1.5-0.8-2.5c0-2.5,2.1-4.3,4.9-4.3
			c0.6,0,1.2,0.1,1.8,0.3h4.6L277.9,379.4L277.9,379.4z M270.7,388.9c-0.7,0.1-1.2,0.6-1.2,1.4c0,1.1,1,1.7,2.5,1.7
			c1.4,0,2.3-0.6,2.3-1.7c0-0.9-0.7-1.3-1.7-1.3h-1.9V388.9z M269.7,380.8c0,1.1,0.7,1.9,1.8,1.9s1.8-0.8,1.8-1.9c0-1.2-0.7-2-1.8-2
			C270.4,378.8,269.7,379.6,269.7,380.8z"/>
		<path class="st14" d="M291.8,382.8c0,3.8-2.7,6.4-6.4,6.4c-3.6,0-6.4-2.6-6.4-6.4s2.7-6.3,6.4-6.3
			C289,376.5,291.8,379,291.8,382.8z M282.2,382.8c0,2,1.3,3.5,3.2,3.5c1.9,0,3.1-1.5,3.1-3.5s-1.2-3.5-3.1-3.5
			C283.5,379.3,282.2,380.8,282.2,382.8z"/>
		<path class="st14" d="M303.3,376.7h2.8v2.8h-2.8v4.9c0,1.2,0.4,1.8,1.6,1.8c0.6,0,0.9-0.1,1.3-0.2v2.7c-0.4,0.1-1,0.3-2,0.3
			c-2.7,0-4-1.1-4-3.8v-5.7h-2v-2.8h2v-3h3.1V376.7z"/>
		<path class="st14" d="M319.6,382.8v1h-8.5c0.1,1.6,1.2,2.7,2.9,2.7c1.2,0,2.1-0.5,2.4-1.4h3c-0.7,2.6-2.6,4.1-5.6,4.1
			c-3.6,0-6-2.5-6-6.3c0-3.7,2.4-6.4,6-6.4C317.2,376.5,319.6,378.5,319.6,382.8z M311.1,381.6h5.3c0-1.5-1-2.5-2.6-2.5
			C312.3,379.1,311.3,380.1,311.1,381.6z"/>
		<path class="st14" d="M339.4,381v7.9h-3.1v-7.2c0-1.4-0.6-2.2-1.7-2.2c-1.2,0-2.1,0.9-2.1,2.8v6.6h-3.1v-7.2
			c0-1.4-0.6-2.2-1.7-2.2c-1.2,0-2.1,1-2.1,3v6.4h-3.1v-12.2h2.7l0.2,1.6c0.6-1,1.7-1.8,3.2-1.8c1.7,0,2.9,0.8,3.5,2.1
			c0.6-1.2,1.8-2.1,3.5-2.1C338.1,376.5,339.4,378.2,339.4,381z"/>
		<path class="st14" d="M355.3,382.8c0,3.6-2.4,6.4-5.7,6.4c-1.8,0-3-0.7-3.6-1.6v6.5h-3.1v-17.3h2.7l0.2,1.6c0.7-1,1.8-1.9,3.9-1.9
			C352.9,376.5,355.3,379.2,355.3,382.8z M345.9,382.8v0.1c0,2.1,1.6,3.3,3.1,3.3c1.7,0,3.1-1.3,3.1-3.4s-1.3-3.4-3.1-3.4
			C347.4,379.4,345.9,380.6,345.9,382.8z"/>
		<path class="st14" d="M361.1,388.9H358v-17.5h3.1V388.9z"/>
		<path class="st14" d="M374,380.9v8h-2.7l-0.2-1.5c-0.6,1-1.8,1.8-3.5,1.8c-2.2,0-3.7-1.3-3.7-3.5c0-2.4,1.6-3.3,3.8-3.6l3.1-0.6
			V381c0-1.2-0.6-1.8-1.7-1.8c-1,0-1.8,0.6-1.8,1.6h-3c0.1-2.5,2-4.3,4.8-4.3S374,377.9,374,380.9z M368.5,384
			c-0.8,0.2-1.4,0.6-1.4,1.4c0,0.7,0.5,1.2,1.4,1.2c0.8,0,1.5-0.4,1.9-1.1c0.3-0.4,0.4-1,0.4-1.6v-0.4L368.5,384z"/>
		<path class="st14" d="M381.2,376.7h2.8v2.8h-2.8v4.9c0,1.2,0.4,1.8,1.6,1.8c0.6,0,0.9-0.1,1.3-0.2v2.7c-0.4,0.1-1,0.3-2,0.3
			c-2.7,0-4-1.1-4-3.8v-5.7h-2v-2.8h2v-3h3.1V376.7z"/>
		<path class="st14" d="M397.5,382.8v1H389c0.1,1.6,1.2,2.7,2.9,2.7c1.2,0,2.1-0.5,2.4-1.4h3c-0.7,2.6-2.6,4.1-5.6,4.1
			c-3.6,0-6-2.5-6-6.3c0-3.7,2.4-6.4,6-6.4C395.1,376.5,397.5,378.5,397.5,382.8z M389,381.6h5.3c0-1.5-1-2.5-2.6-2.5
			C390.2,379.1,389.2,380.1,389,381.6z"/>
		<path class="st15" d="M410.6,372.6c-2,2.7-3,5-3,8.6s1,6,3,8.6l-2.2,1.5c-2.2-2.7-3.7-5.7-3.7-10.1s1.5-7.4,3.7-10.1L410.6,372.6z
			"/>
		<path class="st15" d="M418.5,388.9h-3.3v-11.6h-3.5v-2.8c2.6,0,4-0.6,4.4-2.4h2.4V388.9z"/>
		<path class="st15" d="M433.3,380.5c0,5.4-2.1,8.7-6,8.7s-6-3.4-6-8.7c0-5.4,2.1-8.7,6-8.7S433.3,375.1,433.3,380.5z M424.7,380.5
			c0,3.6,0.9,5.7,2.6,5.7c1.8,0,2.6-2.1,2.6-5.7c0-3.5-0.9-5.6-2.6-5.6S424.7,376.9,424.7,380.5z"/>
		<path class="st15" d="M447.3,380.5c0,5.4-2.1,8.7-6,8.7s-6-3.4-6-8.7c0-5.4,2.1-8.7,6-8.7S447.3,375.1,447.3,380.5z M438.7,380.5
			c0,3.6,0.9,5.7,2.6,5.7c1.8,0,2.6-2.1,2.6-5.7c0-3.5-0.9-5.6-2.6-5.6C439.5,374.9,438.7,376.9,438.7,380.5z"/>
		<path class="st15" d="M461.2,380.5c0,5.4-2.1,8.7-6,8.7s-6-3.4-6-8.7c0-5.4,2.1-8.7,6-8.7S461.2,375.1,461.2,380.5z M452.6,380.5
			c0,3.6,0.9,5.7,2.6,5.7c1.8,0,2.6-2.1,2.6-5.7c0-3.5-0.9-5.6-2.6-5.6S452.6,376.9,452.6,380.5z"/>
		<path class="st15" d="M478,380.4l5.7,8.5h-3.9l-4-6.1l-4,6.1h-3.9l5.6-8.5l-5.5-8.3h3.9l3.9,5.8l3.9-5.8h3.9L478,380.4z"/>
		<path class="st15" d="M497,388.9h-3.3v-11.6h-3.5v-2.8c2.6,0,4-0.6,4.4-2.4h2.4V388.9z"/>
		<path class="st15" d="M511.7,380.5c0,5.4-2.1,8.7-6,8.7c-3.8,0-6-3.4-6-8.7c0-5.4,2.1-8.7,6-8.7S511.7,375.1,511.7,380.5z
			 M503.1,380.5c0,3.6,0.9,5.7,2.6,5.7c1.8,0,2.6-2.1,2.6-5.7c0-3.5-0.9-5.6-2.6-5.6S503.1,376.9,503.1,380.5z"/>
		<path class="st15" d="M525.7,380.5c0,5.4-2.1,8.7-6,8.7c-3.8,0-6-3.4-6-8.7c0-5.4,2.1-8.7,6-8.7
			C523.5,371.8,525.7,375.1,525.7,380.5z M517.1,380.5c0,3.6,0.9,5.7,2.6,5.7c1.8,0,2.6-2.1,2.6-5.7c0-3.5-0.9-5.6-2.6-5.6
			C517.9,374.9,517.1,376.9,517.1,380.5z"/>
		<path class="st15" d="M539.6,380.5c0,5.4-2.1,8.7-6,8.7c-3.8,0-6-3.4-6-8.7c0-5.4,2.1-8.7,6-8.7S539.6,375.1,539.6,380.5z
			 M531,380.5c0,3.6,0.9,5.7,2.6,5.7c1.8,0,2.6-2.1,2.6-5.7c0-3.5-0.9-5.6-2.6-5.6S531,376.9,531,380.5z"/>
		<path class="st15" d="M554.9,382.8c0,3.6-2.4,6.4-5.7,6.4c-1.8,0-3-0.7-3.6-1.6v6.5h-3.1v-17.3h2.7l0.2,1.6c0.7-1,1.8-1.9,3.9-1.9
			C552.5,376.5,554.9,379.2,554.9,382.8z M545.5,382.8v0.1c0,2.1,1.6,3.3,3.1,3.3c1.7,0,3.1-1.3,3.1-3.4s-1.3-3.4-3.1-3.4
			C547.1,379.4,545.5,380.6,545.5,382.8z"/>
		<path class="st15" d="M564,382.7l3.8,6.2h-3.6l-2.4-3.8l-2.4,3.8h-3.6l3.8-6.2l-3.7-6h3.6l2.2,3.6l2.2-3.6h3.6L564,382.7z"/>
		<path class="st15" d="M574.6,381.2c0,4.4-1.6,7.4-3.8,10.1l-2.2-1.5c2-2.7,3-5,3-8.6s-1-6-3-8.6l2.2-1.5
			C573.1,373.8,574.6,376.8,574.6,381.2z"/>
	</g>
	<g class="st2">
		<path class="st16" d="M241.6,443.2h4.5v1.3h-4.5V443.2z"/>
		<path class="st16" d="M254.8,444.4v4.7h-1.5v-12.2h3.7c2.4,0,4.2,1.1,4.2,3.8c0,2.6-1.8,3.8-4.3,3.8L254.8,444.4L254.8,444.4z
			 M256.9,443.2c1.8,0,2.8-0.9,2.8-2.6c0-1.8-1-2.6-2.8-2.6h-2.1v5.2H256.9z"/>
		<path class="st16" d="M263.3,436.5h1.4v12.6h-1.4V436.5z"/>
		<path class="st16" d="M267.5,443c0-1.5,1.2-2.5,3.2-2.5c2.1,0,3.1,0.9,3.1,3.1v3.4c0,0.7,0.1,0.9,0.8,1v1.2h-0.2
			c-1.3,0-1.8-0.5-1.9-1.5l0,0c-0.4,1-1.5,1.6-2.7,1.6c-1.7,0-2.7-0.9-2.7-2.4c0-0.9,0.4-1.7,1.3-2.1c0.9-0.5,2.2-0.6,4.1-0.7v-0.4
			c0-1.5-0.6-2.1-1.8-2.1c-1.2,0-1.7,0.7-1.8,1.4H267.5z M272.4,445.3v-0.2c-1.8,0.1-2.9,0.2-3.4,0.6c-0.3,0.2-0.5,0.6-0.5,1
			c0,0.9,0.6,1.3,1.5,1.3C271.1,448.1,272.4,447.4,272.4,445.3z"/>
		<path class="st16" d="M281.9,443.2c-0.1-0.9-0.7-1.6-1.9-1.6c-1.5,0-2.3,1.3-2.3,3.3s0.6,3.3,2.3,3.3c1.6,0,2-1.2,2.1-1.8h1.3
			c-0.2,2-1.6,2.9-3.4,2.9c-2.4,0-3.7-1.7-3.7-4.4c0-2.6,1.4-4.5,3.8-4.5c1.7,0,3.2,0.8,3.3,2.8L281.9,443.2L281.9,443.2z"/>
		<path class="st16" d="M288.8,449.3c-2.6,0-3.8-1.9-3.8-4.4s1.3-4.5,3.8-4.5s3.5,2,3.5,4.1v0.7h-5.8c0.1,1.7,0.8,2.9,2.4,2.9
			c1.4,0,1.8-0.8,1.9-1.3h1.4C291.9,448.3,290.6,449.3,288.8,449.3z M290.8,444c0-1.4-0.6-2.5-2.1-2.5c-1.3,0-2.1,1.1-2.3,2.6
			L290.8,444L290.8,444z"/>
		<path class="st16" d="M298.3,440.7h1.4l1.8,5.3c0.3,0.8,0.4,1.3,0.4,1.3l0,0c0,0,0.1-0.5,0.4-1.3l1.7-5.3h1.4l-3.1,9
			c-0.7,1.9-1.2,2.7-3.1,2.7c-0.3,0-0.6,0-0.9-0.1V451c0.3,0.1,0.6,0.1,0.7,0.1c1.1,0,1.4-0.4,1.8-1.5l0.2-0.4L298.3,440.7z"/>
		<path class="st16" d="M306.9,444.9c0-2.6,1.4-4.4,3.8-4.4c2.5,0,3.8,1.8,3.8,4.4s-1.4,4.4-3.8,4.4
			C308.1,449.3,306.9,447.5,306.9,444.9z M308.4,444.9c0,2.1,0.7,3.3,2.3,3.3c1.6,0,2.3-1.2,2.3-3.3c0-2-0.7-3.3-2.3-3.3
			S308.4,442.8,308.4,444.9z"/>
		<path class="st16" d="M318.2,445.8c0,0.6,0,1.3,0.3,1.7c0.3,0.4,0.7,0.6,1.3,0.6c1.6,0,2.3-1,2.3-2.9v-4.6h1.4v8.4h-1.4v-1.4l0,0
			c-0.4,0.9-1.3,1.6-2.7,1.6c-1.6,0-2.7-0.8-2.7-2.8v-5.9h1.4v5.3H318.2z"/>
		<path class="st16" d="M326.7,440.7h1.4v1.6l0,0c0.4-0.9,1.4-1.7,2.7-1.7h0.1v1.5h-0.3c-1.5,0-2.5,0.9-2.5,2.5v4.6h-1.4
			L326.7,440.7L326.7,440.7z"/>
		<path class="st16" d="M337.7,436.5h1.4v12.6h-1.4V436.5z"/>
		<path class="st16" d="M341.5,444.9c0-2.6,1.4-4.4,3.8-4.4c2.5,0,3.8,1.8,3.8,4.4s-1.4,4.4-3.8,4.4
			C342.8,449.3,341.5,447.5,341.5,444.9z M343,444.9c0,2.1,0.7,3.3,2.3,3.3c1.6,0,2.3-1.2,2.3-3.3c0-2-0.7-3.3-2.3-3.3
			S343,442.8,343,444.9z"/>
		<path class="st16" d="M351.1,449.9h1.4c0.2,0.7,0.7,1.2,2.1,1.2c1.6,0,2.4-0.6,2.4-2.4v-1.2l0,0c-0.4,0.8-1.4,1.6-2.7,1.6
			c-1.8,0-3.4-1.1-3.4-4.2c0-2.8,1.5-4.3,3.6-4.3c1.4,0,2.2,0.8,2.5,1.5l0,0v-1.3h1.4v8.2c0,2.4-1.6,3.4-3.8,3.4
			C352.9,452.3,351.3,451.7,351.1,449.9z M357,444.4c0-1.7-0.9-2.8-2.4-2.8s-2.2,1.3-2.2,3.2c0,1.9,0.5,3.1,2.3,3.1
			c1.4,0,2.3-1.2,2.3-2.6L357,444.4L357,444.4z"/>
		<path class="st16" d="M360.8,444.9c0-2.6,1.4-4.4,3.8-4.4c2.5,0,3.8,1.8,3.8,4.4s-1.4,4.4-3.8,4.4
			C362.1,449.3,360.8,447.5,360.8,444.9z M362.3,444.9c0,2.1,0.7,3.3,2.3,3.3c1.6,0,2.3-1.2,2.3-3.3c0-2-0.7-3.3-2.3-3.3
			S362.3,442.8,362.3,444.9z"/>
		<path class="st16" d="M374.2,440.7h1.5l1.6,5.7c0.1,0.5,0.3,1.1,0.3,1.1l0,0c0,0,0.2-0.6,0.3-1.1l1.8-5.7h1.5l1.8,5.7
			c0.2,0.5,0.3,1.1,0.3,1.1l0,0c0,0,0.1-0.6,0.3-1.1l1.7-5.7h1.4l-2.6,8.4h-1.5l-1.5-5c-0.2-0.8-0.5-1.8-0.5-1.8l0,0
			c0,0-0.3,1-0.5,1.8l-1.6,5H377L374.2,440.7z"/>
		<path class="st16" d="M388.7,437.2h1.5v1.6h-1.5V437.2z M388.8,440.7h1.5v8.4h-1.5V440.7z"/>
		<path class="st16" d="M395.2,438.2v2.4h2.1v1.1h-2.1v5c0,0.9,0.4,1.2,1.3,1.2c0.4,0,0.9-0.1,0.9-0.1v1.2c0,0-0.6,0.1-1.3,0.1
			c-1.6,0-2.3-0.8-2.3-2.2v-5.2h-1.5v-1.1h0.3c1.1,0,1.4-0.3,1.4-1.9v-0.6h1.2V438.2z"/>
		<path class="st16" d="M404.7,443.9c0-0.6,0-1.3-0.3-1.7c-0.3-0.4-0.8-0.6-1.3-0.6c-1.6,0-2.3,1-2.3,2.4v5.1h-1.4v-12.6h1.4v5.6
			l0,0c0.4-0.8,1.3-1.6,2.6-1.6c1.6,0,2.7,0.8,2.7,2.8v5.9h-1.4L404.7,443.9L404.7,443.9z"/>
		<path class="st16" d="M409.2,437.2h1.5v1.6h-1.5V437.2z M409.2,440.7h1.5v8.4h-1.5V440.7z"/>
		<path class="st16" d="M419.2,443.9c0-0.6,0-1.3-0.3-1.7c-0.3-0.4-0.8-0.6-1.3-0.6c-1.6,0-2.3,1-2.3,2.4v5.1h-1.4v-8.4h1.4v1.4l0,0
			c0.4-0.9,1.4-1.6,2.7-1.6c1.6,0,2.7,0.8,2.7,2.8v5.9h-1.4v-5.3H419.2z"/>
		<path class="st16" d="M430,438.2v2.4h2.1v1.1H430v5c0,0.9,0.4,1.2,1.3,1.2c0.4,0,0.9-0.1,0.9-0.1v1.2c0,0-0.6,0.1-1.3,0.1
			c-1.6,0-2.3-0.8-2.3-2.2v-5.2h-1.5v-1.1h0.3c1.1,0,1.4-0.3,1.4-1.9v-0.6h1.2V438.2z"/>
		<path class="st16" d="M439.6,443.9c0-0.6,0-1.3-0.3-1.7c-0.3-0.4-0.8-0.6-1.3-0.6c-1.6,0-2.3,1-2.3,2.4v5.1h-1.4v-12.6h1.4v5.6
			l0,0c0.4-0.8,1.3-1.6,2.6-1.6c1.6,0,2.7,0.8,2.7,2.8v5.9h-1.4L439.6,443.9L439.6,443.9z"/>
		<path class="st16" d="M447.2,449.3c-2.6,0-3.8-1.9-3.8-4.4s1.3-4.5,3.8-4.5s3.5,2,3.5,4.1v0.7h-5.8c0.1,1.7,0.8,2.9,2.4,2.9
			c1.4,0,1.8-0.8,1.9-1.3h1.4C450.2,448.3,449,449.3,447.2,449.3z M449.2,444c0-1.4-0.6-2.5-2.1-2.5c-1.3,0-2.1,1.1-2.3,2.6
			L449.2,444L449.2,444z"/>
		<path class="st16" d="M462.5,443.2c-0.1-0.9-0.7-1.6-1.9-1.6c-1.5,0-2.3,1.3-2.3,3.3s0.6,3.3,2.3,3.3c1.6,0,2-1.2,2.1-1.8h1.3
			c-0.2,2-1.6,2.9-3.4,2.9c-2.4,0-3.7-1.7-3.7-4.4c0-2.6,1.4-4.5,3.8-4.5c1.7,0,3.2,0.8,3.3,2.8L462.5,443.2L462.5,443.2z"/>
		<path class="st16" d="M466.3,440.7h1.4v1.6l0,0c0.4-0.9,1.4-1.7,2.7-1.7h0.1v1.5h-0.3c-1.5,0-2.5,0.9-2.5,2.5v4.6h-1.4
			L466.3,440.7L466.3,440.7z"/>
		<path class="st16" d="M471.8,444.9c0-2.6,1.4-4.4,3.8-4.4c2.5,0,3.8,1.8,3.8,4.4s-1.4,4.4-3.8,4.4
			C473.1,449.3,471.8,447.5,471.8,444.9z M473.3,444.9c0,2.1,0.7,3.3,2.3,3.3c1.6,0,2.3-1.2,2.3-3.3c0-2-0.7-3.3-2.3-3.3
			C474.1,441.6,473.3,442.8,473.3,444.9z"/>
		<path class="st16" d="M481.8,440.7h1.4v1.4l0,0c0.5-0.9,1.4-1.6,2.7-1.6c1.8,0,3.4,1.1,3.4,4.3c0,3.1-1.6,4.5-3.5,4.5
			c-1.2,0-2.2-0.7-2.5-1.4l0,0v4.2h-1.4v-11.4H481.8z M485.6,448.2c1.5,0,2.2-1.2,2.2-3.4c0-1.8-0.5-3.2-2.3-3.2
			c-1.5,0-2.4,1.3-2.4,2.7v0.9C483.2,446.9,484,448.2,485.6,448.2z"/>
		<path class="st16" d="M491.7,440.7h1.4v1.4l0,0c0.5-0.9,1.4-1.6,2.7-1.6c1.8,0,3.4,1.1,3.4,4.3c0,3.1-1.6,4.5-3.5,4.5
			c-1.2,0-2.2-0.7-2.5-1.4l0,0v4.2h-1.4v-11.4H491.7z M495.5,448.2c1.5,0,2.2-1.2,2.2-3.4c0-1.8-0.5-3.2-2.3-3.2
			c-1.5,0-2.4,1.3-2.4,2.7v0.9C493.1,446.9,493.9,448.2,495.5,448.2z"/>
		<path class="st16" d="M501.6,437.2h1.5v1.6h-1.5V437.2z M501.7,440.7h1.5v8.4h-1.5V440.7z"/>
		<path class="st16" d="M511.7,443.9c0-0.6,0-1.3-0.3-1.7c-0.3-0.4-0.8-0.6-1.3-0.6c-1.6,0-2.3,1-2.3,2.4v5.1h-1.4v-8.4h1.4v1.4l0,0
			c0.4-0.9,1.4-1.6,2.7-1.6c1.6,0,2.7,0.8,2.7,2.8v5.9h-1.4v-5.3H511.7z"/>
		<path class="st16" d="M515.6,449.9h1.4c0.2,0.7,0.7,1.2,2.1,1.2c1.6,0,2.4-0.6,2.4-2.4v-1.2l0,0c-0.4,0.8-1.4,1.6-2.7,1.6
			c-1.8,0-3.4-1.1-3.4-4.2c0-2.8,1.5-4.3,3.6-4.3c1.4,0,2.2,0.8,2.5,1.5l0,0v-1.3h1.4v8.2c0,2.4-1.6,3.4-3.8,3.4
			C517.5,452.3,515.8,451.7,515.6,449.9z M521.5,444.4c0-1.7-0.9-2.8-2.4-2.8s-2.2,1.3-2.2,3.2c0,1.9,0.5,3.1,2.3,3.1
			c1.4,0,2.3-1.2,2.3-2.6L521.5,444.4L521.5,444.4z"/>
		<path class="st16" d="M530.1,449.9h1.4c0.2,0.7,0.7,1.2,2.1,1.2c1.6,0,2.4-0.6,2.4-2.4v-1.2l0,0c-0.4,0.8-1.4,1.6-2.7,1.6
			c-1.8,0-3.4-1.1-3.4-4.2c0-2.8,1.5-4.3,3.6-4.3c1.4,0,2.2,0.8,2.5,1.5l0,0v-1.3h1.4v8.2c0,2.4-1.6,3.4-3.8,3.4
			C531.9,452.3,530.3,451.7,530.1,449.9z M536,444.4c0-1.7-0.9-2.8-2.4-2.8s-2.2,1.3-2.2,3.2c0,1.9,0.5,3.1,2.3,3.1
			c1.4,0,2.3-1.2,2.3-2.6L536,444.4L536,444.4z"/>
		<path class="st16" d="M541.8,445.8c0,0.6,0,1.3,0.3,1.7c0.3,0.4,0.7,0.6,1.3,0.6c1.6,0,2.3-1,2.3-2.9v-4.6h1.4v8.4h-1.4v-1.4l0,0
			c-0.4,0.9-1.3,1.6-2.7,1.6c-1.6,0-2.7-0.8-2.7-2.8v-5.9h1.4v5.3H541.8z"/>
		<path class="st16" d="M550.3,437.2h1.5v1.6h-1.5V437.2z M550.3,440.7h1.5v8.4h-1.5V440.7z"/>
		<path class="st16" d="M561.7,449.1h-1.4v-1.4l0,0c-0.4,0.8-1.4,1.6-2.7,1.6c-1.8,0-3.4-1.1-3.4-4.4c0-2.9,1.5-4.5,3.6-4.5
			c1.3,0,2.1,0.7,2.4,1.5l0,0v-5.5h1.4v12.7H561.7z M560.3,444.5c0-1.8-0.9-2.9-2.3-2.9c-1.6,0-2.4,1.3-2.4,3.3
			c0,1.9,0.6,3.3,2.2,3.3c1.5,0,2.4-1.2,2.4-2.7L560.3,444.5L560.3,444.5z"/>
		<path class="st16" d="M567.9,449.3c-2.6,0-3.8-1.9-3.8-4.4s1.3-4.5,3.8-4.5s3.5,2,3.5,4.1v0.7h-5.8c0.1,1.7,0.8,2.9,2.4,2.9
			c1.4,0,1.8-0.8,1.9-1.3h1.4C571,448.3,569.7,449.3,567.9,449.3z M569.9,444c0-1.4-0.6-2.5-2.1-2.5c-1.3,0-2.1,1.1-2.3,2.6
			L569.9,444L569.9,444z"/>
		<path class="st16" d="M578,442.8c-0.1-0.8-0.7-1.2-1.7-1.2s-1.6,0.6-1.6,1.4c0,0.7,0.4,1,1.3,1.2l1.3,0.2c1.8,0.3,2.4,1,2.4,2.4
			c0,1.7-1.4,2.6-3.3,2.6c-1.7,0-3.2-0.8-3.3-2.6h1.4c0.1,0.7,0.4,1.5,1.9,1.5c1.2,0,1.9-0.5,1.9-1.4c0-0.7-0.2-1-1.3-1.2l-1.3-0.2
			c-1.5-0.2-2.3-0.9-2.3-2.3c0-1.5,1.1-2.6,3.1-2.6c1.8,0,2.9,0.8,3,2.3L578,442.8L578,442.8z"/>
		<path class="st16" d="M581.5,447.1h2v2h-2V447.1z"/>
		<path class="st16" d="M241.6,473.2h4.5v1.3h-4.5V473.2z"/>
		<path class="st16" d="M258.2,466.7c3,0,5.5,2,5.5,6.3c0,4.4-2.5,6.3-5.5,6.3s-5.5-2-5.5-6.3C252.8,468.6,255.3,466.7,258.2,466.7z
			 M262.2,473c0-3.4-1.6-5.2-4-5.2c-2.3,0-3.9,1.7-3.9,5.2c0,3.3,1.6,5.1,3.9,5.1C260.5,478.2,262.2,476.3,262.2,473z"/>
		<path class="st16" d="M267.9,475.8c0,0.6,0,1.3,0.3,1.7c0.3,0.4,0.7,0.6,1.3,0.6c1.6,0,2.3-1,2.3-2.9v-4.6h1.4v8.4h-1.4v-1.4l0,0
			c-0.4,0.9-1.3,1.6-2.7,1.6c-1.6,0-2.7-0.8-2.7-2.8v-5.9h1.4v5.3H267.9z"/>
		<path class="st16" d="M278.2,468.2v2.4h2.1v1.1h-2.1v5c0,0.9,0.4,1.2,1.3,1.2c0.4,0,0.9-0.1,0.9-0.1v1.2c0,0-0.6,0.1-1.3,0.1
			c-1.6,0-2.3-0.8-2.3-2.2v-5.2h-1.5v-1.1h0.3c1.1,0,1.4-0.3,1.4-1.9v-0.6h1.2V468.2z"/>
		<path class="st16" d="M282.4,466.5h1.4v12.6h-1.4V466.5z"/>
		<path class="st16" d="M286.9,467.2h1.5v1.6h-1.5V467.2z M287,470.7h1.5v8.4H287V470.7z"/>
		<path class="st16" d="M296.9,473.9c0-0.6,0-1.3-0.3-1.7c-0.3-0.4-0.8-0.6-1.3-0.6c-1.6,0-2.3,1-2.3,2.4v5.1h-1.4v-8.4h1.4v1.4l0,0
			c0.4-0.9,1.4-1.6,2.7-1.6c1.6,0,2.7,0.8,2.7,2.8v5.9H297v-5.3H296.9z"/>
		<path class="st16" d="M304.5,479.3c-2.6,0-3.8-1.9-3.8-4.4s1.3-4.5,3.8-4.5s3.5,2,3.5,4.1v0.7h-5.8c0.1,1.7,0.8,2.9,2.4,2.9
			c1.4,0,1.8-0.8,1.9-1.3h1.4C307.6,478.3,306.3,479.3,304.5,479.3z M306.5,474c0-1.4-0.6-2.5-2.1-2.5c-1.3,0-2.1,1.1-2.3,2.6
			L306.5,474L306.5,474z"/>
		<path class="st16" d="M314.6,473c0-1.5,1.2-2.5,3.2-2.5c2.1,0,3.1,0.9,3.1,3.1v3.4c0,0.7,0.1,0.9,0.8,1v1.2h-0.2
			c-1.3,0-1.8-0.5-1.9-1.5l0,0c-0.4,1-1.5,1.6-2.7,1.6c-1.7,0-2.7-0.9-2.7-2.4c0-0.9,0.4-1.7,1.3-2.1c0.9-0.5,2.2-0.6,4.1-0.7v-0.4
			c0-1.5-0.6-2.1-1.8-2.1c-1.2,0-1.7,0.7-1.8,1.4H314.6z M319.5,475.3v-0.2c-1.8,0.1-2.9,0.2-3.4,0.6c-0.3,0.2-0.5,0.6-0.5,1
			c0,0.9,0.6,1.3,1.5,1.3C318.2,478.1,319.5,477.4,319.5,475.3z"/>
		<path class="st16" d="M324,466.5h1.4v12.6H324V466.5z"/>
		<path class="st16" d="M328.5,466.5h1.4v12.6h-1.4V466.5z"/>
		<path class="st16" d="M339.4,479.1H338v-7.3h-1.5v-1.1h1.5v-1.9c0-1.7,1-2.3,2.6-2.3c0.3,0,0.6,0,0.9,0.1v1.2
			c-0.2,0-0.4-0.1-0.8-0.1c-0.8,0-1.2,0.3-1.2,1.3v1.7h2v1.1h-2v7.3H339.4z"/>
		<path class="st16" d="M342.6,474.9c0-2.6,1.4-4.4,3.8-4.4c2.5,0,3.8,1.8,3.8,4.4s-1.4,4.4-3.8,4.4
			C343.9,479.3,342.6,477.5,342.6,474.9z M344.1,474.9c0,2.1,0.7,3.3,2.3,3.3c1.6,0,2.3-1.2,2.3-3.3c0-2-0.7-3.3-2.3-3.3
			C344.9,471.6,344.1,472.8,344.1,474.9z"/>
		<path class="st16" d="M358,473.9c0-0.6,0-1.3-0.3-1.7c-0.3-0.4-0.8-0.6-1.3-0.6c-1.6,0-2.3,1-2.3,2.4v5.1h-1.4v-8.4h1.4v1.4l0,0
			c0.4-0.9,1.4-1.6,2.7-1.6c1.6,0,2.7,0.8,2.7,2.8v5.9H358V473.9z"/>
		<path class="st16" d="M364.3,468.2v2.4h2.1v1.1h-2.1v5c0,0.9,0.4,1.2,1.3,1.2c0.4,0,0.9-0.1,0.9-0.1v1.2c0,0-0.6,0.1-1.3,0.1
			c-1.6,0-2.3-0.8-2.3-2.2v-5.2h-1.5v-1.1h0.3c1.1,0,1.4-0.3,1.4-1.9v-0.6h1.2V468.2z"/>
		<path class="st16" d="M372.7,472.8c-0.1-0.8-0.7-1.2-1.7-1.2s-1.6,0.6-1.6,1.4c0,0.7,0.4,1,1.3,1.2l1.3,0.2c1.8,0.3,2.4,1,2.4,2.4
			c0,1.7-1.4,2.6-3.3,2.6c-1.7,0-3.2-0.8-3.3-2.6h1.4c0.1,0.7,0.4,1.5,1.9,1.5c1.2,0,1.9-0.5,1.9-1.4c0-0.7-0.2-1-1.3-1.2l-1.3-0.2
			c-1.5-0.2-2.3-0.9-2.3-2.3c0-1.5,1.1-2.6,3.1-2.6c1.8,0,2.9,0.8,3,2.3L372.7,472.8L372.7,472.8z"/>
		<path class="st16" d="M382.7,475.8c0,0.6,0,1.3,0.3,1.7c0.3,0.4,0.7,0.6,1.3,0.6c1.6,0,2.3-1,2.3-2.9v-4.6h1.4v8.4h-1.4v-1.4l0,0
			c-0.4,0.9-1.3,1.6-2.7,1.6c-1.6,0-2.7-0.8-2.7-2.8v-5.9h1.4v5.3H382.7z"/>
		<path class="st16" d="M395.3,472.8c-0.1-0.8-0.7-1.2-1.7-1.2s-1.6,0.6-1.6,1.4c0,0.7,0.4,1,1.3,1.2l1.3,0.2c1.8,0.3,2.4,1,2.4,2.4
			c0,1.7-1.4,2.6-3.3,2.6c-1.7,0-3.2-0.8-3.3-2.6h1.4c0.1,0.7,0.4,1.5,1.9,1.5c1.2,0,1.9-0.5,1.9-1.4c0-0.7-0.2-1-1.3-1.2l-1.3-0.2
			c-1.5-0.2-2.3-0.9-2.3-2.3c0-1.5,1.1-2.6,3.1-2.6c1.8,0,2.9,0.8,3,2.3L395.3,472.8L395.3,472.8z"/>
		<path class="st16" d="M402.5,479.3c-2.6,0-3.8-1.9-3.8-4.4s1.3-4.5,3.8-4.5s3.5,2,3.5,4.1v0.7h-5.8c0.1,1.7,0.8,2.9,2.4,2.9
			c1.4,0,1.8-0.8,1.9-1.3h1.4C405.6,478.3,404.3,479.3,402.5,479.3z M404.5,474c0-1.4-0.6-2.5-2.1-2.5c-1.3,0-2.1,1.1-2.3,2.6
			L404.5,474L404.5,474z"/>
		<path class="st16" d="M415.2,479.1h-1.4v-1.4l0,0c-0.4,0.8-1.4,1.6-2.7,1.6c-1.8,0-3.4-1.1-3.4-4.4c0-2.9,1.5-4.5,3.6-4.5
			c1.3,0,2.1,0.7,2.4,1.5l0,0v-5.5h1.4v12.7H415.2z M413.8,474.5c0-1.8-0.9-2.9-2.3-2.9c-1.6,0-2.4,1.3-2.4,3.3
			c0,1.9,0.6,3.3,2.2,3.3c1.5,0,2.4-1.2,2.4-2.7L413.8,474.5L413.8,474.5z"/>
		<path class="st16" d="M422.9,467.2h1.5v1.6h-1.5V467.2z M422.9,470.7h1.5v8.4h-1.5V470.7z"/>
		<path class="st16" d="M432.9,473.9c0-0.6,0-1.3-0.3-1.7c-0.3-0.4-0.8-0.6-1.3-0.6c-1.6,0-2.3,1-2.3,2.4v5.1h-1.4v-8.4h1.4v1.4l0,0
			c0.4-0.9,1.4-1.6,2.7-1.6c1.6,0,2.7,0.8,2.7,2.8v5.9H433v-5.3H432.9z"/>
		<path class="st16" d="M441.1,470.7h1.4l1.8,5.3c0.3,0.8,0.4,1.3,0.4,1.3l0,0c0,0,0.1-0.5,0.4-1.3l1.7-5.3h1.4l-3.1,9
			c-0.7,1.9-1.2,2.7-3.1,2.7c-0.3,0-0.6,0-0.9-0.1V481c0.3,0.1,0.6,0.1,0.7,0.1c1.1,0,1.4-0.4,1.8-1.5l0.2-0.4L441.1,470.7z"/>
		<path class="st16" d="M449.6,474.9c0-2.6,1.4-4.4,3.8-4.4c2.5,0,3.8,1.8,3.8,4.4s-1.4,4.4-3.8,4.4
			C450.9,479.3,449.6,477.5,449.6,474.9z M451.1,474.9c0,2.1,0.7,3.3,2.3,3.3c1.6,0,2.3-1.2,2.3-3.3c0-2-0.7-3.3-2.3-3.3
			C451.8,471.6,451.1,472.8,451.1,474.9z"/>
		<path class="st16" d="M461,475.8c0,0.6,0,1.3,0.3,1.7c0.3,0.4,0.7,0.6,1.3,0.6c1.6,0,2.3-1,2.3-2.9v-4.6h1.4v8.4h-1.4v-1.4l0,0
			c-0.4,0.9-1.3,1.6-2.7,1.6c-1.6,0-2.7-0.8-2.7-2.8v-5.9h1.4v5.3H461z"/>
		<path class="st16" d="M469.5,470.7h1.4v1.6l0,0c0.4-0.9,1.4-1.7,2.7-1.7h0.1v1.5h-0.3c-1.5,0-2.5,0.9-2.5,2.5v4.6h-1.4
			L469.5,470.7L469.5,470.7z"/>
		<path class="st16" d="M487.2,479.1h-1.4v-1.4l0,0c-0.4,0.8-1.4,1.6-2.7,1.6c-1.8,0-3.4-1.1-3.4-4.4c0-2.9,1.5-4.5,3.6-4.5
			c1.3,0,2.1,0.7,2.4,1.5l0,0v-5.5h1.4v12.7H487.2z M485.8,474.5c0-1.8-0.9-2.9-2.3-2.9c-1.6,0-2.4,1.3-2.4,3.3
			c0,1.9,0.6,3.3,2.2,3.3c1.5,0,2.4-1.2,2.4-2.7L485.8,474.5L485.8,474.5z"/>
		<path class="st16" d="M493.4,479.3c-2.6,0-3.8-1.9-3.8-4.4s1.3-4.5,3.8-4.5s3.5,2,3.5,4.1v0.7h-5.8c0.1,1.7,0.8,2.9,2.4,2.9
			c1.4,0,1.8-0.8,1.9-1.3h1.4C496.4,478.3,495.2,479.3,493.4,479.3z M495.4,474c0-1.4-0.6-2.5-2.1-2.5c-1.3,0-2.1,1.1-2.3,2.6
			L495.4,474L495.4,474z"/>
		<path class="st16" d="M503.5,472.8c-0.1-0.8-0.7-1.2-1.7-1.2s-1.6,0.6-1.6,1.4c0,0.7,0.4,1,1.3,1.2l1.3,0.2c1.8,0.3,2.4,1,2.4,2.4
			c0,1.7-1.4,2.6-3.3,2.6c-1.7,0-3.2-0.8-3.3-2.6h1.4c0.1,0.7,0.4,1.5,1.9,1.5c1.2,0,1.9-0.5,1.9-1.4c0-0.7-0.2-1-1.3-1.2l-1.3-0.2
			c-1.5-0.2-2.3-0.9-2.3-2.3c0-1.5,1.1-2.6,3.1-2.6c1.8,0,2.9,0.8,3,2.3L503.5,472.8L503.5,472.8z"/>
		<path class="st16" d="M507.5,467.2h1.5v1.6h-1.5V467.2z M507.6,470.7h1.5v8.4h-1.5V470.7z"/>
		<path class="st16" d="M511.7,479.9h1.4c0.2,0.7,0.7,1.2,2.1,1.2c1.6,0,2.4-0.6,2.4-2.4v-1.2l0,0c-0.4,0.8-1.4,1.6-2.7,1.6
			c-1.8,0-3.4-1.1-3.4-4.2c0-2.8,1.5-4.3,3.6-4.3c1.4,0,2.2,0.8,2.5,1.5l0,0v-1.3h1.4v8.2c0,2.4-1.6,3.4-3.8,3.4
			C513.5,482.3,511.8,481.7,511.7,479.9z M517.6,474.4c0-1.7-0.9-2.8-2.4-2.8s-2.2,1.3-2.2,3.2c0,1.9,0.5,3.1,2.3,3.1
			c1.4,0,2.3-1.2,2.3-2.6L517.6,474.4L517.6,474.4z"/>
		<path class="st16" d="M527.5,473.9c0-0.6,0-1.3-0.3-1.7c-0.3-0.4-0.8-0.6-1.3-0.6c-1.6,0-2.3,1-2.3,2.4v5.1h-1.4v-8.4h1.4v1.4l0,0
			c0.4-0.9,1.4-1.6,2.7-1.6c1.6,0,2.7,0.8,2.7,2.8v5.9h-1.4v-5.3H527.5z"/>
		<path class="st16" d="M531.4,477.1h2v2h-2V477.1z"/>
		<path class="st16" d="M241.6,503.2h4.5v1.3h-4.5V503.2z"/>
		<path class="st16" d="M253.3,496.9h7.8v1.3h-6.3v4.1h5.8v1.3h-5.8v4.2h6.4v1.3h-7.9L253.3,496.9L253.3,496.9z"/>
		<path class="st16" d="M265.9,504.7l-2.7-4.1h1.7l1.8,2.9l0,0l1.9-2.9h1.6l-2.7,4l2.9,4.4h-1.7l-2.1-3.3l0,0l-2.1,3.3H263
			L265.9,504.7z"/>
		<path class="st16" d="M272.4,500.7h1.4v1.4l0,0c0.5-0.9,1.4-1.6,2.7-1.6c1.8,0,3.4,1.1,3.4,4.3c0,3.1-1.6,4.5-3.5,4.5
			c-1.2,0-2.2-0.7-2.5-1.4l0,0v4.2h-1.4v-11.4H272.4z M276.2,508.2c1.5,0,2.2-1.2,2.2-3.4c0-1.8-0.5-3.2-2.3-3.2
			c-1.5,0-2.4,1.3-2.4,2.7v0.9C273.8,506.9,274.6,508.2,276.2,508.2z"/>
		<path class="st16" d="M281.7,504.9c0-2.6,1.4-4.4,3.8-4.4c2.5,0,3.8,1.8,3.8,4.4s-1.4,4.4-3.8,4.4
			C283,509.3,281.7,507.5,281.7,504.9z M283.2,504.9c0,2.1,0.7,3.3,2.3,3.3c1.6,0,2.3-1.2,2.3-3.3c0-2-0.7-3.3-2.3-3.3
			C284,501.6,283.2,502.8,283.2,504.9z"/>
		<path class="st16" d="M291.7,500.7h1.4v1.6l0,0c0.4-0.9,1.4-1.7,2.7-1.7h0.1v1.5h-0.3c-1.5,0-2.5,0.9-2.5,2.5v4.6h-1.4
			L291.7,500.7L291.7,500.7z"/>
		<path class="st16" d="M300.1,498.2v2.4h2.1v1.1h-2.1v5c0,0.9,0.4,1.2,1.3,1.2c0.4,0,0.9-0.1,0.9-0.1v1.2c0,0-0.6,0.1-1.3,0.1
			c-1.6,0-2.3-0.8-2.3-2.2v-5.2h-1.5v-1.1h0.3c1.1,0,1.4-0.3,1.4-1.9v-0.6h1.2V498.2z"/>
		<path class="st16" d="M308.5,503c0-1.5,1.2-2.5,3.2-2.5c2.1,0,3.1,0.9,3.1,3.1v3.4c0,0.7,0.1,0.9,0.8,1v1.2h-0.2
			c-1.3,0-1.8-0.5-1.9-1.5l0,0c-0.4,1-1.5,1.6-2.7,1.6c-1.7,0-2.7-0.9-2.7-2.4c0-0.9,0.4-1.7,1.3-2.1c0.9-0.5,2.2-0.6,4.1-0.7v-0.4
			c0-1.5-0.6-2.1-1.8-2.1c-1.2,0-1.7,0.7-1.8,1.4H308.5z M313.4,505.3v-0.2c-1.8,0.1-2.9,0.2-3.4,0.6c-0.3,0.2-0.5,0.6-0.5,1
			c0,0.9,0.6,1.3,1.5,1.3C312.1,508.1,313.4,507.4,313.4,505.3z"/>
		<path class="st16" d="M323.2,503.9c0-0.6,0-1.3-0.3-1.7c-0.3-0.4-0.8-0.6-1.3-0.6c-1.6,0-2.3,1-2.3,2.4v5.1h-1.4v-8.4h1.4v1.4l0,0
			c0.4-0.9,1.4-1.6,2.7-1.6c1.6,0,2.7,0.8,2.7,2.8v5.9h-1.4v-5.3H323.2z"/>
		<path class="st16" d="M334.5,509.1h-1.4v-1.4l0,0c-0.4,0.8-1.4,1.6-2.7,1.6c-1.8,0-3.4-1.1-3.4-4.4c0-2.9,1.5-4.5,3.6-4.5
			c1.3,0,2.1,0.7,2.4,1.5l0,0v-5.5h1.4v12.7H334.5z M333.1,504.5c0-1.8-0.9-2.9-2.3-2.9c-1.6,0-2.4,1.3-2.4,3.3
			c0,1.9,0.6,3.3,2.2,3.3c1.5,0,2.4-1.2,2.4-2.7L333.1,504.5L333.1,504.5z"/>
		<path class="st16" d="M346.3,502.8c-0.1-0.8-0.7-1.2-1.7-1.2s-1.6,0.6-1.6,1.4c0,0.7,0.4,1,1.3,1.2l1.3,0.2c1.8,0.3,2.4,1,2.4,2.4
			c0,1.7-1.4,2.6-3.3,2.6c-1.7,0-3.2-0.8-3.3-2.6h1.4c0.1,0.7,0.4,1.5,1.9,1.5c1.2,0,1.9-0.5,1.9-1.4c0-0.7-0.2-1-1.3-1.2l-1.3-0.2
			c-1.5-0.2-2.3-0.9-2.3-2.3c0-1.5,1.1-2.6,3.1-2.6c1.8,0,2.9,0.8,3,2.3L346.3,502.8L346.3,502.8z"/>
		<path class="st16" d="M351.7,505.8c0,0.6,0,1.3,0.3,1.7c0.3,0.4,0.7,0.6,1.3,0.6c1.6,0,2.3-1,2.3-2.9v-4.6h1.4v8.4h-1.4v-1.4l0,0
			c-0.4,0.9-1.3,1.6-2.7,1.6c-1.6,0-2.7-0.8-2.7-2.8v-5.9h1.4v5.3H351.7z"/>
		<path class="st16" d="M360.2,496.5h1.4v5.6l0,0c0.5-0.9,1.4-1.6,2.7-1.6c1.8,0,3.4,1.1,3.4,4.3c0,3.1-1.6,4.5-3.5,4.5
			c-1.3,0-2.2-0.7-2.6-1.6l0,0v1.3h-1.4V496.5z M366.2,504.8c0-1.8-0.5-3.2-2.3-3.2c-1.5,0-2.4,1.3-2.4,2.7v0.9c0,1.7,0.8,3,2.4,3
			C365.5,508.2,366.2,507,366.2,504.8z"/>
		<path class="st16" d="M370.1,500.7h1.4v1.4l0,0c0.4-0.9,1.4-1.6,2.7-1.6c1.3,0,2.2,0.6,2.5,1.7l0,0c0.3-0.9,1.4-1.7,2.8-1.7
			c1.6,0,2.7,0.8,2.7,2.8v5.9h-1.4V504c0-0.6,0-1.3-0.3-1.7c-0.3-0.4-0.8-0.5-1.3-0.5c-1.6,0-2.3,1-2.3,2.4v5.1h-1.4v-5.2
			c0-0.6,0-1.2-0.3-1.7c-0.3-0.4-0.8-0.6-1.3-0.6c-1.6,0-2.3,1-2.3,2.4v5.1h-1.4v-8.6H370.1z"/>
		<path class="st16" d="M385.3,497.2h1.5v1.6h-1.5V497.2z M385.3,500.7h1.5v8.4h-1.5V500.7z"/>
		<path class="st16" d="M391.7,498.2v2.4h2.1v1.1h-2.1v5c0,0.9,0.4,1.2,1.3,1.2c0.4,0,0.9-0.1,0.9-0.1v1.2c0,0-0.6,0.1-1.3,0.1
			c-1.6,0-2.3-0.8-2.3-2.2v-5.2h-1.5v-1.1h0.3c1.1,0,1.4-0.3,1.4-1.9v-0.6h1.2V498.2z"/>
		<path class="st16" d="M400.4,496.5h1.4v12.6h-1.4V496.5z"/>
		<path class="st16" d="M404.3,504.9c0-2.6,1.4-4.4,3.8-4.4c2.5,0,3.8,1.8,3.8,4.4s-1.4,4.4-3.8,4.4
			C405.5,509.3,404.3,507.5,404.3,504.9z M405.7,504.9c0,2.1,0.7,3.3,2.3,3.3c1.6,0,2.3-1.2,2.3-3.3c0-2-0.7-3.3-2.3-3.3
			C406.5,501.6,405.7,502.8,405.7,504.9z"/>
		<path class="st16" d="M413.9,509.9h1.4c0.2,0.7,0.7,1.2,2.1,1.2c1.6,0,2.4-0.6,2.4-2.4v-1.2l0,0c-0.4,0.8-1.4,1.6-2.7,1.6
			c-1.8,0-3.4-1.1-3.4-4.2c0-2.8,1.5-4.3,3.6-4.3c1.4,0,2.2,0.8,2.5,1.5l0,0v-1.3h1.4v8.2c0,2.4-1.6,3.4-3.8,3.4
			C415.7,512.3,414,511.7,413.9,509.9z M419.8,504.4c0-1.7-0.9-2.8-2.4-2.8s-2.2,1.3-2.2,3.2c0,1.9,0.5,3.1,2.3,3.1
			c1.4,0,2.3-1.2,2.3-2.6L419.8,504.4L419.8,504.4z"/>
		<path class="st16" d="M423.5,504.9c0-2.6,1.4-4.4,3.8-4.4c2.5,0,3.8,1.8,3.8,4.4s-1.4,4.4-3.8,4.4
			C424.8,509.3,423.5,507.5,423.5,504.9z M425,504.9c0,2.1,0.7,3.3,2.3,3.3c1.6,0,2.3-1.2,2.3-3.3c0-2-0.7-3.3-2.3-3.3
			C425.8,501.6,425,502.8,425,504.9z"/>
		<path class="st16" d="M437.8,502.8c-0.1-0.8-0.7-1.2-1.7-1.2s-1.6,0.6-1.6,1.4c0,0.7,0.4,1,1.3,1.2l1.3,0.2c1.8,0.3,2.4,1,2.4,2.4
			c0,1.7-1.4,2.6-3.3,2.6c-1.7,0-3.2-0.8-3.3-2.6h1.4c0.1,0.7,0.4,1.5,1.9,1.5c1.2,0,1.9-0.5,1.9-1.4c0-0.7-0.2-1-1.3-1.2l-1.3-0.2
			c-1.5-0.2-2.3-0.9-2.3-2.3c0-1.5,1.1-2.6,3.1-2.6c1.8,0,2.9,0.8,3,2.3L437.8,502.8L437.8,502.8z"/>
		<path class="st16" d="M446,503c0-1.5,1.2-2.5,3.2-2.5c2.1,0,3.1,0.9,3.1,3.1v3.4c0,0.7,0.1,0.9,0.8,1v1.2h-0.2
			c-1.3,0-1.8-0.5-1.9-1.5l0,0c-0.4,1-1.5,1.6-2.7,1.6c-1.7,0-2.7-0.9-2.7-2.4c0-0.9,0.4-1.7,1.3-2.1c0.9-0.5,2.2-0.6,4.1-0.7v-0.4
			c0-1.5-0.6-2.1-1.8-2.1c-1.2,0-1.7,0.7-1.8,1.4H446z M450.9,505.3v-0.2c-1.8,0.1-2.9,0.2-3.4,0.6c-0.3,0.2-0.5,0.6-0.5,1
			c0,0.9,0.6,1.3,1.5,1.3C449.6,508.1,450.9,507.4,450.9,505.3z"/>
		<path class="st16" d="M457.1,498.2v2.4h2.1v1.1h-2.1v5c0,0.9,0.4,1.2,1.3,1.2c0.4,0,0.9-0.1,0.9-0.1v1.2c0,0-0.6,0.1-1.3,0.1
			c-1.6,0-2.3-0.8-2.3-2.2v-5.2h-1.5v-1.1h0.3c1.1,0,1.4-0.3,1.4-1.9v-0.6h1.2V498.2z"/>
		<path class="st16" d="M467.6,500.4h-2.4v-1h0.4c0.8,0,1.4-0.2,1.7-0.6c0.4-0.4,0.5-0.8,0.5-1.6h1.2v11.9h-1.5L467.6,500.4
			L467.6,500.4z"/>
		<path class="st16" d="M476.6,497.1c2.6,0,4.3,2,4.3,6.1s-1.7,6.1-4.3,6.1c-2.6,0-4.2-2-4.2-6.1C472.3,499.1,474,497.1,476.6,497.1
			z M479.3,503.2c0-3.3-1-5-2.7-5s-2.7,1.6-2.7,5c0,3.3,1,4.9,2.7,4.9C478.3,508.2,479.3,506.5,479.3,503.2z"/>
		<path class="st16" d="M487.5,497.1c2.6,0,4.3,2,4.3,6.1s-1.7,6.1-4.3,6.1c-2.6,0-4.2-2-4.2-6.1S485,497.1,487.5,497.1z
			 M490.3,503.2c0-3.3-1-5-2.7-5s-2.7,1.6-2.7,5c0,3.3,1,4.9,2.7,4.9C489.2,508.2,490.3,506.5,490.3,503.2z"/>
		<path class="st16" d="M498.5,497.1c2.6,0,4.3,2,4.3,6.1s-1.7,6.1-4.3,6.1c-2.6,0-4.2-2-4.2-6.1S495.9,497.1,498.5,497.1z
			 M501.2,503.2c0-3.3-1-5-2.7-5s-2.7,1.6-2.7,5c0,3.3,1,4.9,2.7,4.9C500.2,508.2,501.2,506.5,501.2,503.2z"/>
		<path class="st16" d="M505.5,500.7h1.4v1.4l0,0c0.5-0.9,1.4-1.6,2.7-1.6c1.8,0,3.4,1.1,3.4,4.3c0,3.1-1.6,4.5-3.5,4.5
			c-1.2,0-2.2-0.7-2.5-1.4l0,0v4.2h-1.4v-11.4H505.5z M509.4,508.2c1.5,0,2.2-1.2,2.2-3.4c0-1.8-0.5-3.2-2.3-3.2
			c-1.5,0-2.4,1.3-2.4,2.7v0.9C506.9,506.9,507.8,508.2,509.4,508.2z"/>
		<path class="st16" d="M517,504.7l-2.7-4.1h1.7l1.8,2.9l0,0l1.9-2.9h1.6l-2.7,4l2.9,4.4h-1.7l-2.1-3.3l0,0l-2.1,3.3H514L517,504.7z
			"/>
		<path class="st16" d="M532.3,502.8c-0.1-0.8-0.7-1.2-1.7-1.2s-1.6,0.6-1.6,1.4c0,0.7,0.4,1,1.3,1.2l1.3,0.2c1.8,0.3,2.4,1,2.4,2.4
			c0,1.7-1.4,2.6-3.3,2.6c-1.7,0-3.2-0.8-3.3-2.6h1.4c0.1,0.7,0.4,1.5,1.9,1.5c1.2,0,1.9-0.5,1.9-1.4c0-0.7-0.2-1-1.3-1.2l-1.3-0.2
			c-1.5-0.2-2.3-0.9-2.3-2.3c0-1.5,1.1-2.6,3.1-2.6c1.8,0,2.9,0.8,3,2.3L532.3,502.8L532.3,502.8z"/>
		<path class="st16" d="M543.2,512.1h-1.4v-4.3l0,0c-0.4,0.8-1.3,1.5-2.6,1.5c-1.8,0-3.4-1.1-3.4-4.4c0-2.9,1.5-4.5,3.6-4.5
			c1.3,0,2.1,0.7,2.4,1.5l0,0v-1.3h1.4V512.1z M541.8,505.4v-0.9c0-1.8-0.9-2.9-2.3-2.9c-1.6,0-2.4,1.3-2.4,3.3
			c0,1.9,0.6,3.3,2.2,3.3C540.8,508.2,541.8,507,541.8,505.4z"/>
		<path class="st16" d="M547.6,505.8c0,0.6,0,1.3,0.3,1.7c0.3,0.4,0.7,0.6,1.3,0.6c1.6,0,2.3-1,2.3-2.9v-4.6h1.4v8.4h-1.4v-1.4l0,0
			c-0.4,0.9-1.3,1.6-2.7,1.6c-1.6,0-2.7-0.8-2.7-2.8v-5.9h1.4v5.3H547.6z"/>
		<path class="st16" d="M555.7,503c0-1.5,1.2-2.5,3.2-2.5c2.1,0,3.1,0.9,3.1,3.1v3.4c0,0.7,0.1,0.9,0.8,1v1.2h-0.2
			c-1.3,0-1.8-0.5-1.9-1.5l0,0c-0.4,1-1.5,1.6-2.7,1.6c-1.7,0-2.7-0.9-2.7-2.4c0-0.9,0.4-1.7,1.3-2.1c0.9-0.5,2.2-0.6,4.1-0.7v-0.4
			c0-1.5-0.6-2.1-1.8-2.1s-1.7,0.7-1.8,1.4H555.7z M560.6,505.3v-0.2c-1.8,0.1-2.9,0.2-3.4,0.6c-0.3,0.2-0.5,0.6-0.5,1
			c0,0.9,0.6,1.3,1.5,1.3C559.3,508.1,560.6,507.4,560.6,505.3z"/>
		<path class="st16" d="M565.1,500.7h1.4v1.6l0,0c0.4-0.9,1.4-1.7,2.7-1.7h0.1v1.5H569c-1.5,0-2.5,0.9-2.5,2.5v4.6h-1.4V500.7z"/>
		<path class="st16" d="M574.4,509.3c-2.6,0-3.8-1.9-3.8-4.4s1.3-4.5,3.8-4.5s3.5,2,3.5,4.1v0.7H572c0.1,1.7,0.8,2.9,2.4,2.9
			c1.4,0,1.8-0.8,1.9-1.3h1.4C577.4,508.3,576.2,509.3,574.4,509.3z M576.4,504c0-1.4-0.6-2.5-2.1-2.5c-1.3,0-2.1,1.1-2.3,2.6
			L576.4,504L576.4,504z"/>
		<path class="st16" d="M586.6,498.2v2.4h2.1v1.1h-2.1v5c0,0.9,0.4,1.2,1.3,1.2c0.4,0,0.9-0.1,0.9-0.1v1.2c0,0-0.6,0.1-1.3,0.1
			c-1.6,0-2.3-0.8-2.3-2.2v-5.2h-1.5v-1.1h0.3c1.1,0,1.4-0.3,1.4-1.9v-0.6h1.2V498.2z"/>
		<path class="st16" d="M590.2,504.9c0-2.6,1.4-4.4,3.8-4.4c2.5,0,3.8,1.8,3.8,4.4s-1.4,4.4-3.8,4.4
			C591.5,509.3,590.2,507.5,590.2,504.9z M591.7,504.9c0,2.1,0.7,3.3,2.3,3.3s2.3-1.2,2.3-3.3c0-2-0.7-3.3-2.3-3.3
			S591.7,502.8,591.7,504.9z"/>
		<path class="st16" d="M599.8,500.7h2v2h-2V500.7z M599.8,509.1v-2h2v2H599.8z"/>
		<path class="st16" d="M259.6,533.2h4.5v1.3h-4.5V533.2z"/>
		<path class="st16" d="M270.1,539.1v-1.3h0.3c2.6,0,3-0.7,3-2.5v-8.5h1.5v8.7c0,2.6-1.4,3.6-4.1,3.6H270.1z"/>
		<path class="st16" d="M279.8,534.4v4.7h-1.5v-12.2h3.7c2.4,0,4.2,1.1,4.2,3.8c0,2.6-1.8,3.8-4.3,3.8L279.8,534.4L279.8,534.4z
			 M281.9,533.2c1.8,0,2.8-0.9,2.8-2.6c0-1.8-1-2.6-2.8-2.6h-2.1v5.2L281.9,533.2L281.9,533.2z"/>
		<path class="st16" d="M289.7,533.1c0,3.2,1.4,5.1,3.9,5.1c2.3,0,3.7-1.3,3.7-3.7v-0.2h-3.5V533h5v6.2h-1.3v-1.8h-0.1
			c-0.6,1.1-1.8,2-3.8,2c-3.1,0-5.4-2-5.4-6.3c0-4,2.4-6.4,5.6-6.4c2.5,0,4.3,1.3,4.6,3.4h-1.6c-0.2-1.4-1.5-2.2-3.1-2.2
			C291.1,527.9,289.7,529.9,289.7,533.1z"/>
		<path class="st16" d="M301.8,537.1h1.8l-1.3,3.8h-1L301.8,537.1z"/>
		<path class="st16" d="M312,534.4v4.7h-1.5v-12.2h3.7c2.4,0,4.2,1.1,4.2,3.8c0,2.6-1.8,3.8-4.3,3.8L312,534.4L312,534.4z
			 M314,533.2c1.8,0,2.8-0.9,2.8-2.6c0-1.8-1-2.6-2.8-2.6h-2v5.2L314,533.2L314,533.2z"/>
		<path class="st16" d="M320.8,526.9h1.9l5.4,9.1c0.4,0.7,0.6,1.2,0.6,1.2l0,0v-10.3h1.4v12.2h-1.9l-5.4-9.1
			c-0.5-0.8-0.6-1.2-0.6-1.2l0,0v10.3h-1.4V526.9z"/>
		<path class="st16" d="M334.7,533.1c0,3.2,1.4,5.1,3.9,5.1c2.3,0,3.7-1.3,3.7-3.7v-0.2h-3.5V533h5v6.2h-1.3v-1.8h-0.1
			c-0.6,1.1-1.8,2-3.8,2c-3.1,0-5.4-2-5.4-6.3c0-4,2.4-6.4,5.6-6.4c2.5,0,4.3,1.3,4.6,3.4h-1.6c-0.2-1.4-1.5-2.2-3.1-2.2
			C336.1,527.9,334.7,529.9,334.7,533.1z"/>
		<path class="st16" d="M346.7,530.7h2v2h-2V530.7z M346.7,539.1v-2h2v2H346.7z"/>
		<path class="st16" d="M360,532.8c-0.1-0.8-0.7-1.2-1.7-1.2s-1.6,0.6-1.6,1.4c0,0.7,0.4,1,1.3,1.2l1.3,0.2c1.8,0.3,2.4,1,2.4,2.4
			c0,1.7-1.4,2.6-3.3,2.6c-1.7,0-3.2-0.8-3.3-2.6h1.4c0.1,0.7,0.4,1.5,1.9,1.5c1.2,0,1.9-0.5,1.9-1.4c0-0.7-0.2-1-1.3-1.2l-1.3-0.2
			c-1.5-0.2-2.3-0.9-2.3-2.3c0-1.5,1.1-2.6,3.1-2.6c1.8,0,2.9,0.8,3,2.3H360V532.8z"/>
		<path class="st16" d="M367.2,539.3c-2.6,0-3.8-1.9-3.8-4.4s1.3-4.5,3.8-4.5s3.5,2,3.5,4.1v0.7h-5.8c0.1,1.7,0.8,2.9,2.4,2.9
			c1.4,0,1.8-0.8,1.9-1.3h1.4C370.2,538.3,369,539.3,367.2,539.3z M369.2,534c0-1.4-0.6-2.5-2.1-2.5c-1.3,0-2.1,1.1-2.3,2.6
			L369.2,534L369.2,534z"/>
		<path class="st16" d="M374.8,528.2v2.4h2.1v1.1h-2.1v5c0,0.9,0.4,1.2,1.3,1.2c0.4,0,0.9-0.1,0.9-0.1v1.2c0,0-0.6,0.1-1.3,0.1
			c-1.6,0-2.3-0.8-2.3-2.2v-5.2h-1.5v-1.1h0.3c1.1,0,1.4-0.3,1.4-1.9v-0.6L374.8,528.2L374.8,528.2z"/>
		<path class="st16" d="M385.3,528.2v2.4h2.1v1.1h-2.1v5c0,0.9,0.4,1.2,1.3,1.2c0.4,0,0.9-0.1,0.9-0.1v1.2c0,0-0.6,0.1-1.3,0.1
			c-1.6,0-2.3-0.8-2.3-2.2v-5.2h-1.5v-1.1h0.3c1.1,0,1.4-0.3,1.4-1.9v-0.6L385.3,528.2L385.3,528.2z"/>
		<path class="st16" d="M388.9,534.9c0-2.6,1.4-4.4,3.8-4.4c2.5,0,3.8,1.8,3.8,4.4c0,2.6-1.4,4.4-3.8,4.4
			C390.2,539.3,388.9,537.5,388.9,534.9z M390.4,534.9c0,2.1,0.7,3.3,2.3,3.3c1.6,0,2.3-1.2,2.3-3.3c0-2-0.7-3.3-2.3-3.3
			C391.2,531.6,390.4,532.8,390.4,534.9z"/>
		<path class="st16" d="M403.4,530.7h1.4v1.4l0,0c0.4-0.9,1.4-1.6,2.7-1.6c1.3,0,2.2,0.6,2.5,1.7l0,0c0.3-0.9,1.4-1.7,2.8-1.7
			c1.6,0,2.7,0.8,2.7,2.8v5.9h-1.4V534c0-0.6,0-1.3-0.3-1.7s-0.8-0.5-1.3-0.5c-1.6,0-2.3,1-2.3,2.4v5.1h-1.4v-5.2
			c0-0.6,0-1.2-0.3-1.7c-0.3-0.4-0.8-0.6-1.3-0.6c-1.6,0-2.3,1-2.3,2.4v5.1h-1.4v-8.6H403.4z"/>
		<path class="st16" d="M418.3,533c0-1.5,1.2-2.5,3.2-2.5c2.1,0,3.1,0.9,3.1,3.1v3.4c0,0.7,0.1,0.9,0.8,1v1.2h-0.2
			c-1.3,0-1.8-0.5-1.9-1.5l0,0c-0.4,1-1.5,1.6-2.7,1.6c-1.7,0-2.7-0.9-2.7-2.4c0-0.9,0.4-1.7,1.3-2.1c0.9-0.5,2.2-0.6,4.1-0.7v-0.4
			c0-1.5-0.6-2.1-1.8-2.1c-1.2,0-1.7,0.7-1.8,1.4H418.3z M423.2,535.3v-0.2c-1.8,0.1-2.9,0.2-3.4,0.6c-0.3,0.2-0.5,0.6-0.5,1
			c0,0.9,0.6,1.3,1.5,1.3C421.8,538.1,423.2,537.4,423.2,535.3z"/>
		<path class="st16" d="M429.3,534.7l-2.7-4.1h1.7l1.8,2.9l0,0l1.9-2.9h1.6l-2.7,4l2.9,4.4h-1.7l-2.1-3.3l0,0l-2.1,3.3h-1.6
			L429.3,534.7z"/>
		<path class="st16" d="M435.8,527.2h1.5v1.6h-1.5V527.2z M435.9,530.7h1.5v8.4h-1.5V530.7z"/>
		<path class="st16" d="M440.5,530.7h1.4v1.4l0,0c0.4-0.9,1.4-1.6,2.7-1.6c1.3,0,2.2,0.6,2.5,1.7l0,0c0.3-0.9,1.4-1.7,2.8-1.7
			c1.6,0,2.7,0.8,2.7,2.8v5.9h-1.4V534c0-0.6,0-1.3-0.3-1.7s-0.8-0.5-1.3-0.5c-1.6,0-2.3,1-2.3,2.4v5.1h-1.4v-5.2
			c0-0.6,0-1.2-0.3-1.7c-0.3-0.4-0.8-0.6-1.3-0.6c-1.6,0-2.3,1-2.3,2.4v5.1h-1.4v-8.6H440.5z"/>
		<path class="st16" d="M457.1,535.8c0,0.6,0,1.3,0.3,1.7s0.7,0.6,1.3,0.6c1.6,0,2.3-1,2.3-2.9v-4.6h1.4v8.4H461v-1.4l0,0
			c-0.4,0.9-1.3,1.6-2.7,1.6c-1.6,0-2.7-0.8-2.7-2.8v-5.9h1.4v5.3H457.1z"/>
		<path class="st16" d="M465.6,530.7h1.4v1.4l0,0c0.4-0.9,1.4-1.6,2.7-1.6c1.3,0,2.2,0.6,2.5,1.7l0,0c0.3-0.9,1.4-1.7,2.8-1.7
			c1.6,0,2.7,0.8,2.7,2.8v5.9h-1.4V534c0-0.6,0-1.3-0.3-1.7s-0.8-0.5-1.3-0.5c-1.6,0-2.3,1-2.3,2.4v5.1H471v-5.2
			c0-0.6,0-1.2-0.3-1.7c-0.3-0.4-0.8-0.6-1.3-0.6c-1.6,0-2.3,1-2.3,2.4v5.1h-1.4v-8.6H465.6z"/>
		<path class="st16" d="M492,542.1h-1.4v-4.3l0,0c-0.4,0.8-1.3,1.5-2.6,1.5c-1.8,0-3.4-1.1-3.4-4.4c0-2.9,1.5-4.5,3.6-4.5
			c1.3,0,2.1,0.7,2.4,1.5l0,0v-1.3h1.4V542.1z M490.6,535.4v-0.9c0-1.8-0.9-2.9-2.3-2.9c-1.6,0-2.4,1.3-2.4,3.3
			c0,1.9,0.6,3.3,2.2,3.3C489.7,538.2,490.6,537,490.6,535.4z"/>
		<path class="st16" d="M496.5,535.8c0,0.6,0,1.3,0.3,1.7s0.7,0.6,1.3,0.6c1.6,0,2.3-1,2.3-2.9v-4.6h1.4v8.4h-1.4v-1.4l0,0
			c-0.4,0.9-1.3,1.6-2.7,1.6c-1.6,0-2.7-0.8-2.7-2.8v-5.9h1.4v5.3H496.5z"/>
		<path class="st16" d="M504.6,533c0-1.5,1.2-2.5,3.2-2.5c2.1,0,3.1,0.9,3.1,3.1v3.4c0,0.7,0.1,0.9,0.8,1v1.2h-0.2
			c-1.3,0-1.8-0.5-1.9-1.5l0,0c-0.4,1-1.5,1.6-2.7,1.6c-1.7,0-2.7-0.9-2.7-2.4c0-0.9,0.4-1.7,1.3-2.1c0.9-0.5,2.2-0.6,4.1-0.7v-0.4
			c0-1.5-0.6-2.1-1.8-2.1c-1.2,0-1.7,0.7-1.8,1.4H504.6z M509.5,535.3v-0.2c-1.8,0.1-2.9,0.2-3.4,0.6c-0.3,0.2-0.5,0.6-0.5,1
			c0,0.9,0.6,1.3,1.5,1.3C508.2,538.1,509.5,537.4,509.5,535.3z"/>
		<path class="st16" d="M513.9,526.5h1.4v12.6h-1.4V526.5z"/>
		<path class="st16" d="M518.5,527.2h1.5v1.6h-1.5V527.2z M518.5,530.7h1.5v8.4h-1.5V530.7z"/>
		<path class="st16" d="M524.9,528.2v2.4h2.1v1.1h-2.1v5c0,0.9,0.4,1.2,1.3,1.2c0.4,0,0.9-0.1,0.9-0.1v1.2c0,0-0.6,0.1-1.3,0.1
			c-1.6,0-2.3-0.8-2.3-2.2v-5.2H522v-1.1h0.3c1.1,0,1.4-0.3,1.4-1.9v-0.6L524.9,528.2L524.9,528.2z"/>
		<path class="st16" d="M528.5,530.7h1.4l1.8,5.3c0.3,0.8,0.4,1.3,0.4,1.3l0,0c0,0,0.1-0.5,0.4-1.3l1.7-5.3h1.4l-3.1,9
			c-0.7,1.9-1.2,2.7-3.1,2.7c-0.3,0-0.6,0-0.9-0.1V541c0.3,0.1,0.6,0.1,0.7,0.1c1.1,0,1.4-0.4,1.8-1.5l0.2-0.4L528.5,530.7z"/>
		<path class="st16" d="M536.2,537.1h2v2h-2V537.1z"/>
		<path class="st16" d="M259.6,563.2h4.5v1.3h-4.5V563.2z"/>
		<path class="st16" d="M272.9,564.4v4.7h-1.5v-12.2h3.7c2.4,0,4.2,1.1,4.2,3.8c0,2.6-1.8,3.8-4.3,3.8L272.9,564.4L272.9,564.4z
			 M274.9,563.2c1.8,0,2.8-0.9,2.8-2.6c0-1.8-1-2.6-2.8-2.6h-2.1v5.2L274.9,563.2L274.9,563.2z"/>
		<path class="st16" d="M281.8,556.9h3.8c3.3,0,5.9,1.6,5.9,6c0,4.3-2.4,6.3-5.7,6.3h-3.9L281.8,556.9L281.8,556.9z M285.5,567.8
			c2.6,0,4.4-1.3,4.4-4.9c0-3.4-1.8-4.7-4.3-4.7h-2.4v9.7L285.5,567.8L285.5,567.8z"/>
		<path class="st16" d="M295.8,569.1h-1.5v-12.2h7.3v1.3h-5.8v4.4h5.3v1.3h-5.3V569.1z"/>
		<path class="st16" d="M259.6,593.2h4.5v1.3h-4.5V593.2z"/>
		<path class="st16" d="M271.4,586.9h7.8v1.3h-6.3v4.1h5.8v1.3h-5.8v4.2h6.4v1.3h-7.9V586.9z"/>
		<path class="st16" d="M283.9,594.4v4.7h-1.5v-12.2h3.7c2.4,0,4.2,1.1,4.2,3.8c0,2.6-1.8,3.8-4.3,3.8L283.9,594.4L283.9,594.4z
			 M285.9,593.2c1.8,0,2.8-0.9,2.8-2.6c0-1.8-1-2.6-2.8-2.6h-2.1v5.2L285.9,593.2L285.9,593.2z"/>
		<path class="st16" d="M299.3,590.1c-0.1-1.2-0.8-2.3-2.5-2.3s-2.6,0.9-2.6,2.1c0,1.1,0.6,1.8,2,2l1.7,0.3c2.4,0.4,3.2,1.6,3.2,3.3
			c0,2.2-1.5,3.7-4.5,3.7c-2.8,0-4.4-1.5-4.6-3.7h1.6c0.2,1.3,1.1,2.5,3.1,2.5c2.2,0,2.9-1.1,2.9-2.4c0-1.1-0.6-1.8-2.1-2l-1.7-0.3
			c-2.4-0.4-3.2-1.7-3.2-3.3c0-2,1.6-3.4,4.1-3.4c2.6,0,3.9,1.4,4,3.5L299.3,590.1L299.3,590.1z"/>
		<path class="st16" d="M303.6,590.7h2v2h-2V590.7z M303.6,599.1v-2h2v2H303.6z"/>
		<path class="st16" d="M315.8,599.3c-2.6,0-3.8-1.9-3.8-4.4s1.3-4.5,3.8-4.5s3.5,2,3.5,4.1v0.7h-5.8c0.1,1.7,0.8,2.9,2.4,2.9
			c1.4,0,1.8-0.8,1.9-1.3h1.4C318.8,598.3,317.6,599.3,315.8,599.3z M317.8,594c0-1.4-0.6-2.5-2.1-2.5c-1.3,0-2.1,1.1-2.3,2.6
			L317.8,594L317.8,594z"/>
		<path class="st16" d="M323.3,594.7l-2.7-4.1h1.7l1.8,2.9l0,0l1.9-2.9h1.6l-2.7,4l2.9,4.4h-1.7l-2.1-3.3l0,0l-2.1,3.3h-1.6
			L323.3,594.7z"/>
		<path class="st16" d="M329.8,590.7h1.4v1.4l0,0c0.5-0.9,1.4-1.6,2.7-1.6c1.8,0,3.4,1.1,3.4,4.3c0,3.1-1.6,4.5-3.5,4.5
			c-1.2,0-2.2-0.7-2.5-1.4l0,0v4.2h-1.4v-11.4H329.8z M333.6,598.2c1.5,0,2.2-1.2,2.2-3.4c0-1.8-0.5-3.2-2.3-3.2
			c-1.5,0-2.4,1.3-2.4,2.7v0.9C331.2,596.9,332,598.2,333.6,598.2z"/>
		<path class="st16" d="M339.1,594.9c0-2.6,1.4-4.4,3.8-4.4c2.5,0,3.8,1.8,3.8,4.4c0,2.6-1.4,4.4-3.8,4.4
			C340.4,599.3,339.1,597.5,339.1,594.9z M340.6,594.9c0,2.1,0.7,3.3,2.3,3.3c1.6,0,2.3-1.2,2.3-3.3c0-2-0.7-3.3-2.3-3.3
			C341.4,591.6,340.6,592.8,340.6,594.9z"/>
		<path class="st16" d="M349.1,590.7h1.4v1.6l0,0c0.4-0.9,1.4-1.7,2.7-1.7h0.1v1.5H353c-1.5,0-2.5,0.9-2.5,2.5v4.6h-1.4V590.7z"/>
		<path class="st16" d="M357.5,588.2v2.4h2.1v1.1h-2.1v5c0,0.9,0.4,1.2,1.3,1.2c0.4,0,0.9-0.1,0.9-0.1v1.2c0,0-0.6,0.1-1.3,0.1
			c-1.6,0-2.3-0.8-2.3-2.2v-5.2h-1.5v-1.1h0.3c1.1,0,1.4-0.3,1.4-1.9v-0.6L357.5,588.2L357.5,588.2z"/>
		<path class="st16" d="M370.6,593.9h-2.7v5.2h-1.5v-12.2h4.4c0.9,0,1.7,0.2,2.4,0.5c1,0.5,1.6,1.5,1.6,2.9c0,2.3-1.5,3.1-2.6,3.4
			l0,0l2.7,5.4h-1.7L370.6,593.9z M370.7,592.7c1.4,0,2.5-0.7,2.5-2.4c0-1.5-1-2.2-2.4-2.2h-2.9v4.6L370.7,592.7L370.7,592.7z"/>
		<path class="st16" d="M378.5,593.1c0,3.2,1.4,5.1,3.9,5.1c2.3,0,3.7-1.3,3.7-3.7v-0.2h-3.5V593h5v6.2h-1.3v-1.8h-0.1
			c-0.6,1.1-1.8,2-3.8,2c-3.1,0-5.4-2-5.4-6.3c0-4,2.4-6.4,5.6-6.4c2.5,0,4.3,1.3,4.6,3.4h-1.6c-0.2-1.4-1.5-2.2-3.1-2.2
			C379.9,587.9,378.5,589.9,378.5,593.1z"/>
		<path class="st16" d="M391,599.1v-12.2h4.8c2.1,0,3.8,1,3.8,3c0,1.5-0.8,2.4-2.2,2.7l0,0c1.5,0.3,2.6,1.5,2.6,2.9
			c0,2.8-2.1,3.6-4.5,3.6H391z M395.5,592c1.3,0,2.5-0.5,2.5-2c0-1.3-0.9-1.9-2.3-1.9h-3.2v4L395.5,592L395.5,592z M395.4,597.9
			c1.8,0,3-0.6,3-2.4c0-1.6-1.2-2.2-3.1-2.2h-2.8v4.7L395.4,597.9L395.4,597.9z"/>
		<path class="st16" d="M409.2,601.2c-0.9-1.8-2.1-4.1-2.1-7.3s1.2-5.5,2.1-7.3h1.1c-0.9,2-1.7,4.1-1.7,7.3c0,3.3,0.8,5.4,1.7,7.3
			H409.2z"/>
		<path class="st16" d="M419.2,599.1h-1.4v-1.4l0,0c-0.4,0.8-1.4,1.6-2.7,1.6c-1.8,0-3.4-1.1-3.4-4.4c0-2.9,1.5-4.5,3.6-4.5
			c1.3,0,2.1,0.7,2.4,1.5l0,0v-5.5h1.4v12.7H419.2z M417.8,594.5c0-1.8-0.9-2.9-2.3-2.9c-1.6,0-2.4,1.3-2.4,3.3
			c0,1.9,0.6,3.3,2.2,3.3c1.5,0,2.4-1.2,2.4-2.7L417.8,594.5L417.8,594.5z"/>
		<path class="st16" d="M422.3,587.2h1.5v1.6h-1.5V587.2z M422.4,590.7h1.5v8.4h-1.5V590.7z"/>
		<path class="st16" d="M426.4,599.9h1.4c0.2,0.7,0.7,1.2,2.1,1.2c1.6,0,2.4-0.6,2.4-2.4v-1.2l0,0c-0.4,0.8-1.4,1.6-2.7,1.6
			c-1.8,0-3.4-1.1-3.4-4.2c0-2.8,1.5-4.3,3.6-4.3c1.4,0,2.2,0.8,2.5,1.5l0,0v-1.3h1.4v8.2c0,2.4-1.6,3.4-3.8,3.4
			C428.3,602.3,426.6,601.7,426.4,599.9z M432.4,594.4c0-1.7-0.9-2.8-2.4-2.8s-2.2,1.3-2.2,3.2s0.5,3.1,2.3,3.1
			c1.4,0,2.3-1.2,2.3-2.6L432.4,594.4L432.4,594.4z"/>
		<path class="st16" d="M436.9,587.2h1.5v1.6h-1.5V587.2z M436.9,590.7h1.5v8.4h-1.5V590.7z"/>
		<path class="st16" d="M443.3,588.2v2.4h2.1v1.1h-2.1v5c0,0.9,0.4,1.2,1.3,1.2c0.4,0,0.9-0.1,0.9-0.1v1.2c0,0-0.6,0.1-1.3,0.1
			c-1.6,0-2.3-0.8-2.3-2.2v-5.2h-1.5v-1.1h0.3c1.1,0,1.4-0.3,1.4-1.9v-0.6L443.3,588.2L443.3,588.2z"/>
		<path class="st16" d="M447.8,593c0-1.5,1.2-2.5,3.2-2.5c2.1,0,3.1,0.9,3.1,3.1v3.4c0,0.7,0.1,0.9,0.8,1v1.2h-0.2
			c-1.3,0-1.8-0.5-1.9-1.5l0,0c-0.4,1-1.5,1.6-2.7,1.6c-1.7,0-2.7-0.9-2.7-2.4c0-0.9,0.4-1.7,1.3-2.1c0.9-0.5,2.2-0.6,4.1-0.7v-0.4
			c0-1.5-0.6-2.1-1.8-2.1c-1.2,0-1.7,0.7-1.8,1.4H447.8z M452.7,595.3v-0.2c-1.8,0.1-2.9,0.2-3.4,0.6c-0.3,0.2-0.5,0.6-0.5,1
			c0,0.9,0.6,1.3,1.5,1.3C451.4,598.1,452.7,597.4,452.7,595.3z"/>
		<path class="st16" d="M457.1,586.5h1.4v12.6h-1.4V586.5z"/>
		<path class="st16" d="M462.5,593.8c0-3.3-0.8-5.4-1.7-7.3h1.1c0.9,1.8,2.1,4.1,2.1,7.3s-1.2,5.5-2.1,7.3h-1.1
			C461.7,599.2,462.5,597.1,462.5,593.8z"/>
		<path class="st16" d="M471.4,593c0-1.5,1.2-2.5,3.2-2.5c2.1,0,3.1,0.9,3.1,3.1v3.4c0,0.7,0.1,0.9,0.8,1v1.2h-0.2
			c-1.3,0-1.8-0.5-1.9-1.5l0,0c-0.4,1-1.5,1.6-2.7,1.6c-1.7,0-2.7-0.9-2.7-2.4c0-0.9,0.4-1.7,1.3-2.1c0.9-0.5,2.2-0.6,4.1-0.7v-0.4
			c0-1.5-0.6-2.1-1.8-2.1c-1.2,0-1.7,0.7-1.8,1.4H471.4z M476.3,595.3v-0.2c-1.8,0.1-2.9,0.2-3.4,0.6c-0.3,0.2-0.5,0.6-0.5,1
			c0,0.9,0.6,1.3,1.5,1.3C475,598.1,476.3,597.4,476.3,595.3z"/>
		<path class="st16" d="M486.1,593.9c0-0.6,0-1.3-0.3-1.7s-0.8-0.6-1.3-0.6c-1.6,0-2.3,1-2.3,2.4v5.1h-1.4v-8.4h1.4v1.4l0,0
			c0.4-0.9,1.4-1.6,2.7-1.6c1.6,0,2.7,0.8,2.7,2.8v5.9h-1.4v-5.3H486.1z"/>
		<path class="st16" d="M497.4,599.1H496v-1.4l0,0c-0.4,0.8-1.4,1.6-2.7,1.6c-1.8,0-3.4-1.1-3.4-4.4c0-2.9,1.5-4.5,3.6-4.5
			c1.3,0,2.1,0.7,2.4,1.5l0,0v-5.5h1.4v12.7H497.4z M496,594.5c0-1.8-0.9-2.9-2.3-2.9c-1.6,0-2.4,1.3-2.4,3.3c0,1.9,0.6,3.3,2.2,3.3
			c1.5,0,2.4-1.2,2.4-2.7L496,594.5L496,594.5z"/>
		<path class="st16" d="M506.2,593c0,3.2,1.4,5.1,3.9,5.1c2.2,0,3.1-1.5,3.2-2.8h1.5c-0.2,2.3-2,4.1-4.7,4.1c-3.2,0-5.4-2.1-5.4-6.3
			c0-4,2.3-6.3,5.5-6.3c2.1,0,4.4,1.1,4.7,3.8h-1.6c-0.2-1.2-1.2-2.6-3.1-2.6C507.6,587.9,506.2,589.9,506.2,593z"/>
		<path class="st16" d="M517.7,586.9h2.3l3.1,8.8c0.4,1.1,0.5,1.6,0.5,1.6l0,0c0,0,0.2-0.5,0.5-1.6l3.2-8.8h2.2v12.2H528v-10.5l0,0
			c0,0-0.2,0.6-0.7,1.9l-3.1,8.6h-1.4l-3-8.6c-0.4-1.3-0.7-1.9-0.7-1.9l0,0v10.5h-1.4L517.7,586.9L517.7,586.9z"/>
		<path class="st16" d="M535.9,593.9l-4.3-7h1.7l3.3,5.7l0,0l3.4-5.7h1.6l-4.3,6.9v5.3h-1.5L535.9,593.9L535.9,593.9z"/>
		<path class="st16" d="M545.1,599.1h-1.5v-12.2h1.5v6.3l5.7-6.3h1.8L548,592l5,7.1h-1.8l-4.3-6l-1.8,2L545.1,599.1L545.1,599.1z"/>
		<path class="st16" d="M561.7,601.2c-0.9-1.8-2.1-4.1-2.1-7.3s1.2-5.5,2.1-7.3h1.1c-0.9,2-1.7,4.1-1.7,7.3c0,3.3,0.8,5.4,1.7,7.3
			H561.7z"/>
		<path class="st16" d="M565.1,590.7h1.4v1.4l0,0c0.5-0.9,1.4-1.6,2.7-1.6c1.8,0,3.4,1.1,3.4,4.3c0,3.1-1.6,4.5-3.5,4.5
			c-1.2,0-2.2-0.7-2.5-1.4l0,0v4.2h-1.4v-11.4H565.1z M568.9,598.2c1.5,0,2.2-1.2,2.2-3.4c0-1.8-0.5-3.2-2.3-3.2
			c-1.5,0-2.4,1.3-2.4,2.7v0.9C566.5,596.9,567.3,598.2,568.9,598.2z"/>
		<path class="st16" d="M575,590.7h1.4v1.6l0,0c0.4-0.9,1.4-1.7,2.7-1.7h0.1v1.5h-0.3c-1.5,0-2.5,0.9-2.5,2.5v4.6H575V590.7z"/>
		<path class="st16" d="M581.4,587.2h1.5v1.6h-1.5V587.2z M581.4,590.7h1.5v8.4h-1.5V590.7z"/>
		<path class="st16" d="M591.4,593.9c0-0.6,0-1.3-0.3-1.7s-0.8-0.6-1.3-0.6c-1.6,0-2.3,1-2.3,2.4v5.1H586v-8.4h1.4v1.4l0,0
			c0.4-0.9,1.4-1.6,2.7-1.6c1.6,0,2.7,0.8,2.7,2.8v5.9h-1.4V593.9z"/>
		<path class="st16" d="M597.7,588.2v2.4h2.1v1.1h-2.1v5c0,0.9,0.4,1.2,1.3,1.2c0.4,0,0.9-0.1,0.9-0.1v1.2c0,0-0.6,0.1-1.3,0.1
			c-1.6,0-2.3-0.8-2.3-2.2v-5.2h-1.5v-1.1h0.3c1.1,0,1.4-0.3,1.4-1.9v-0.6L597.7,588.2L597.7,588.2z"/>
		<path class="st16" d="M603,593.8c0-3.3-0.8-5.4-1.7-7.3h1.1c0.9,1.8,2.1,4.1,2.1,7.3s-1.2,5.5-2.1,7.3h-1.1
			C602.2,599.2,603,597.1,603,593.8z"/>
		<path class="st16" d="M611.1,590.7h1.5l1.8,5.4c0.2,0.7,0.4,1.3,0.4,1.3l0,0c0,0,0.2-0.6,0.4-1.3l1.9-5.4h1.4l-2.9,8.4H614
			L611.1,590.7z"/>
		<path class="st16" d="M623.5,599.3c-2.6,0-3.8-1.9-3.8-4.4s1.3-4.5,3.8-4.5s3.5,2,3.5,4.1v0.7h-5.8c0.1,1.7,0.8,2.9,2.4,2.9
			c1.4,0,1.8-0.8,1.9-1.3h1.4C626.6,598.3,625.3,599.3,623.5,599.3z M625.5,594c0-1.4-0.6-2.5-2.1-2.5c-1.3,0-2.1,1.1-2.3,2.6
			L625.5,594L625.5,594z"/>
		<path class="st16" d="M629.3,590.7h1.4v1.6l0,0c0.4-0.9,1.4-1.7,2.7-1.7h0.1v1.5h-0.3c-1.5,0-2.5,0.9-2.5,2.5v4.6h-1.4V590.7z"/>
		<path class="st16" d="M639.7,592.8c-0.1-0.8-0.7-1.2-1.7-1.2s-1.6,0.6-1.6,1.4c0,0.7,0.4,1,1.3,1.2l1.3,0.2c1.8,0.3,2.4,1,2.4,2.4
			c0,1.7-1.4,2.6-3.3,2.6c-1.7,0-3.2-0.8-3.3-2.6h1.4c0.1,0.7,0.4,1.5,1.9,1.5c1.2,0,1.9-0.5,1.9-1.4c0-0.7-0.2-1-1.3-1.2l-1.3-0.2
			c-1.5-0.2-2.3-0.9-2.3-2.3c0-1.5,1.1-2.6,3.1-2.6c1.8,0,2.9,0.8,3,2.3h-1.5V592.8z"/>
		<path class="st16" d="M643.8,587.2h1.5v1.6h-1.5V587.2z M643.9,590.7h1.5v8.4h-1.5V590.7z"/>
		<path class="st16" d="M647.7,594.9c0-2.6,1.4-4.4,3.8-4.4c2.5,0,3.8,1.8,3.8,4.4c0,2.6-1.4,4.4-3.8,4.4
			C649,599.3,647.7,597.5,647.7,594.9z M649.2,594.9c0,2.1,0.7,3.3,2.3,3.3s2.3-1.2,2.3-3.3c0-2-0.7-3.3-2.3-3.3
			C650,591.6,649.2,592.8,649.2,594.9z"/>
		<path class="st16" d="M663.1,593.9c0-0.6,0-1.3-0.3-1.7s-0.8-0.6-1.3-0.6c-1.6,0-2.3,1-2.3,2.4v5.1h-1.4v-8.4h1.4v1.4l0,0
			c0.4-0.9,1.4-1.6,2.7-1.6c1.6,0,2.7,0.8,2.7,2.8v5.9h-1.4v-5.3H663.1z"/>
		<path class="st16" d="M671.8,592.8c-0.1-0.8-0.7-1.2-1.7-1.2s-1.6,0.6-1.6,1.4c0,0.7,0.4,1,1.3,1.2l1.3,0.2c1.8,0.3,2.4,1,2.4,2.4
			c0,1.7-1.4,2.6-3.3,2.6c-1.7,0-3.2-0.8-3.3-2.6h1.4c0.1,0.7,0.4,1.5,1.9,1.5c1.2,0,1.9-0.5,1.9-1.4c0-0.7-0.2-1-1.3-1.2l-1.3-0.2
			c-1.5-0.2-2.3-0.9-2.3-2.3c0-1.5,1.1-2.6,3.1-2.6c1.8,0,2.9,0.8,3,2.3h-1.5V592.8z"/>
		<path class="st16" d="M675.3,597.1h2v2h-2V597.1z"/>
	</g>
</g>
</svg>
