<?xml version="1.0" encoding="utf-8"?>
<!-- Generator: Adobe Illustrator 24.1.0, SVG Export Plug-In . SVG Version: 6.00 Build 0)  -->
<svg version="1.1" id="Capa_1" xmlns="http://www.w3.org/2000/svg" xmlns:xlink="http://www.w3.org/1999/xlink" x="0px" y="0px"
	 viewBox="0 0 512 512" style="enable-background:new 0 0 512 512;" xml:space="preserve">
<rect x="346.1" y="84.9" width="82.9" height="82.9"/>
<rect x="98.2" y="247.2" width="76.8" height="25.2"/>
<rect x="98.2" y="191.4" width="221.9" height="32.2"/>
<rect x="98.2" y="84.9" width="221.9" height="82.9"/>
<path d="M512,15L512,15c0-8.3-6.7-15-15-15H18.7C8.4,0,0,8.4,0,18.7v379.4c0,10.3,8.4,18.7,18.7,18.7H497c8.3,0,15-6.7,15-15l0,0
	c0-8.3-6.7-15-15-15H30v-26h413c8.3,0,15-6.7,15-15l0,0c0-8.3-6.7-15-15-15H30V30h467C505.3,30,512,23.3,512,15z"/>
<path d="M296.4,485.8v-39h-80.8v39h-62.1h-43.1c-7.2,0-13.1,5.9-13.1,13.1l0,0c0,7.2,5.9,13.1,13.1,13.1h291.2
	c7.2,0,13.1-5.9,13.1-13.1l0,0c0-7.2-5.9-13.1-13.1-13.1H296.4z"/>
</svg>
