<?xml version="1.0" encoding="utf-8"?>
<!-- Generator: Adobe Illustrator 25.0.0, SVG Export Plug-In . SVG Version: 6.00 Build 0)  -->
<svg version="1.1" id="Your_design" xmlns="http://www.w3.org/2000/svg" xmlns:xlink="http://www.w3.org/1999/xlink" x="0px"
	 y="0px" viewBox="0 0 808 642.3" style="enable-background:new 0 0 808 642.3;" xml:space="preserve">
<style type="text/css">
	.st0{fill:#C59B6C;}
	.st1{fill:#333333;}
	.st2{font-family:'ArialMT';}
	.st3{font-size:20px;}
</style>
<g>
	<path class="st0" d="M268.5,148.9c-2.2,1.8-4.4,3.7-6.5,5.6c-43.2,38.9-70.4,95.3-70.4,157.9c0,6.4,0.3,12.8,0.9,19
		c1.3,14.2,3.9,28,7.9,41.2l-4.4,7c0,0.1-0.1,0.1-0.1,0.1c-0.1,0.1-0.2,0.3-0.3,0.4c-0.1,0.2-0.2,0.3-0.3,0.5
		c-0.1,0.1-0.2,0.3-0.3,0.4c-0.1,0.1-0.2,0.2-0.3,0.3c-0.7,0.1-1.4,0.2-2.1,0.3c-3.3-10-5.8-20.2-7.6-30.6
		c-2.2-12.6-3.3-25.5-3.3-38.6c0-59.4,23.1-115.3,65.2-157.3c2.3-2.3,4.5-4.4,6.9-6.6c2.2-2,4.4-4,6.7-5.9c0.1,0.1,0.2,0.2,0.3,0.3
		c0.1,0.1,0.3,0.3,0.4,0.4c0,0,0,0,0.1,0l0.1,0.1c0.1,0.1,0.2,0.2,0.4,0.3c0.3,0.3,0.6,0.6,0.9,0.9
		C264,146.2,266.1,147.6,268.5,148.9z"/>
	<path class="st0" d="M626.5,312.5c0,12.8-1.1,25.5-3.2,37.9c-1.8,10.7-4.4,21.2-7.7,31.4c-0.9-0.1-1.8-0.3-2.7-0.4l-6.4-4.5
		c4.7-14.8,7.8-30.2,9.2-46.2c0.5-6,0.8-12.1,0.8-18.2c0-53.1-19.6-101.7-51.9-139c-2.7-3.1-5.5-6.2-8.4-9.2
		c0.4-0.4,0.8-0.9,1.1-1.3s0.7-0.9,1-1.3s0.6-0.8,0.8-1.2l0.1-0.1c0.6-0.8,1.1-1.7,1.5-2.6c0,0,0-0.1,0.1-0.1
		c0.1-0.1,0.2-0.3,0.2-0.5c0.1-0.2,0.2-0.3,0.3-0.5s0.2-0.3,0.2-0.5c0.1-0.2,0.1-0.3,0.2-0.5c3.1,3.1,6.1,6.3,9,9.5
		C606.8,205.8,626.5,257.6,626.5,312.5z"/>
	<g>
		<path class="st1" d="M280.4,426.7c-1.2-0.9-3.4-1.2-6.7-0.9c-0.4,0-0.7,0.1-1.1,0.1c0.5,5.3,1,10.6,1.5,15.9
			c1.7-0.2,3.4-0.3,5.1-0.5c2.7-0.3,3.8-3,3.4-8.2C282.3,429.8,281.6,427.6,280.4,426.7z"/>
		<path class="st1" d="M172.6,187.6c-0.1-0.4-0.4-0.8-0.9-1.2c-0.5-0.4-1.3-0.9-2.5-1.5l-0.2-0.1c-1.4-0.8-2.4-1.2-3-1.1
			c-0.6,0-1.1,0.4-1.6,1.3l-0.7,1.4l7.8,4.1l0.9-1.6C172.6,188.4,172.7,188,172.6,187.6z M633.4,167.5l-0.7-1.1l-19.5,12.3l0.8,1.3
			c0.4,0.7,1,1.1,1.7,1.1s1.6-0.3,2.8-1.1l12.6-7.9c1.3-0.8,2.2-1.6,2.5-2.3C634,169,633.9,168.3,633.4,167.5z"/>
		<path class="st1" d="M708.6,398.6L708.6,398.6c-1.3-0.3-2.5-0.6-3.8-0.8c-0.1,0-0.2,0-0.2,0c-0.6-0.1-1.2-0.3-1.8-0.4
			c-1.3-0.3-2.7-0.6-4-0.8c-1.3-0.3-2.6-0.5-3.9-0.8c-1.4-0.3-2.7-0.6-4.1-0.8l0,0l0,0c-0.2,0-0.3-0.1-0.5-0.1
			c-0.5-0.1-0.9-0.2-1.4-0.3c-1.3-0.3-2.5-0.5-3.8-0.7c7.5-26.1,11.4-53.4,11.4-81.3c0-78.1-30.4-151.6-85.7-206.8S482.1,20,404,20
			s-151.6,30.4-206.8,85.7s-85.7,128.7-85.7,206.8c0,27.9,3.9,55.2,11.4,81.3c-1.3,0.2-2.5,0.5-3.8,0.7c-0.4,0.1-0.9,0.2-1.3,0.3
			l0,0c-0.1,0-0.2,0-0.4,0.1h-0.1c-1.4,0.3-2.8,0.6-4.3,0.9c-1.3,0.3-2.6,0.5-3.9,0.8c-1.3,0.3-2.6,0.5-4,0.8
			c-0.6,0.1-1.2,0.2-1.8,0.4c-0.1,0-0.2,0-0.3,0.1c-1.2,0.3-2.4,0.5-3.6,0.8l0,0c-11.2,2.4-22.3,4.9-33.4,7.6
			c12.5,52.2,25.1,104.5,37.6,156.7c30.1-7.2,60.4-13.3,90.8-18.4c4.3-0.7,8.7-1.4,13-2.1c4.3-0.7,8.7-1.3,13-1.9l0,0
			c1-0.2,2-0.3,3.1-0.4c27.9-4,55.9-7,83.9-9.1c4.7-0.4,9.4-0.7,14.1-1l0,0c9.5-0.6,18.9-1.1,28.4-1.5l0,0
			c35.9-1.5,71.8-1.5,107.6,0l0,0c9.5,0.4,18.9,0.9,28.4,1.5l0,0c4.7,0.3,9.4,0.6,14.1,1c28,2.1,56,5.1,83.9,9.1
			c1,0.2,2.1,0.3,3.1,0.4c4.4,0.6,8.7,1.3,13.1,2c4.3,0.7,8.7,1.4,13,2.1c30.4,5,60.7,11.1,90.7,18.3
			c12.5-52.2,25.1-104.5,37.6-156.7C730.7,403.5,719.7,401,708.6,398.6z M677.4,283.7l-3.9,0.5l-0.7-5.5l-8.7,1.1l0.6,5.2l-3.8,0.5
			l-0.6-5.2l-9.5,1.2l0.7,5.7l-3.9,0.5l-1.3-10.2l29.8-3.7L677.4,283.7z M672.2,252.2l-8.1,4.8l9.2,0.5l0.9,4.2l-16-1.3l-13.3,7.8
			l-0.8-3.9l8.4-4.9l-9.6-0.5l-0.9-4.3l16.8,1.2l12.7-7.4L672.2,252.2z M665.8,228.7l-21.3,6.6c-1.5,0.5-2.4,0.8-2.7,1.1
			c-0.3,0.2-0.5,0.5-0.7,0.8s-0.2,0.7,0,1.4s0.5,1,1,1.2c0.5,0.1,1,0.2,1.5,0.1s1.3-0.3,2.1-0.6l21.3-6.6l1.4,4.4l-21.4,6.7
			c-2.6,0.8-4.7,0.9-6.3,0.3s-2.7-2-3.4-4.2s-0.6-4,0.4-5.4c0.9-1.4,2.7-2.5,5.4-3.3l21.3-6.7L665.8,228.7z M658.3,208.1l-24.2,10
			l2.2,5.4l-3.6,1.5l-4-9.6l27.8-11.5L658.3,208.1z M651.2,192.2l-3.5,1.8l-2.5-4.9l-7.8,4l2.4,4.7l-3.4,1.8l-2.4-4.7l-8.5,4.4
			l2.6,5.1l-3.5,1.8l-4.7-9.2l26.8-13.7L651.2,192.2z M633.2,160.6l3.6,5.7c1.2,1.9,1.5,3.6,0.9,5.1s-1.9,3-4.1,4.3l-11.5,7.3
			c-2.6,1.6-4.7,2.4-6.4,2.3s-3.2-1.1-4.4-3.1l-3.5-5.6L633.2,160.6z M526.7,119.7c0.9-1,1.7-1.9,2.6-2.9c0.1-0.1,0.1-0.2,0.2-0.2
			c0.4-0.5,0.8-1,1.2-1.5c0.1-0.1,0.2-0.2,0.3-0.3c0.3-0.4,0.6-0.8,0.8-1.2c0.7-1,1.4-2.1,2-3.2c0.3-0.5,0.6-1.1,0.9-1.6
			c0.3-0.6,0.6-1.1,0.8-1.7c0.2-0.4,0.4-0.9,0.6-1.3c0.3-0.7,0.6-1.4,0.8-2.1c0.4-1.1,0.8-2.3,1.1-3.5c1.3,0.8,2.7,1.7,3.9,2.6
			c0.1,0,0.2,0.1,0.2,0.1l0,0c0.1,0,0.2,0.1,0.2,0.1l0,0c0.1,0,0.2,0.1,0.3,0.2c1.3,0.9,2.5,1.8,3.5,2.5c0.1,0.1,0.3,0.2,0.4,0.3
			c1.1,0.8,1.9,1.4,2.1,1.6c5.4,5.1,9.9,11.3,12.7,18.2c0.2,0.5,0.4,0.9,0.5,1.4c0.5,1.4,1,2.8,1.3,4.3c0.1,0.6,0.3,1.1,0.4,1.7
			c0.1,0.4,0.2,0.8,0.3,1.2c0.1,0.3,0.1,0.7,0.2,1c0.1,0.4,0.1,0.8,0.2,1.2c0.1,0.3,0.1,0.6,0.1,0.9s0.1,0.5,0.1,0.8
			c0.1,1.2,0.2,2.3,0.1,3.5c0,0.5,0,1.1,0,1.6c0,0.1,0,0.2,0,0.4c0,0.2,0,0.4,0,0.7c0,0.3,0,0.5-0.1,0.8v0.5l0,0v0.1l0,0l0,0l0,0
			c0,0,0,0,0,0.1c0,0.3-0.1,0.7-0.1,1c0,0,0,0.1,0,0.2c0,0.5-0.1,1-0.2,1.4l0,0c-0.1,0.5-0.2,1-0.3,1.5v0.1l0,0
			c0,0.2-0.1,0.4-0.1,0.6c-0.1,0.3-0.1,0.6-0.2,0.9c0,0.1,0,0.1,0,0.2c-0.1,0.4-0.3,0.9-0.4,1.3c0,0.1-0.1,0.2-0.1,0.3
			c0,0.1-0.1,0.2-0.1,0.3c-0.1,0.2-0.2,0.4-0.2,0.6c-0.1,0.2-0.1,0.3-0.2,0.5c-0.1,0.3-0.2,0.5-0.3,0.8c-0.1,0.2-0.1,0.3-0.2,0.5
			c-0.1,0.2-0.2,0.3-0.2,0.5c-0.1,0.2-0.2,0.4-0.3,0.5c-0.1,0.2-0.2,0.3-0.2,0.5c0,0,0,0.1-0.1,0.1c-0.5,0.9-1,1.8-1.5,2.6l-0.1,0.1
			c-0.3,0.4-0.5,0.8-0.8,1.2c-0.4,0.5-0.7,0.9-1,1.3c-0.4,0.5-0.8,0.9-1.2,1.3c-1.1,1.2-2.4,2.3-3.7,3.4c-7.2,5.6-16.4,8.3-25.5,9
			c-5.3,0.5-10.7,0.3-16-0.1c-2.4-0.2-4.8-0.4-7.3-0.6c-1.3-0.1-11.6-2-17.1-3.4l0.7-7.8l2.1-23.2c1.4-0.5,2.8-1,4.2-1.6
			c6.8-2.8,13.6-5.8,19.8-9.7c2.8-1.8,5.6-3.7,8.1-5.9c0.2-0.2,0.5-0.4,0.7-0.6c0.1-0.1,0.3-0.2,0.4-0.4c0.5-0.5,1-0.9,1.5-1.4
			c0.4-0.4,0.9-0.8,1.3-1.2c0.1-0.1,0.2-0.1,0.2-0.2c0.2-0.2,0.4-0.4,0.5-0.6C526.4,120,526.6,119.8,526.7,119.7z M249.5,91.6
			c6.9-8.6,19.2-9.4,29.4-9c13.1,0.6,26.1,2.9,39.2,2.1c12.1-0.7,22-5.2,32.4-10.5c-2.5,4.1-4.4,8.1-5.8,11.7
			c-0.3,0.7-0.5,1.3-0.6,1.9c-1.2,4.3,0.7,4.2,3.2-0.7c0,0,0-0.1,0.1-0.1c3-5.5,7.3-11.8,13.4-17.8c33.6-33.2,89.7-31.4,130.8-15.3
			c3,1.2,6.1,2.6,9.3,4.2c0.6,0.3,1.2,0.7,1.8,1c1.2,0.7,2.4,1.4,3.6,2.2c0.7,0.4,1.4,0.9,2.1,1.4c0.3,0.2,0.6,0.4,0.8,0.6
			c0.1,0.1,0.3,0.2,0.4,0.3c0.1,0.1,0.2,0.1,0.4,0.3c0.1,0.1,0.3,0.2,0.4,0.3c0.2,0.2,0.5,0.4,0.7,0.5c0.6,0.5,1.2,0.9,1.8,1.4
			c0.3,0.3,0.7,0.6,1,0.9c0.1,0.1,0.2,0.1,0.3,0.2l0.1,0.1c0.2,0.1,0.4,0.3,0.5,0.4c0.4,0.4,0.8,0.7,1.1,1.1
			c0.3,0.3,0.6,0.6,0.9,0.9c0.1,0,0.1,0.1,0.1,0.1c0.1,0.1,0.3,0.3,0.4,0.4c0.2,0.2,0.3,0.3,0.5,0.5c0.1,0.2,0.3,0.4,0.5,0.5
			c0.3,0.4,0.7,0.8,1,1.2c0,0.1,0.1,0.1,0.1,0.2l0.1,0.1c0.2,0.2,0.3,0.4,0.4,0.6c0.2,0.2,0.3,0.3,0.4,0.5c0.1,0.2,0.3,0.4,0.4,0.6
			c0.1,0.1,0.1,0.2,0.2,0.3c0.1,0.1,0.1,0.2,0.2,0.3c0.1,0.2,0.3,0.5,0.4,0.7c0.1,0.1,0.1,0.2,0.2,0.3c0,0.1,0.1,0.1,0.1,0.2
			c0.2,0.4,0.4,0.7,0.6,1.1c0.1,0.2,0.2,0.3,0.2,0.5c0.2,0.4,0.4,0.8,0.6,1.3c0.3,0.6,0.5,1.1,0.7,1.7c4.3,11.2,0.7,21-6.2,28.8
			c-2.3,2.6-4.9,4.9-7.7,7c-0.2,0.2-0.5,0.4-0.7,0.6c-2,1.5-4.1,2.8-6.2,4.1c-1,0.6-1.9,1.1-2.9,1.6c-24.6,13.6-52.3,20.7-80.4,23.3
			c-6.2,0.6-12.3,0.9-18.5,1c-13.3,0.3-26.6-0.3-39.8-1.5c-10-0.9-19.9-2.2-29.9-3.7c-3.7-0.5-7.4-1.2-11.1-1.8
			c-1.4-0.2-2.8-0.5-4.2-0.7c-2.6-0.4-5.3-0.9-7.9-1.4c-0.1,0-0.2,0-0.4-0.1c-2-0.3-3.9-0.7-5.9-1.1s-3.9-0.8-5.9-1.1
			c-0.1,0-0.2,0-0.3,0c0.1,0,0.2,0.1,0.3,0.1c2.6,1.1,5.2,2.2,7.8,3.2c0.9,0.3,1.8,0.7,2.6,1c1.8,0.7,3.7,1.4,5.5,2.1l-1.3,14.3
			l-0.2,2.5l-0.3,2.6c-2.7-0.5-5.7-1.1-8.9-1.8c-11.1-2.5-24.3-6.4-33-11.2c-2.4-1.3-4.5-2.8-6.1-4.2c-0.3-0.3-0.6-0.6-0.9-0.9
			c-0.1-0.1-0.2-0.3-0.4-0.3c0,0,0-0.1-0.1-0.1h-0.1c-0.1-0.1-0.3-0.3-0.4-0.4s-0.2-0.2-0.3-0.3l0,0c-0.4-0.4-0.8-0.8-1.1-1.2
			c-0.1-0.1-0.2-0.2-0.2-0.3l-0.2-0.3c0,0-0.1-0.1-0.2-0.2c-0.4-0.5-0.8-1-1.3-1.5l-0.3-0.4c-0.1-0.2-0.3-0.3-0.3-0.5
			c-0.1-0.1-0.2-0.2-0.3-0.3c-0.1-0.1-0.2-0.2-0.3-0.3l-0.6-0.8c-0.1-0.1-0.1-0.2-0.2-0.3c-0.1-0.2-0.2-0.3-0.3-0.5v-0.1
			c-0.2-0.2-0.3-0.4-0.4-0.5s-0.2-0.2-0.3-0.3l-0.1-0.1c0,0-0.1-0.1-0.1-0.2s-0.1-0.1-0.1-0.2c-0.3-0.5-0.6-1-0.9-1.4
			c-0.2-0.4-0.5-0.8-0.7-1.2c-0.1-0.1-0.1-0.1-0.2-0.2c0-0.1-0.1-0.2-0.2-0.2c-1-1.8-1.9-3.5-2.7-5.4c-2.4-5.5-3.9-11.3-4.4-17.2
			C244.4,102.9,245.7,96.4,249.5,91.6z M311.8,246.7l6.6-83.5l0.2-2.1l0.5-6.8l0.7-9c5.3,1.7,10.8,3.3,16.2,4.7
			c37.8,9.6,77.9,10.6,116,2.7c9.8-2,19.5-4.7,29-7.9l-1.4,16.9l-8.1,99.9C452.6,254.2,383.8,230.8,311.8,246.7z M470.8,269.9
			l-2.1,22.6c-18.9-7.4-87.7-30.7-159.7-14.9l2.1-22.5c28.2-6.6,56-6.9,80.4-4.4c0.9,0.1,1.7,0.2,2.5,0.3c1.5,0.2,3,0.4,4.5,0.5
			c1.5,0.2,2.9,0.4,4.4,0.6c0.9,0.1,1.9,0.3,2.8,0.4c0.8,0.1,1.5,0.2,2.3,0.4c0.9,0.1,1.8,0.3,2.6,0.4c1.2,0.2,2.3,0.4,3.5,0.6
			c2.3,0.4,4.5,0.8,6.7,1.3c1.4,0.3,2.8,0.6,4.1,0.9c5,1.1,9.7,2.2,14.1,3.4c0.7,0.2,1.4,0.4,2.1,0.5c4.7,1.3,9,2.6,12.8,3.8
			c1.3,0.4,2.6,0.8,3.8,1.2c1.2,0.4,2.3,0.8,3.4,1.1c0.4,0.2,0.8,0.3,1.2,0.4c0.2,0.1,0.4,0.1,0.5,0.2c0.2,0,0.3,0.1,0.5,0.2
			c0.3,0.1,0.7,0.3,1,0.4s0.5,0.2,0.7,0.3c0.2,0.1,0.4,0.1,0.5,0.2c0.8,0.3,1.5,0.6,2.2,0.8c0.1,0,0.2,0,0.3,0.1
			c0.4,0.2,0.7,0.3,1.1,0.4c0.3,0.1,0.6,0.3,1,0.4c0.2,0.1,0.4,0.2,0.6,0.3l0,0h0.1C470.7,269.8,470.8,269.8,470.8,269.9z
			 M172.6,164.2l11,3.7v-0.1l-8-8.4l2.4-3.6l12.5,13.9l10,6.6l-2.5,3.8l-10-6.6l-17.9-5.7L172.6,164.2z M162,182.1
			c0.7-1.4,1.6-2.3,2.5-2.7c0.9-0.4,1.9-0.4,3.1-0.1c1.1,0.3,2.5,0.9,4.1,1.8s2.8,1.7,3.4,2.5c0.7,0.8,0.9,1.7,0.7,2.8
			c0.7-0.8,1.6-1.1,2.9-0.9s3.6,1.2,7,3s5.3,2.8,5.6,2.8l-2.2,4c-0.3,0-3.5-1.7-9.6-4.9c-1.2-0.6-2-0.9-2.6-0.8
			c-0.5,0.1-1,0.5-1.5,1.4l-0.8,1.3l12.5,6.7l-2.2,4l-26.5-14.2L162,182.1z M149.2,209.2l20.6,8.5c1.5,0.6,2.4,0.9,2.8,0.9
			s0.7,0,1.1-0.1c0.3-0.1,0.6-0.4,0.9-1.1c0.3-0.6,0.3-1.1,0-1.5s-0.6-0.8-1.1-1c-0.5-0.3-1.2-0.6-2-0.9l-20.6-8.5l1.8-4.2l20.7,8.6
			c2.6,1.1,4.2,2.3,5,3.8s0.8,3.3-0.1,5.4s-2.1,3.5-3.8,3.9c-1.6,0.5-3.7,0.2-6.2-0.9l-20.7-8.6L149.2,209.2z M140.5,234.1l9.4-0.2
			l-7.8-4.9l1.3-4.1l13.4,8.9l15.5-0.4l-1.2,3.8l-9.7,0.2l8.1,5.1l-1.3,4.2l-14-9.2l-14.7,0.3L140.5,234.1z M134.6,257.8l21.8,4.6
			c1.5,0.3,2.5,0.4,2.9,0.4c0.4-0.1,0.7-0.2,1-0.3c0.3-0.2,0.6-0.5,0.7-1.2s0-1.2-0.3-1.5s-0.8-0.6-1.3-0.8s-1.3-0.4-2.2-0.5
			l-21.8-4.6l0.9-4.5l21.9,4.6c2.7,0.6,4.6,1.5,5.6,2.8c1.1,1.3,1.4,3.1,0.9,5.3c-0.5,2.3-1.5,3.8-3,4.5c-1.5,0.8-3.6,0.9-6.3,0.3
			l-21.9-4.6L134.6,257.8z M131.1,279.4l26,3.1l0.7-5.8l3.9,0.5l-1.2,10.3l-29.9-3.5L131.1,279.4z M186.2,507.7
			c-3.8,0.6-7.6,1.3-11.4,2c-1.2,0.2-2.5,0.4-3.7,0.6c-1.8-4-3.6-7.9-5.5-11.8c-4.2-9.1-8.5-18.1-12.8-27.1l2.5,13.1
			c1.4,7.6,2.8,15.1,4.3,22.7c0.3,1.7,0.6,3.4,1,5.1c-6.4,1.2-12.9,2.5-19.3,3.8c-3.5-17.2-7-34.4-10.5-51.6
			c-2.2-10.8-4.4-21.7-6.6-32.5c0.6-0.1,1.2-0.2,1.8-0.3c3.3-0.7,6.6-1.3,9.9-2c2.9-0.6,5.9-1.1,8.8-1.7c1.9,10.1,3.8,20.2,5.7,30.3
			c0.2,1.1,0.4,2.3,0.6,3.4c0.1-0.7,0.1-1.3,0.2-2l0,0c1-11.2,2-22.3,3.1-33.5c6.9-1.3,13.9-2.5,20.8-3.6
			c-1.7,13.6-3.4,27.1-4.9,40.7c7.2,14.5,14.2,29.1,21.1,43.7C189.6,507.2,187.9,507.5,186.2,507.7z M228.7,501.4
			c-1-4.2-2.1-8.4-3.1-12.6c-3.3,0.5-6.7,0.9-10,1.4c0.2,4.3,0.4,8.7,0.6,13c-6.3,0.9-12.6,1.8-18.9,2.8
			c-1.1-28.8-2.1-57.6-2.8-86.4c1-0.1,1.9-0.3,2.9-0.4c3.5-0.5,6.9-1,10.4-1.5c3.6-0.5,7.2-1,10.8-1.5c2.8-0.4,5.7-0.7,8.5-1.1
			c2,7.8,3.9,15.5,5.8,23.3c1.9,7.6,3.8,15.2,5.6,22.9c1.5,6.3,3.1,12.6,4.6,18.9c1.5,6.3,3,12.5,4.5,18.8
			C241.3,499.7,235,500.5,228.7,501.4z M294.1,494.3L294.1,494.3c-2.5,0.2-5.1,0.4-7.6,0.7c-0.2-1.9-0.4-3.9-0.5-5.8
			c-0.8-9.2-1.6-18.3-2.5-27.5c-0.1-1.3-0.4-2.4-0.7-3.1c-0.4-0.8-0.9-1.3-1.8-1.5c-0.8-0.3-1.6-0.4-2.3-0.4c-0.7,0-1.8,0.1-3.3,0.2
			c0.8,8.9,1.7,17.8,2.5,26.7l0,0c0.4,4,0.8,8.1,1.1,12.1c-0.5,0-0.9,0.1-1.4,0.1l0,0c-4.9,0.5-9.8,1-14.7,1.5l0,0
			c-1.2,0.1-2.5,0.3-3.7,0.4l-0.4-3.6l-1.6-14.2l-1.7-15.3l-5.7-52.2c10.7-1.2,21.3-2.2,32-3.2c3.3-0.3,6.1-0.1,8.5,0.5
			s4.3,1.5,5.8,2.7c1.4,1.2,2.6,2.9,3.5,5s1.6,4.2,2,6.4c0.4,2.1,0.7,4.8,0.9,7.8c0.1,1.6,0.2,2.9,0.2,4c0,1-0.1,2.3-0.4,3.9
			c-0.3,1.6-0.7,2.9-1.2,4c-0.6,1.1-1.5,2.2-2.8,3.3s-2.8,2-4.6,2.7c1.9,0.2,3.5,0.7,4.8,1.4c1.3,0.8,2.3,1.8,2.9,3s1.1,2.4,1.4,3.5
			s0.5,2.3,0.6,3.6c1,14.2,1.8,24.9,2.2,32.3C301.8,493.7,298,494,294.1,494.3z M348.4,490.9c-0.6-4.3-1.3-8.6-2-12.9
			c-3.3,0.1-6.7,0.3-10,0.5c-0.2,4.3-0.4,8.7-0.6,13c-6.4,0.3-12.7,0.7-19.1,1.1c1.5-28.8,3.1-57.5,5-86.3
			c10.9-0.6,21.8-1.2,32.7-1.5c4.5,28.5,8.8,57,12.8,85.5C361,490.4,354.7,490.6,348.4,490.9z M428,464.4c-0.2,8.6-2,15-5.6,19.1
			c-3.6,4.2-9.2,6.2-16.9,6.2c-8.8,0-17.6,0.1-26.4,0.2c-0.2-12.8-0.5-25.6-0.7-38.5c-1.7,0-3.3,0.1-5,0.1
			c-0.1-4.5-0.2-8.9-0.3-13.4c1.7,0,3.4-0.1,5-0.1c-0.2-11.3-0.4-22.7-0.6-34c9.6-0.2,19.2-0.3,28.8-0.3c7.8,0,13.5,1.9,17,5.5
			c3.5,3.7,5.2,8.6,5.2,14.9C428.3,437.7,428.2,451.1,428,464.4z M493.2,428.5c-0.9,13.6-1.8,27.2-2.6,40.8c-0.2,3.5-0.9,6.6-2,9.4
			c-1.1,2.8-2.7,5.3-4.7,7.4c-2,2.1-4.6,3.7-7.9,4.7c-3.3,1-6.9,1.4-11,1.1c-4.4-0.1-8.1-0.8-11.2-2.1c-3.1-1.3-5.6-3.1-7.4-5.4
			c-1.8-2.3-3.1-4.9-4-7.8c-0.8-2.9-1.2-6.1-1.1-9.5c0.4-13.6,0.8-27.3,1.1-40.9c0.2-7.1,2.5-12.6,6.8-16.4
			c4.4-3.8,10.9-5.6,19.4-5.3c8.8,0.5,15.2,2.9,19.2,7.1C491.9,415.7,493.6,421.4,493.2,428.5z M558,436.5c-0.2,1.6-0.4,2.9-0.5,3.9
			c-0.2,1-0.5,2.3-1.1,3.8c-0.5,1.5-1.2,2.8-2,3.7c-0.8,1-1.9,1.9-3.3,2.7c-1.4,0.9-3.1,1.4-5.1,1.8c1.9,0.5,3.3,1.3,4.5,2.3
			c1.1,1,1.9,2.2,2.3,3.5c0.4,1.3,0.6,2.6,0.7,3.7c0,0.4,0,0.9,0,1.3l0,0c0,0.7-0.1,1.5-0.2,2.4c-0.5,4.7-1,9.1-1.5,13
			c-0.6,5.6-1.2,10.4-1.7,14.4l0,0c-0.2,1.7-0.4,3.2-0.6,4.6c-1.5-0.2-3.1-0.3-4.7-0.5l0,0c-4.8-0.5-9.6-1-14.5-1.5
			c0-0.1,0-0.1,0-0.2c0.4-4.5,0.9-9,1.3-13.4l1.9-19.7c0.1-1.3,0.1-2.4-0.1-3.2c-0.2-0.8-0.7-1.4-1.4-1.9c-0.8-0.4-1.5-0.7-2.2-0.8
			s-1.8-0.3-3.3-0.4c-1,10.6-1.9,21.2-2.9,31.8l0,0c-0.2,2.4-0.4,4.8-0.6,7.1c-3.1-0.3-6.1-0.6-9.2-0.8l0,0
			c-3.5-0.3-7.1-0.6-10.6-0.8c2.1-28.5,4.3-57.1,6.4-85.6c10.7,0.8,21.3,1.7,32,2.8c3.3,0.3,6,1,8.3,2.1c2.2,1,4,2.3,5.2,3.7
			c1.2,1.5,2,3.3,2.6,5.5c0.5,2.2,0.8,4.5,0.8,6.6C558.5,430.8,558.3,433.4,558,436.5z M622.7,441.5c-2,13.2-4.1,26.4-6.1,39.6
			c-1.4,8.5-4.1,14.5-8.2,18.1c-4.1,3.6-10,4.8-17.7,3.8c-8.7-1.3-17.5-2.4-26.2-3.5l2.6-21.4c0.7-5.5,1.3-10.9,2-16.3
			c0-0.1,0-0.3,0-0.4c-1.6-0.2-3.3-0.4-5-0.6c0.4-3.3,0.8-6.7,1.2-10l0,0c0.1-1.1,0.3-2.2,0.4-3.2c0.7,0.1,1.4,0.2,2.1,0.3l0,0
			c1,0.1,1.9,0.2,2.9,0.4l0.6-4.7c1.2-9.7,2.4-19.4,3.6-29.1c4.9,0.6,9.7,1.2,14.6,1.9c3.6,0.5,7.2,1,10.8,1.5l0,0
			c1.1,0.2,2.2,0.3,3.3,0.5c2.5,0.4,4.8,0.9,6.8,1.6c4.2,1.4,7.3,3.5,9.3,6.3C622.6,430.1,623.6,435.2,622.7,441.5z M615.7,330.7
			l-13.2-34.3c-1.7-4.5-0.5-9.6,3-12.9c4.4-4,6.3-10.6,3.5-20.8c-4.3-15.6-20-33.2-27.6-31.1c-8,2.2-12,25.3-7.7,40.9
			c2.8,10.3,7.8,14.9,13.7,16.1c4.7,1,8.4,4.7,9.2,9.5l7.4,42.3l-29.5-31.2c-3.3-3.5-4.2-8.7-2.1-13c2.5-5.4,1.8-12.2-4.7-20.6
			c-0.7-0.9-16.3-21.1-21.4-27.5c-0.8-1.1-2.4-1.3-3.5-0.4s-1.3,2.5-0.5,3.7l19.8,25.5c0.9,1.2,0.7,2.8-0.5,3.7s-2.8,0.7-3.7-0.5
			l-19.8-25.5c-0.9-1.1-2.5-1.4-3.7-0.5l0,0c-1.1,0.9-1.3,2.5-0.5,3.7l19.8,25.5c0.9,1.1,0.7,2.8-0.5,3.7c-1.1,0.9-2.8,0.7-3.7-0.5
			L529.7,261c-0.9-1.1-2.5-1.4-3.7-0.5l0,0c-1.1,0.9-1.4,2.5-0.5,3.7l19.8,25.5c0.9,1.2,0.7,2.8-0.5,3.7c-1.2,0.9-2.8,0.7-3.7-0.5
			l-19.8-25.5c-0.9-1.1-2.5-1.4-3.7-0.5c-1.1,0.8-1.3,2.4-0.4,3.5c5,6.5,20.7,26.7,21.4,27.5c6.5,8.4,12.9,10.8,18.8,9.7
			c4.7-0.9,9.5,1.2,12.1,5.3l23.6,37.5l-34.3-15.6c0.5-0.8,0.2-1.9-0.7-2.4l-60.5-34.7c-1.5-0.9-3.4-0.4-4.2,1.1
			c-0.7,1.3-0.5,2.8,0.6,3.9l27.8,28c8.1,8.2,19.5,12.5,30.9,11.8c1.1-0.1,2.1-0.7,2.6-1.6l51,35.9l6.4,4.5c-0.1,0-0.3,0-0.4-0.1
			c-2.4-0.4-4.7-0.7-7.1-1c-11.6-1.6-23.3-3.1-35-4.5c-1.3-0.2-2.5-0.3-3.8-0.4c-2.3-0.3-4.6-0.5-6.9-0.8c-1.7-0.2-3.4-0.4-5.2-0.5
			c-6.8-0.7-13.7-1.4-20.5-2c-1.8,6.2-5.4,12.2-11,16.8c-1.7,1.4-3.5,2.6-5.6,3.6c-0.1,0.1-0.3,0.1-0.4,0.2
			c-9.1,4.5-19.7,6.8-31.5,6.8c-8.5,0-17.7-1.2-27-3.5c-7.3-1.8-14.7-4.3-22-7.4c-2-0.9-4.1-1.8-6.1-2.7c-1.2-0.6-2.4-1.1-3.5-1.7
			c-12.9-6.4-22.5-12.3-30.4-17.2c-0.3-0.2-0.6-0.4-1-0.6c-9.9,0.1-19.8,0.2-29.7,0.5c-8.4,3.2-18.5,6.9-31.2,10.4
			c-12.5,3.4-25.5,5.2-37.5,5.2c-15.4,0-29.1-3-40.2-8.6c-18.2,1.9-36.4,4.1-54.5,6.6c-1.9,0.3-3.8,0.5-5.7,0.8
			c-0.8,0.1-1.6,0.2-2.4,0.3c0.1-0.1,0.2-0.2,0.3-0.3c0.1-0.1,0.2-0.3,0.3-0.4c0.1-0.1,0.2-0.3,0.3-0.5c0.1-0.1,0.2-0.3,0.3-0.4
			l0.1-0.1l4.4-7l36-57.2c2.5-3.9,7.1-5.9,11.7-5.1c5.7,1.1,11.8-1.2,18.1-9.3c0.6-0.8,15.8-20.3,20.6-26.5c0.8-1,0.6-2.5-0.4-3.4
			c-1.1-0.9-2.7-0.7-3.5,0.5l-19.1,24.6c-0.9,1.1-2.5,1.3-3.6,0.5c-1.1-0.9-1.3-2.5-0.4-3.6l19.1-24.6c0.9-1.1,0.7-2.7-0.5-3.6l0,0
			c-1.1-0.9-2.7-0.7-3.5,0.4l-19.1,24.6c-0.9,1.1-2.5,1.3-3.6,0.4s-1.3-2.5-0.4-3.6l19.1-24.6c0.9-1.1,0.7-2.7-0.4-3.5l0,0
			c-1.1-0.8-2.7-0.6-3.5,0.5l-19.1,24.6c-0.9,1.1-2.5,1.3-3.6,0.4s-1.3-2.4-0.5-3.6l19.1-24.6c0.9-1.1,0.7-2.7-0.4-3.5
			c-1-0.8-2.6-0.6-3.4,0.4c-4.8,6.2-20,25.7-20.6,26.5c-6.3,8.1-7,14.6-4.5,19.8c2,4.2,1.2,9.2-2,12.6L202.9,342l7.1-40.8
			c0.8-4.6,4.3-8.2,8.9-9.1c5.6-1.1,10.4-5.6,13.2-15.5c4.2-15,0.3-37.3-7.4-39.4c-7.3-2-22.4,15-26.6,30
			c-2.7,9.9-0.9,16.2,3.3,20.1c3.4,3.1,4.6,8.1,2.9,12.4L192,331.5l-7.5,19.5l-6.6,17.1c-4.4-17.8-6.8-36.5-6.8-55.7
			c0-67.5,28.9-128.3,74.9-170.8c2.2,2.5,4.6,4.8,7.1,6.9c2.7,2.2,5.5,4.2,8.4,6c8.3,5.1,17.6,8.5,27.3,10.5l0,0
			c4.8,1,9.6,1.7,14.4,2c0.5,0,2.5,0.3,4.7,0.5c0.5,0.1,1,0.1,1.5,0.2l-9.3,114.6c-0.2,2.2,1.8,3.6,3.4,4.3
			c0,0,51.2,23.8,168.4,15.5c2,0,3.8-1.5,3.9-3.6l9.7-118c8.1,2.3,22.5,5.7,24.1,6c2.2,0.3,4.3,0.6,6.5,0.8c4,0.4,8,0.5,12,0.3
			c4.1-0.2,8.3-0.7,12.3-1.5c8.9-2,17.5-6.1,23.8-12.6c0.1-0.1,0.2-0.2,0.3-0.3c2.3-2.4,4.2-5.1,5.8-8c1.6-2.8,2.8-5.7,3.7-8.8
			c0.1-0.5,0.3-0.9,0.4-1.4c38.3,41.4,61.7,96.8,61.7,157.5c0,19-2.3,37.4-6.6,55l-6.6-17.1L615.7,330.7z M600.6,256.2
			c-7.4-15-17.5-21.3-17.5-21.3s14.5,4.3,21.6,24.6c7.2,20.3-3.1,21.9-3.1,21.9S609.1,273.5,600.6,256.2z M565.9,282.2
			c7,4.3,2.6,13.6,2.6,13.6C569.7,289.2,565.9,282.2,565.9,282.2z M562.8,303c0,0-12.8,4.2-17.3-5.6
			C545.5,297.4,554.1,303.4,562.8,303z M237.4,299.3c0,0-4.4-9.3,2.6-13.6C240,285.6,236.3,292.7,237.4,299.3z M243.2,306.4
			c8.7,0.4,17.3-5.6,17.3-5.6C256,310.6,243.2,306.4,243.2,306.4z M224,240.1c0.3,0.3,10.2,11.3,6,32.1
			c-4.2,21.1-13.9,17.2-13.9,17.2s10.4-3,12-22.1C229.3,251.1,224.3,240.7,224,240.1z M679.1,448c-1.4-0.3-2.8-0.6-4.3-0.8
			c-3.3-0.7-6.7-1.3-10-2c-1.9-0.4-3.9-0.7-5.8-1.1c-1,5.5-2,11-3.1,16.5c0.1,0,0.2,0,0.4,0.1c3.4,0.6,6.8,1.3,10.2,2
			c2.8,0.5,5.6,1.1,8.4,1.7c-0.4,2.1-0.8,4.2-1.3,6.3c-0.6,3.2-1.3,6.3-1.9,9.5c-1.2-0.2-2.3-0.5-3.5-0.7c-3.6-0.7-7.2-1.4-10.8-2.1
			c-1.5-0.3-3-0.6-4.5-0.9c-0.7,3.5-1.3,6.9-1.9,10.4c-0.6,2.9-1.1,5.9-1.6,8.8c2.3,0.4,4.6,0.9,6.9,1.3c4.6,0.9,9.1,1.8,13.7,2.7
			c-1.1,5.5-2.2,11-3.3,16.4c-7.3-1.5-14.7-2.9-22-4.3c-3.8-0.7-7.7-1.4-11.5-2.1c-2.2-0.4-4.4-0.8-6.5-1.1c0.5-2.6,0.9-5.3,1.3-7.9
			l0,0c4.4-25.6,8.7-51.1,13.1-76.7c10.4,1.8,20.8,3.7,31.1,5.7c3.3,0.6,6.6,1.3,9.9,2c0.1,0,0.2,0,0.3,0.1
			C681.3,437.1,680.2,442.5,679.1,448z"/>
		<path class="st1" d="M211.8,433.3c1,13.7,2,27.4,3,41.1c2.4-0.3,4.8-0.7,7.1-1c-2.7-13.5-5.5-26.9-8.3-40.4
			C213.1,433.1,212.5,433.2,211.8,433.3z"/>
		<path class="st1" d="M337.7,421.6c-0.3,13.8-0.5,27.5-0.7,41.3c2.4-0.1,4.8-0.2,7.2-0.3c-1.5-13.7-3-27.3-4.6-41
			C339,421.5,338.4,421.5,337.7,421.6z"/>
		<path class="st1" d="M530.6,425.5c-0.4,0-0.7-0.1-1.1-0.1c-0.5,5.3-1,10.6-1.4,15.9c1.7,0.2,3.4,0.3,5.1,0.5
			c2.7,0.3,4.3-2.2,4.8-7.4c0.3-3.5,0-5.7-1-6.8C536,426.5,533.9,425.8,530.6,425.5z"/>
		<path class="st1" d="M400.9,419c-0.4,0-1.2,0-2.3,0.1c0,6.3,0,12.5,0.1,18.8c1.6,0,3.2,0,4.7,0v13.3c-1.6,0-3.1,0-4.7,0
			c0,7.6,0.1,15.2,0.1,22.8c0.1,0,0.3-0.1,0.7-0.1c0.2,0,0.7,0,1.3,0.1c0.6,0,1.1,0,1.5,0c3.8,0,5.7-1.5,5.7-4.6
			c0.1-14.1,0.1-28.2,0.1-42.4c0-3.1-0.5-5.3-1.6-6.4C405.4,419.5,403.5,419,400.9,419z"/>
		<path class="st1" d="M472.3,425.8c-0.1-0.4-0.2-0.8-0.3-1.3s-0.3-0.9-0.5-1.2s-0.5-0.6-0.8-0.9c-0.3-0.3-0.7-0.6-1.2-0.7
			c-0.5-0.1-1-0.2-1.6-0.3c-0.8,0-1.6,0.1-2.2,0.3c-0.6,0.2-1.1,0.6-1.5,1.1s-0.7,1-0.9,1.5s-0.4,1.1-0.5,2s-0.2,1.5-0.2,1.9
			s0,1-0.1,1.9c0,0.1,0,0.3,0,0.4c0,0.1,0,0.2,0,0.3c-0.5,11.5-1,23-1.5,34.4c0,0.8,0,1.4,0,1.9s0,1.2,0,2.1c0,0.9,0.2,1.6,0.3,2.2
			c0.2,0.6,0.4,1.2,0.8,1.8c0.3,0.6,0.8,1.1,1.3,1.4c0.6,0.3,1.3,0.5,2,0.5s1.4-0.1,1.9-0.3c0.6-0.3,1-0.6,1.4-1.2
			c0.3-0.5,0.6-1.1,0.8-1.6s0.4-1.2,0.5-2s0.2-1.5,0.2-1.9s0.1-1.1,0.1-1.9c0-0.2,0-0.3,0-0.4c0.6-11.5,1.1-23,1.7-34.4
			c0-0.2,0-0.6,0.1-1.3c0-0.6,0.1-1.1,0.1-1.5c0-0.3,0-0.8,0-1.4S472.4,426.1,472.3,425.8z"/>
		<path class="st1" d="M596,432.2c-0.4-0.1-1.2-0.1-2.3-0.2c-0.8,6.2-1.7,12.4-2.6,18.6c1.6,0.2,3.1,0.4,4.7,0.7
			c-0.6,4.4-1.2,8.8-1.9,13.2c-1.6-0.2-3.1-0.4-4.7-0.7c-1,7.5-2.1,15.1-3.1,22.6c0.1,0,0.3,0,0.7,0c0.2,0,0.6,0.1,1.3,0.2
			c0.6,0.1,1.1,0.2,1.5,0.3c3.8,0.5,5.9-0.7,6.3-3.7c2-14,4-27.9,6.1-41.9c0.4-3.1,0.2-5.3-0.7-6.6
			C600.4,433.5,598.6,432.6,596,432.2z"/>
	</g>
	<path class="st0" d="M436.6,388.4c-108-2.5-216.2,7.3-322.5,29.4c-1.3,0.3-2.5-0.4-2.8-1.6c0-0.1,0-0.3,0-0.4c0-1,0.8-1.9,1.9-2.2
		C216.7,392.2,321.9,382.3,427,384c1.1,0.6,2.3,1.1,3.5,1.7C432.5,386.7,434.6,387.6,436.6,388.4z"/>
	<path class="st0" d="M696.6,416.3c-0.2,1-1.1,1.6-2.2,1.6c-0.2,0-0.4,0-0.5-0.1c-58.4-12.1-117.5-20.6-176.7-25.3
		c0.1-0.1,0.3-0.1,0.4-0.2c2-1,3.9-2.2,5.6-3.6c57.5,4.8,114.8,13.1,171.6,24.9C696,414,696.8,415.1,696.6,416.3z"/>
	<path class="st0" d="M669.1,536.9c-174.9-36.3-355.3-36.3-530.2,0c-1.2,0.2-2.3-0.5-2.6-1.6l0,0c-0.2-1.1,0.5-2.3,1.7-2.5
		c175.4-36.4,356.5-36.4,531.9,0c1.2,0.2,1.9,1.4,1.7,2.5l0,0C671.4,536.4,670.2,537.1,669.1,536.9z"/>
	<path class="st0" d="M0,466.3c18.7-13.4,37.6-25.6,56.9-36.8l28.5,118.2c-27.2,14.4-58.9,30.9-84.9,49.6
		c14.3-29.7,28.7-65.6,43.3-94C29,492.6,14.4,475.7,0,466.3z"/>
	<path class="st0" d="M808,466.3c-18.7-13.4-37.6-25.6-56.9-36.8l-28.5,118.2c27.2,14.4,58.9,30.9,84.9,49.6
		c-14.3-29.7-28.7-65.6-43.3-94C779,492.6,793.6,475.7,808,466.3z"/>
	<g>
		<g>
			<path class="st0" d="M421.7,639.4c0.5,0.5,0.7,1.7,0,2.4s-1.9,0.5-2.4,0c-4.6-4.9-9.2-9.8-13.7-14.8l-0.5-0.6
				c-4.8,5.1-9.6,10.3-14.4,15.4c-0.5,0.5-1.7,0.7-2.4,0c-0.7-0.7-0.5-1.9,0-2.4c5.2-4.8,10.3-9.6,15.5-14.4c0,0-2.5-2.7-3.6-3.9
				c-2.5,1.8-6.3,1.1-8.5-1.7c-2.4-2.9-4.5-8.2-2.5-10.3c2.1-2,7.4,0.1,10.3,2.5c2.8,2.2,3.5,6,1.7,8.5c1.3,1.2,2.6,2.4,3.9,3.6l0,0
				c0,0,0.1,0.1,0,0c1.2-1.1,2.4-2.3,3.6-3.4c-1-1.8-0.3-4.2,1.3-5.6c1.9-1.6,9-7.7,9.2-7.5c0.2,0.2-4.8,4.9-8.1,8.2l0.6,0.6
				c3.5-3.1,8.5-7.8,8.7-7.6s-4.6,5-7.8,8.5l0.5,0.5c3.4-3.2,8.3-8,8.5-7.8s-4.5,5.2-7.6,8.7l0.5,0.5c3.3-3.3,8-8.3,8.2-8.1
				c0.2,0.2-7.5,9.2-7.5,9.2s1.6-1.9,0,0c-1.6,1.8-3.9,2.4-5.6,1.3c-1.1,1.2-2.2,2.4-3.4,3.6C406.3,625,416.6,634.7,421.7,639.4z"/>
		</g>
		<text transform="matrix(1 0 0 1 332.5714 632.878)" class="st0 st2 st3">ESTD.</text>
		<text transform="matrix(1 0 0 1 432.8265 632.8785)" class="st0 st2 st3">2017.</text>
	</g>
	<path class="st1" d="M513,383.5c-22.6,11.4-54.1,4.7-78.2-6.8c-25.5-12.2-38.9-23.4-49.2-27.5c-10.9,2.2-26.1,10.8-53.4,18.2
		c-25.7,7-57.9,7.9-78.1-7.3c-13.3-10-11.3-33,3-33.1c-6.4,6.8-5.1,17.3,6.1,20.6c29.2,8.5,60.1-25.3,89-28.5
		c19.7-2.2,29.6,7.9,34.6,16.8c6.5-7.9,18.1-16,37-10.3c27.9,8.3,52.2,47.1,82.5,44c11.6-1.2,14.8-11.4,9.7-19.2
		C530,353,527.8,376,513,383.5z"/>
	<g>
		<g>
			<g>
				<path class="st1" d="M213.5,585.7c-0.3-2.3-0.5-3.4-0.8-5.7c-2.7,0.4-4,0.6-6.7,1c0.3,2.3,0.5,3.4,0.8,5.7
					c0.2,1-0.1,1.9-0.7,2.7s-1.4,1.3-2.5,1.4c-1,0.2-1.9,0-2.8-0.6s-1.3-1.4-1.5-2.4c-1.4-9-2.1-13.5-3.4-22.5
					c-0.2-1,0.1-1.9,0.7-2.7s1.4-1.3,2.5-1.4c1-0.2,2,0.1,2.8,0.6c0.8,0.6,1.3,1.4,1.5,2.4c0.3,1.9,0.4,2.9,0.7,4.8
					c2.7-0.4,4.1-0.6,6.8-1c-0.3-1.9-0.4-2.8-0.7-4.7c-0.4-2.7-1.7-4.9-4-6.5s-4.9-2.2-7.8-1.8s-5.2,1.8-6.9,4
					c-1.7,2.2-2.4,4.7-1.9,7.4c1.4,9,2.1,13.4,3.5,22.4c0.4,2.7,1.8,4.9,4.1,6.4c2.3,1.6,4.8,2.2,7.6,1.8c2.8-0.4,5-1.7,6.7-3.9
					C213.2,590.8,213.9,588.4,213.5,585.7z"/>
				<path class="st1" d="M229.2,551.1c-3.6,0.5-5.4,0.7-9.1,1.2c-0.6,14-1.2,28.1-1.7,42.1c2.7-0.4,4-0.6,6.7-0.9
					c0.1-3.9,0.2-5.8,0.3-9.7c2.7-0.3,4-0.5,6.7-0.9c1.1,3.7,1.6,5.6,2.7,9.3c2.7-0.3,4-0.5,6.7-0.8
					C237.5,577.9,233.4,564.5,229.2,551.1z M225.6,577.7c0.1-6.6,0.2-9.9,0.3-16.6c1.8,6.4,2.7,9.6,4.5,15.9
					C228.5,577.3,227.5,577.4,225.6,577.7z"/>
				<path class="st1" d="M259.5,565.3c-3.5,0.4-5.3,0.6-8.8,1c-0.5-4.5-0.8-6.8-1.3-11.3c4.8-0.6,7.3-0.8,12.1-1.3
					c-0.3-2.5-0.4-3.8-0.6-6.3c-7.5,0.8-11.3,1.2-18.8,2.1c1.6,13.8,3.3,27.5,4.9,41.3c2.6-0.3,3.8-0.5,6.4-0.7
					c-0.8-7-1.2-10.5-2-17.5c3.5-0.4,5.3-0.6,8.8-1C259.9,569,259.7,567.8,259.5,565.3z"/>
				<path class="st1" d="M282.5,563c-3.5,0.3-5.3,0.5-8.8,0.8c-0.4-4.5-0.7-6.8-1.1-11.3c4.9-0.5,7.3-0.7,12.1-1.1
					c-0.2-2.5-0.3-3.8-0.5-6.3c-7.5,0.7-11.3,1-18.8,1.8c1.4,13.8,2.8,27.6,4.2,41.3c2.6-0.3,3.8-0.4,6.4-0.6
					c-0.7-7-1-10.5-1.7-17.6c3.5-0.3,5.3-0.5,8.8-0.8C282.9,566.8,282.7,565.5,282.5,563z"/>
				<path class="st1" d="M310.1,578.5c-4.8,0.3-7.1,0.5-11.9,0.9c-0.4-4.5-0.5-6.8-0.9-11.3c3.5-0.3,5.3-0.4,8.8-0.7
					c-0.2-2.5-0.3-3.8-0.5-6.3c-3.5,0.3-5.3,0.4-8.8,0.7c-0.3-4.5-0.5-6.8-0.9-11.3c4.9-0.4,7.3-0.6,12.2-0.9
					c-0.2-2.5-0.3-3.8-0.4-6.3c-7.5,0.5-11.3,0.8-18.8,1.5c1.2,13.8,2.3,27.6,3.5,41.4c7.3-0.6,11-0.9,18.3-1.4
					C310.4,582.3,310.3,581,310.1,578.5z"/>
				<path class="st0" d="M348.8,576.5c-1.2,0.1-2.7-0.6-4.4-2c1.6-3.1,2.9-6.9,3.7-11.4c-2.4-0.4-3.6-0.6-6-1
					c-0.4,2.7-1.2,5.3-2.1,7.7c-1.9-2.4-3.7-5.1-5.3-7.9c1-1.5,2.1-3,3.3-4.7c0.5-0.7,0.8-1.1,1.3-1.8c1.7-2.3,2.5-4.8,2.4-7.3
					c-0.1-1.4-0.4-2.7-1.1-3.9c-0.9-1.5-2.1-2.6-3.6-3.4c-1.5-0.8-3.2-1.1-5-1c-1.6,0.1-3.1,0.5-4.4,1.3c-1.6,0.9-2.9,2.2-3.6,3.9
					c-0.8,1.6-1.1,3.3-1,5.2c0.1,0.9,0.2,1.9,0.5,2.9c0.2,0.9,0.6,1.9,1.1,3c0.3,0.6,0.8,1.5,1.5,2.8c0.6,1.2,0.9,1.7,1.5,2.9
					c-0.5,0.9-1.1,1.7-1.6,2.6c-0.9,1.7-1.5,2.8-1.6,3.2c-0.9,2.4-1.4,4.6-1.2,6.8c0.1,2.2,0.8,4.1,2,5.7c1.9,2.6,4.6,3.8,7.9,3.6
					c2.9-0.1,5.6-1.6,8-4.3c2.8,2.1,5.4,3.1,7.9,3C348.9,580,348.9,578.8,348.8,576.5z M329.7,546.5c0.6-1.2,1.5-1.8,2.6-1.9
					c1.3-0.1,2.3,0.6,3,1.9c0.3,0.4,0.4,1,0.4,1.9c0,1.1-0.4,2.3-1.4,3.7c-0.5,0.7-0.8,1.1-1.3,1.8c-0.3,0.5-0.5,0.7-0.8,1.1
					c-0.3,0.3-0.5,0.7-0.8,1c-1.5-3-2.3-5.1-2.4-6.3C329,548.6,329.2,547.5,329.7,546.5z M332.9,577.9c-1.1,0.1-2-0.3-2.7-1.1
					c-0.6-0.7-0.9-1.6-0.9-2.8c-0.1-1.3,0.2-2.7,0.8-4.3c0.4-0.7,0.8-1.4,1.1-2.1c2,3.1,3.9,5.6,5.7,7.7
					C335.5,577,334.2,577.8,332.9,577.9z"/>
				<path class="st1" d="M378.8,563.6c2.3-2.1,3.4-4.6,3.4-7.5c0-2.4-0.1-3.6-0.1-6c-0.1-3-0.8-5.3-2.4-7c-1.8-1.9-4.5-2.8-8.2-2.7
					c-4.2,0.1-6.3,0.2-10.4,0.3c0.4,13.8,0.9,27.7,1.3,41.5c2.6-0.1,3.9-0.1,6.4-0.2c-0.2-6.3-0.3-9.4-0.4-15.6
					c1.5,0,2.3-0.1,3.8-0.1c0.2,0,0.4,0,0.6,0c1.7,6.2,2.6,9.3,4.3,15.6c2.8-0.1,4.2-0.1,7-0.1C381.9,574.4,380.8,570.8,378.8,563.6
					z M374.7,558.9c-0.7,0.7-1.6,1.1-2.6,1.1c-1.6,0-2.4,0.1-3.9,0.1c-0.1-5.3-0.2-8-0.4-13.3c1.6,0,2.4-0.1,4-0.1
					c2.5-0.1,3.8,1.1,3.9,3.5s0.1,3.6,0.1,6.1C375.8,557.3,375.4,558.2,374.7,558.9z"/>
				<path class="st1" d="M407.8,546.3c0-2.5,0-3.8,0-6.3c-7.6,0-11.3,0-18.9,0.1c0.1,13.8,0.3,27.7,0.4,41.5
					c7.3-0.1,11-0.1,18.3-0.1c0-2.5,0-3.8,0-6.3c-4.8,0-7.2,0-11.9,0c0-4.5,0-6.8-0.1-11.3c3.5,0,5.3,0,8.8,0v-6.3
					c-3.5,0-5.3,0-8.8,0c0-4.5,0-6.8-0.1-11.3C400.5,546.2,402.9,546.2,407.8,546.3z"/>
				<path class="st1" d="M431.8,565.5c-0.8-1.5-2.1-3.1-3.6-4.7c-0.5-0.5-1.5-1.4-3-2.6c-1.3-1-2.2-1.9-2.9-2.7
					c-1.7-2-2.5-3.9-2.5-5.8c0-1.2,0.3-2.2,0.8-3c0.6-1,1.6-1.5,2.8-1.5c1.1,0,2,0.4,2.6,1.1c0.8,1,1.3,2.3,1.5,4
					c2.5-0.4,3.8-0.6,6.3-1c-0.1-1.8-0.6-3.4-1.3-4.8c-0.8-1.4-1.8-2.5-3.1-3.3c-1.7-1-3.7-1.6-6-1.6c-2.5,0-4.5,0.5-6.2,1.7
					c-2.7,1.9-4.1,4.8-4.1,8.6c0,2.1,0.4,4.1,1.4,5.9c0.9,1.6,2.4,3.4,4.5,5.4c2.5,2.4,4.5,4.2,5.7,5.4c1.6,1.6,2.4,3.5,2.4,5.2
					c0,1.2-0.3,2.1-0.7,2.7c-0.9,1.3-2,1.9-3.4,2c-1,0-1.9-0.4-2.7-1.2c-1-1.1-1.7-2.9-1.9-5.3c-2.5,0.2-3.7,0.2-6.2,0.4
					c0.1,2.2,0.6,4.2,1.4,5.9s1.9,3.1,3.3,4.1c1.6,1.2,3.7,1.9,6.2,1.9c1.4,0,2.6-0.1,3.6-0.4c1.9-0.5,3.4-1.5,4.5-2.9
					c1.6-2,2.5-4.5,2.5-7.4c0-1.2-0.3-2.5-0.9-4C432.5,566.9,432.2,566.2,431.8,565.5z"/>
				<path class="st1" d="M438.9,540.4c-0.1,2.5-0.1,3.8-0.2,6.3c2.8,0.1,4.2,0.1,7,0.2c-0.3,11.7-0.7,23.5-1.1,35.2
					c2.6,0.1,3.9,0.1,6.4,0.2c0.4-11.7,0.8-23.5,1.2-35.2c2.8,0.1,4.2,0.2,7,0.3c0.1-2.5,0.2-3.8,0.3-6.3
					C451.3,540.8,447.2,540.6,438.9,540.4z"/>
				<path class="st1" d="M475.5,541.8c-3.6-0.2-5.5-0.3-9.1-0.4c-3.1,13.7-6.1,27.4-9.1,41.2c2.7,0.1,4,0.2,6.7,0.3
					c0.8-3.8,1.2-5.7,2-9.5c2.7,0.1,4.1,0.2,6.8,0.3c0.4,3.8,0.6,5.8,1,9.6c2.7,0.1,4.1,0.2,6.8,0.4
					C478.9,569.7,477.2,555.8,475.5,541.8z M467.2,567.3c1.3-6.5,1.9-9.7,3.2-16.2c0.6,6.6,1,9.9,1.6,16.5
					C470.1,567.5,469.2,567.4,467.2,567.3z"/>
				<path class="st1" d="M501.5,543.4c-0.8,10.7-1.5,21.3-2.3,32c-0.1,1-0.5,1.8-1.3,2.4c-0.8,0.6-1.7,0.9-2.7,0.9
					c-1-0.1-1.9-0.5-2.6-1.2c-0.7-0.7-1-1.6-0.9-2.6c0.7-10.7,1.4-21.3,2.1-32c-2.6-0.2-3.9-0.3-6.5-0.4
					c-0.6,10.7-1.3,21.4-1.9,32.1c-0.2,2.7,0.7,5.1,2.5,7.2c1.9,2,4.2,3.2,7,3.4s5.3-0.6,7.4-2.3c2.1-1.8,3.3-4,3.5-6.8
					c0.8-10.7,1.6-21.4,2.4-32C505.6,543.7,504.2,543.6,501.5,543.4z"/>
				<path class="st1" d="M532.6,548.9c-1.5-2.1-4.2-3.3-7.8-3.6c-4.2-0.4-6.3-0.5-10.4-0.9c-1.1,13.8-2.2,27.6-3.3,41.4
					c2.6,0.2,3.8,0.3,6.4,0.5c0.5-6.2,0.8-9.4,1.3-15.6c1.5,0.1,2.3,0.2,3.7,0.3c0.2,0,0.4,0,0.6,0.1c1,6.4,1.5,9.6,2.5,15.9
					c2.8,0.3,4.2,0.4,6.9,0.7c-1.2-7.4-1.8-11.1-3.1-18.5c2.5-1.8,3.9-4.2,4.2-7.1c0.2-2.4,0.3-3.6,0.6-6
					C534.5,553.1,533.9,550.7,532.6,548.9z M527.8,555.6c-0.2,2.4-0.3,3.6-0.6,6c-0.1,1-0.5,1.8-1.3,2.4c-0.8,0.6-1.7,0.9-2.7,0.8
					c-1.6-0.1-2.4-0.2-3.9-0.3c0.5-5.3,0.7-7.9,1.1-13.2c1.6,0.1,2.4,0.2,4,0.3C526.8,551.9,528,553.2,527.8,555.6z"/>
				<path class="st1" d="M558.3,548.6c-3.6-0.4-5.4-0.6-9.1-1c-3.9,13.5-7.8,27-11.6,40.6c2.7,0.3,4,0.4,6.7,0.7
					c1-3.7,1.5-5.6,2.6-9.3c2.7,0.3,4,0.4,6.7,0.7c0.2,3.9,0.3,5.8,0.4,9.6c2.7,0.3,4,0.5,6.7,0.8
					C560,576.7,559.2,562.7,558.3,548.6z M548.5,573.6c1.7-6.4,2.5-9.6,4.2-16c0.3,6.6,0.4,9.9,0.6,16.5
					C551.4,573.9,550.5,573.8,548.5,573.6z"/>
				<path class="st1" d="M587.4,552.2c-1.5,11.1-2.2,16.6-3.7,27.7c-1.6-9.6-3.3-19.2-5-28.8c-3-0.4-4.4-0.6-7.4-0.9
					c-1.7,13.8-3.4,27.5-5,41.3c2.6,0.3,3.8,0.5,6.4,0.8c1.3-10.6,2-15.8,3.4-26.4c1.9,9.2,3.7,18.3,5.4,27.6
					c2.8,0.4,4.1,0.5,6.9,0.9c1.9-13.7,3.8-27.4,5.7-41.2C591.3,552.7,590,552.5,587.4,552.2z"/>
				<path class="st1" d="M599.2,553.9c-0.4,2.5-0.5,3.7-0.9,6.2c2.8,0.4,4.2,0.6,7,1c-1.7,11.6-3.4,23.2-5.2,34.9
					c2.6,0.4,3.8,0.6,6.4,1c1.8-11.6,3.6-23.2,5.3-34.8c2.8,0.4,4.1,0.6,6.9,1.1c0.4-2.5,0.6-3.7,1-6.2
					C611.6,555.7,607.5,555.1,599.2,553.9z"/>
			</g>
		</g>
		<polygon class="st0" points="167,573.8 175.3,571.1 172.5,579.3 177.7,586.3 169,586.2 163.9,593.3 161.4,585 153,582.4 
			160.2,577.4 160.1,568.6 		"/>
		<polygon class="st0" points="641,573.8 632.7,571.1 635.5,579.3 630.3,586.3 639,586.2 644.1,593.3 646.6,585 655,582.4 
			647.8,577.4 647.9,568.6 		"/>
	</g>
	<circle class="st0" cx="105.1" cy="479.8" r="7.5"/>
	<circle class="st0" cx="702.9" cy="479.8" r="7.5"/>
	<path class="st0" d="M716.5,312.5c0,29.3-4,57.9-11.7,85.3c-0.1,0-0.2,0-0.2-0.1c-0.6-0.1-1.2-0.3-1.8-0.4c-1.3-0.3-2.7-0.6-4-0.8
		c-1.3-0.3-2.6-0.5-3.9-0.8c7.6-26.4,11.6-54.4,11.6-83.2C706.5,145.7,570.8,10,404,10S101.5,145.7,101.5,312.5
		c0,28.9,4.1,56.8,11.6,83.2c-1.3,0.3-2.6,0.5-3.9,0.8c-1.3,0.3-2.6,0.6-4,0.8c-0.6,0.1-1.2,0.2-1.8,0.4c-0.1,0-0.2,0.1-0.3,0.1
		c-7.7-27.4-11.7-56-11.7-85.3c0-83.5,32.5-161.9,91.5-221c59-59,137.5-91.5,221-91.5s162,32.5,221,91.5
		C684,150.5,716.5,229,716.5,312.5z"/>
	<circle class="st0" cx="666.5" cy="312.5" r="7.5"/>
	<g>
		<circle class="st0" cx="141.5" cy="312.5" r="7.5"/>
	</g>
	<g>
		<circle class="st0" cx="203.8" cy="142.7" r="7.5"/>
	</g>
	<g>
		<circle class="st0" cx="604" cy="142.7" r="7.5"/>
	</g>
</g>
</svg>
