<?xml version="1.0" encoding="utf-8"?>
<!-- Generator: Adobe Illustrator 25.0.0, SVG Export Plug-In . SVG Version: 6.00 Build 0)  -->
<svg version="1.1" id="Layer_1" xmlns="http://www.w3.org/2000/svg" xmlns:xlink="http://www.w3.org/1999/xlink" x="0px" y="0px"
	 viewBox="0 0 469 76.7" style="enable-background:new 0 0 469 76.7;" xml:space="preserve">
<style type="text/css">
	.st0{fill:#3FA9F5;}
</style>
<path d="M10.6,9.7v21.7h40.9v9.7H10.6v34.4H0V0h58.5v9.7L10.6,9.7L10.6,9.7z"/>
<path d="M58.3,75.5V20.9H69v54.6H58.3z"/>
<path d="M118.4,75.5V40.6c0-7.6-4.9-11.4-14.7-11.4c-5.6,0-9.9,1.5-13,4.4s-4.6,6.8-4.6,11.5v30.3H75.5V20.8h10.7v3.7
	c4.7-3.2,10.5-4.8,17.5-4.8c7.1,0,13,1.6,17.6,4.7c5.3,3.6,7.9,8.6,7.9,15.1v35.9L118.4,75.5L118.4,75.5z"/>
<path d="M178.9,75.5V40.6c0-7.6-4.9-11.4-14.7-11.4c-5.6,0-9.9,1.5-13,4.4s-4.6,6.8-4.6,11.5v30.3h-10.7V20.8h10.7v3.7
	c4.7-3.2,10.5-4.8,17.5-4.8c7.1,0,13,1.6,17.6,4.7c5.3,3.6,7.9,8.6,7.9,15.1v35.9L178.9,75.5L178.9,75.5z"/>
<path d="M256.3,52.4v-6c0-8.1-2.8-14.6-8.5-19.4s-13.1-7.2-22.3-7.2c-9.4,0-16.9,2.7-22.5,8.1s-8.4,12.3-8.4,20.5
	c0,8.6,2.5,15.4,7.6,20.4c5.3,5.3,12.8,7.9,22.7,7.9c6.7,0,12.5-1.3,17.5-3.8c4.4-2.2,8-6.2,10.8-11.9H241
	c-3.7,4.2-8.9,6.2-15.9,6.2c-11.8,0-18.3-4.9-19.6-14.8L256.3,52.4L256.3,52.4z M211.2,34c3.5-3.2,8.3-4.8,14.4-4.8
	s10.8,1.6,14.3,4.8c2.6,2.5,4.2,5.5,4.9,9H206C206.8,39.5,208.5,36.5,211.2,34z"/>
<path d="M309.4,72.6c-4.9,2.7-10.7,4.1-17.4,4.1c-9.4,0-17-2.5-22.6-7.6c-5.6-5-8.5-11.7-8.5-19.9c0-8.8,2.9-15.9,8.6-21.3
	c5.8-5.4,13.6-8.1,23.7-8.1c6.1,0,11.4,1.3,16,3.9c5.1,2.9,8.8,8,10.9,15.3l-9.8,4.5c-1.5-5.3-3.6-9-6.2-11.1
	c-2.6-2-6.4-3.1-11.2-3.1c-6.8,0-12.1,1.8-15.8,5.5c-3.7,3.6-5.5,8.5-5.5,14.5c0,5.6,1.7,9.9,5.1,13c3.6,3.3,8.6,5,15.1,5
	c4.5,0,8.5-0.9,11.8-2.8s5.6-6,7-12.4l10.3,4C318.8,63.9,315,69.4,309.4,72.6z"/>
<path d="M345.9,31.9v43.5h-10.7V31.9h-11.1v-9.7h11.1V7.1h10.7v15.1h11.2v9.7H345.9z"/>
<path d="M449.8,36.5c-3,4.2-4.5,9.8-4.5,16.6v22.4h-10.7V20.9h10.7v5c5.3-4.1,13.2-6.1,23.7-6.1v9.5
	C459.5,29.3,453.1,31.7,449.8,36.5z"/>
<g>
	<path class="st0" d="M428.3,42.3c0-0.8-0.1-1.7-0.2-2.5s-0.2-1.6-0.4-2.4c-0.2-0.8-0.3-1.6-0.5-2.4c-0.1-0.4-0.2-0.8-0.3-1.2
		c-0.1-0.4-0.2-0.7-0.3-1c-0.3-1-0.8-2.1-1.2-3.1c-0.2-0.5-0.5-1-0.7-1.4c-0.3-0.5-0.5-1-0.8-1.5s-0.6-1.1-1-1.6l0,0
		c-0.6-0.9-1.2-1.8-1.9-2.6l0,0c-0.1-0.1-0.1-0.1-0.2-0.2l0,0c-0.4-0.5-0.9-1-1.3-1.5c-0.3-0.4-0.7-0.8-1.1-1.1
		c-0.1-0.1-0.3-0.3-0.4-0.4s-0.1-0.1-0.2-0.1c-6-5.8-14.2-9.4-23.3-9.4c-0.6,0-1.3,0-1.9,0.1c-0.3,0-0.5,0-0.8,0.1l0,0
		c-3.3,0.3-6.5,1-9.4,2.1l0,0c0,0,0,0,0,0.1c-12.6,4.9-21.5,17.1-21.5,31.4c0,18.6,15.1,33.7,33.7,33.7c1.6,0,3.2-0.1,4.8-0.3
		c0.8-0.1,1.7-0.3,2.5-0.4c0.8-0.2,1.6-0.4,2.4-0.6c0.4-0.1,0.8-0.2,1.1-0.4l0,0c0.4-0.1,0.8-0.3,1.2-0.4c0.4-0.1,0.8-0.3,1.1-0.5
		l0,0c0.7-0.3,1.5-0.7,2.2-1l0,0c0.4-0.2,0.7-0.4,1.1-0.6c0.7-0.4,1.4-0.8,2.1-1.3c0.3-0.2,0.7-0.5,1-0.7c0.6-0.5,1.3-1,1.9-1.5
		c0.3-0.3,0.6-0.5,0.9-0.8l0,0c7-6.2,11.4-15.2,11.4-25.2C428.3,43.1,428.3,42.7,428.3,42.3z M394.6,66.8
		c-12.8,0-23.2-10.4-23.2-23.2c0-6.5,2.7-12.4,7.1-16.6c0.5,0.3,0.9,0.6,0.9,1.2c0.1,0.1,0.1,0.3,0.1,0.5c0.1,0.2,0,0.5,0,0.7
		c0.1,0.4,0,0.8-0.2,1.1c0,0.2-0.1,0.4-0.1,0.6c-0.1,0.5-0.2,1-0.4,1.4c-0.3,0.8-0.3,1.6-0.5,2.4c0,0.6,0,1.1,0.1,1.7
		c0.2,0.4,0.1,0.7-0.3,0.9c-0.1,0.1-0.2,0.1-0.3,0.3c0,0.2-0.2,0.3-0.3,0.4c0,0.1,0,0.1-0.1,0.2c-0.3,0.6-0.6,1.2-0.8,1.8
		c-0.5,0.7-0.4,1.6-0.6,2.4l0,0c-0.1,0.4,0,0.7-0.1,1.1c0,0.2,0,0.5-0.1,0.7c-0.1,0.9-0.1,1.8,0.2,2.7c0.5,1.4,0.8,2.8,1.3,4.2
		c0.1,0.4,0.2,0.8,0.5,1c0.2,0.2,0.3,0.4,0.5,0.5c0.1,0.1,0.2,0,0.2-0.1c0.1-0.2-0.1-0.3-0.1-0.4c-0.2-0.5-0.4-1.1-0.5-1.7
		c0-0.4-0.1-0.7-0.2-1.1c0-0.2-0.1-0.3,0.2-0.4c0.2-0.1,0.3,0.1,0.4,0.3c0.2,0.4,0.3,0.8,0.3,1.2c0.1,0.7,0.3,1.4,0.7,2.1
		c0.2,0.4,0.4,0.8,0.6,1.2c0.2,0.5,0.5,1.1,0.1,1.7c-0.1,0.4,0.1,0.6,0.3,0.8c0,0.2,0.2,0.3,0.3,0.4c0.2,0.2,0.5,0.3,0.7,0.4
		c0.4,0.2,0.7,0.4,1,0.7c0.2,0,0.3,0.1,0.3,0.3c0.2,0.2,0.4,0.4,0.6,0.6c0.1,0,0.1,0.1,0.1,0.1c0.3,0.1,0.6,0.3,0.9,0.4
		c1,0.4,2,0.6,2.9,1c0.5,0.4,1.2,0.5,1.7,0.9c0.1,0.1,0.3,0.2,0.4,0.3c0.2,0.1,0.3,0.3,0.5,0.4c0.1,0,0.2,0,0.2,0.1
		c0.6,0.3,0.7,1,1,1.5c0,0.1,0.1,0.3,0.2,0.4c0.1,0.2,0.3,0.3,0.5,0.4c0.6,0.2,1.3,0.5,1.9,0.7c0.1,0,0.2,0,0.3,0
		c0.4-0.1,0.7-0.2,1.1-0.1c0.9,0,0.9,0,0.8,0.6c0,0.3,0,0.6,0,0.9C395.5,66.7,395.1,66.8,394.6,66.8z M406.5,63.5l-0.4-0.2
		c-0.2-0.1-0.3-0.2-0.5-0.3c-0.3,0-0.5-0.3-0.8-0.2c-0.3,0.1-0.7,0.2-1,0.2c-0.4,0.3-0.8,0.1-1.3,0.1c-0.5,0.1-0.9-0.1-1.4,0.2
		c-0.5,0.3-0.9,0.4-1.4,0.1c-0.6-0.4-1.3-0.3-1.9,0.1c-0.3,0-0.4,0.4-0.7,0.5c-0.2,0.1-0.3,0.3-0.5,0.5c-0.3,0.3-0.6,0.4-1,0.3
		c-0.5-0.1-0.9-0.1-1.4-0.1c-0.3-0.1-0.6-0.3-0.8-0.6c-0.3-0.1-0.5-0.4-0.6-0.7c0-0.5,0.3-0.9,0.3-1.4c0-0.3,0-0.5-0.3-0.7
		c-0.4-0.3-0.9-0.5-1.4-0.7c-0.3-0.1-0.6-0.1-0.8,0c-0.7,0.1-0.9-0.5-0.5-1c0-0.1,0-0.1,0-0.2c0.3-0.4,0.2-0.8,0.3-1.2
		c0-0.2,0-0.3-0.2-0.4c-0.4-0.4-0.8-0.2-1.2,0c-0.2,0.1-0.3,0.2-0.4,0.4c-0.3,0.6-0.6,0.7-1.3,0.5c-0.2,0-0.5-0.1-0.7-0.3
		c-0.2-0.1-0.2-0.4-0.5-0.4l0,0c-0.2-0.1-0.3-0.4-0.6-0.5l-0.1-0.1c-0.2-0.6-0.3-1.2-0.2-1.8c0-0.6,0.2-1.1,0.6-1.6
		c0.3-0.4,0.5-1.1,1.2-1c0.7-0.2,1.4-0.2,2.1,0.2c0.3,0.1,0.6,0.1,0.9-0.1h0.1c0.4-0.2,0.8-0.1,1.3-0.1c0.4,0,0.7,0.2,1.1,0.3
		c0.2,0.1,0.3,0.3,0.4,0.5c0.2,0.3,0.4,0.5,0.6,0.8c0.1,0.2,0.2,0.3,0.3,0.5c0.2,0.2,0.3,0.5,0.6,0.3c0.4-0.2,0.2-0.5,0.2-0.8
		c-0.1-0.2-0.1-0.4-0.2-0.6c-0.3-0.5-0.4-1-0.2-1.5c0-0.2,0.1-0.3,0.1-0.5c0.3-0.5,0.7-0.9,1-1.3l0,0c0.3-0.1,0.5-0.3,0.8-0.6
		c0,0,0.1,0,0.1-0.1c0.3-0.2,0.7-0.4,0.6-0.9c-0.1-0.7,0.2-1.3,0.5-2c0-0.3,0.2-0.5,0.4-0.7c0.2-0.3,0.3-0.7,0.8-0.8
		c0.2-0.1,0.2-0.4,0.3-0.5c0-0.1,0-0.1,0-0.2c0.2-0.2,0.4-0.4,0.5-0.7c0.2-0.2,0.4-0.4,0.6-0.5c0.5,0.3,0.9,0.2,1.2-0.3
		c0.1-0.1,0.2-0.1,0.3-0.2c0.2-0.2,0.4-0.2,0.7-0.4c0.1-0.1,0.2-0.1,0.3-0.2c0.1-0.1,0.4-0.2,0.3-0.5s-0.2-0.5-0.6-0.4
		c-0.3,0.1-0.6,0.2-0.9,0c-0.4-0.2,0-0.7-0.4-0.9c-0.2,0-0.4-0.1-0.6,0s-0.3,0.3-0.5,0.4c-0.2,0.2-0.5,0.5-0.9,0.3
		c0.1-0.7,0.6-1,1.2-1.3c0.7-0.5,1.5-0.4,2.2-0.8c0.1-0.1,0.2-0.2,0.3-0.3c0.1-0.3,0.2-0.5,0.1-0.8c-0.2-0.3-0.2-0.7-0.5-0.9
		c0,0-0.1,0-0.1-0.1c-0.1-0.3-0.4-0.4-0.6-0.7c-0.1-0.1-0.2-0.2-0.3-0.3c-0.1-0.2-0.2-0.4-0.4-0.5c-0.2-0.1-0.2-0.3-0.5-0.3l0,0
		c-0.2-0.1-0.2-0.3-0.4-0.3l0,0c-0.2-0.2-0.4-0.4-0.8-0.4c-0.2,0-0.4,0-0.7-0.1c-0.3,0-0.5,0-0.7-0.2c-0.1-0.3-0.4-0.4-0.5-0.6
		c-0.1-0.1-0.2-0.2-0.3-0.2c-0.6-0.2-1.1-0.7-1.8-0.5c-0.3,0.1-0.3,0.3-0.3,0.5c0,0.5,0,1,0.1,1.5c0,0.4,0,0.8,0.3,1
		c0.2,0.3,0,0.6-0.1,0.8c-0.3,0.4-0.2,1-0.3,1.4c-0.1,0.3,0,0.8-0.3,1c-0.2-0.1-0.3-0.3-0.5-0.5c-0.3-0.2-0.3-0.6-0.5-0.9
		s-0.1-0.6-0.2-0.9c0-0.1,0-0.3-0.2-0.3c-0.3-0.1-0.6-0.4-1-0.4c-0.4-0.2-1.1-0.1-1.3-0.7c-0.3-0.3-0.2-0.6-0.2-1
		c0-0.9,0.4-1.7,1-2.4c0.3-0.2,0.5-0.5,0.8-0.7s0.4-0.5,0.6-0.7l0,0c0.3-0.1,0.5-0.3,0.8-0.6l0.1-0.1c0.5-0.5,0.5-0.5,0-1
		c-0.2-0.2-0.4-0.1-0.6,0c-0.5,0.2-1,0.1-1.3-0.3c-0.1-0.5-0.1-0.9-0.2-1.4c-0.4-0.2-0.6-0.1-0.6,0.3c0,0.2,0,0.3-0.1,0.5
		c-0.1,0.4-0.5,0.6-0.8,0.6c-0.1-0.1-0.2-0.3-0.2-0.5c-0.1-0.4,0-0.8-0.1-1.2c-0.1-0.6-0.4-1.2-1.1-1.3c-0.5-1-0.6-1-1.7-0.6
		c-0.1,0-0.1,0.1-0.2,0.1c-0.2,0.2-0.2,0.4,0,0.6c0.1,0.1,0.3,0.4,0.4,0.5v0.2c0.2,0.1,0.2,0.7,0.2,0.9c0,0.1,0,0.3,0.1,0.5
		c-0.1,0-0.1-0.1-0.2-0.1l0,0c-0.2-0.1-0.3-0.3-0.5-0.4s-0.2-0.3-0.4-0.3l0,0c-0.2-0.1-0.3-0.4-0.6-0.5l0,0
		c-0.3-0.2-0.3-0.6-0.7-0.7l-0.1-0.1c-0.2-0.2-0.4-0.5-0.7-0.6c-0.2-0.4-0.5-0.7-0.7-1c-0.2-0.2-0.2-0.5-0.1-0.7
		c0-0.3,0-0.6-0.1-0.9c3.2-1.7,6.9-2.7,10.9-2.7c12.8,0,23.2,10.4,23.2,23.2C417.8,52,413.3,59.5,406.5,63.5z"/>
	<path class="st0" d="M408.6,11.6L408.6,11.6L408.6,11.6z"/>
	<path class="st0" d="M404.6,31.2c-0.3-0.4-0.1-0.8-0.1-1.2c0.1-0.8,0.1-1.5,0.1-2.3c0-0.2,0.1-0.3,0.2-0.5l0,0
		c0.7-0.5,0.7-1.2,0.5-1.9c-0.2-0.2-0.3-0.3-0.5-0.5c-0.3-0.3-0.4-0.8-0.9-0.9l0,0c-0.2-0.2-0.5-0.5-0.8-0.6l0,0
		c-0.2-0.2-0.4-0.4-0.7-0.4c-0.4-0.1-0.8-0.3-1.3-0.4c-0.3-0.2-0.6-0.4-0.9-0.6c-0.8-0.5-1.7-0.5-2.5-0.2c-0.3,0.1-0.6,0.2-0.8,0.5
		l0,0c-0.1,0.1-0.2,0.3-0.3,0.4c-0.5,0.3-0.6,0.3-0.9-0.2c0-0.1-0.1-0.1-0.2-0.1c-0.5-0.1-0.9,0.1-1.3,0.2c-0.2,0.2-0.6,0.1-0.5,0.5
		c0.2,0.5,0,0.8-0.2,1.2c0,0.3-0.3,0.6,0,1c0.1,0.2,0.2,0.3,0.4,0.4c0.1,0.1,0.2,0.2,0.3,0.3c0.1,0,0.2,0.1,0.3,0.2
		c0.3,0.3,0.5,0.1,0.5-0.2c0.2-0.5,0.2-1,0.5-1.4c0.2-0.3,0.3-0.2,0.4,0s0.1,0.5,0.3,0.8v0.1c0.5,0.5,1.1,0.9,1.7,1.2
		c0,0,0,0.1,0.1,0.1c0.2,0.1,0.3,0.4,0.6,0.5c0.1,0.1,0.2,0.2,0.3,0.3h0.1c0.3,0.1,0.4,0.4,0.6,0.5c0.1,0.1,0.2,0.2,0.3,0.2
		c0.2,0.1,0.3,0.3,0.4,0.4c0.1,0.2,0,0.4,0.1,0.6c0.1,0.4,0.1,0.8,0.2,1.2c0,0.2,0.1,0.3,0.3,0.3c0.5,0.2,0.7,0.6,0.7,1.1
		c0.2,0.1,0.3,0.2,0.4,0.4c0.1,0,0.2,0,0.2,0.1c0.3,0.1,0.6,0.3,0.8,0.5c0.3,0.2,0.6,0,0.9-0.1c0.4-0.1,0.8-0.3,1.1-0.4
		c0.2-0.2,0.5-0.1,0.6-0.4c-0.2-0.1-0.4-0.1-0.6-0.3C405,31.8,404.8,31.5,404.6,31.2z"/>
	<path class="st0" d="M398.7,30.6c-0.4-0.2-0.8-0.4-1.2-0.6c-0.3-0.3-0.3-0.7-0.5-1.1c-0.5-0.5-1.1-0.7-1.7-1
		c-0.2-0.2-0.5-0.3-0.8-0.4c-0.5-0.1-1-0.5-1.4,0c-0.1,0.1-0.1,0.1-0.2,0.2c-0.2,0.5,0.3,0.6,0.4,0.9c0.1,0.1,0.1,0.2,0.2,0.3
		c0.5,0.5,1.1,0.7,1.8,0.9c0.2,0,0.4,0.1,0.5,0.2l0,0c0.1,0.2,0.3,0.3,0.4,0.5c0.1,0.4,0.1,0.9,0,1.3c-0.2,0.2-0.4,0.4-0.7,0.5l0,0
		c-0.2,0.2-0.2,0.4,0.1,0.4c0.3,0.1,0.7,0.1,1,0.2c0.4,0.1,0.8,0.3,1.2,0.5c0.4,0,0.9,0.1,1-0.6c0-0.2,0.1-0.4,0.2-0.6
		c0-0.1,0.1-0.1,0.1-0.2c0.1-0.1,0.2-0.3,0.2-0.5C399.1,31.2,399,30.9,398.7,30.6z"/>
	<path class="st0" d="M408.1,25.4c-0.3,0.1-0.7,0.2-1,0.5c-0.1,0.4-0.5,0.2-0.6,0.5c0,0.8,0.1,1.7,1.1,1.9c0.3,0,0.4-0.2,0.6-0.4
		c0-0.1,0.1-0.2,0.2-0.3c0.4-0.3,0.4-0.7,0.5-1.1c0-0.3,0.3-0.5,0-0.8C408.5,25.7,408.4,25.3,408.1,25.4z"/>
	<path class="st0" d="M405.3,40.5c-0.2-0.2-0.3-0.4-0.6-0.5c-0.2-0.1-0.3-0.4-0.5-0.4c-0.1,0-0.1-0.1-0.2-0.1
		c-0.2-0.2-0.3-0.4-0.5-0.5c-0.1,0-0.2,0-0.3,0c-0.1,0-0.1,0.1-0.2,0.2c-0.1,0.4,0.2,0.7,0.3,1c0.1,0.2,0.3,0.3,0.4,0.4
		c0,0.1,0.1,0.2,0.1,0.3c0.2,0.2,0.3,0.4,0.6,0.5c0.2,0,0.5,0,0.7,0s0.4,0.1,0.5-0.2c0.1-0.2,0-0.4-0.2-0.5
		C405.4,40.6,405.3,40.5,405.3,40.5z"/>
	<path class="st0" d="M400.5,59.1c-0.1-0.4-0.3-0.4-0.6-0.5c-0.4,0.1-0.9,0.2-1.3,0.2c-0.4,0.4-0.4,0.5,0.1,0.7
		c0.1,0,0.2,0.1,0.3,0.1c0.5,0.2,1,0.2,1.5,0.2c0.1,0,0.1,0,0.2,0c0.2-0.1,0.4,0,0.4-0.3C400.8,59.3,400.5,59.3,400.5,59.1z"/>
	<path class="st0" d="M397.6,58.5c-0.4-0.1-0.5-0.5-0.9-0.5c-0.3,0-0.6,0-0.9-0.1c-0.8-0.2-1.6-0.4-2.4-0.6
		c-0.4-0.1-0.4-0.1-0.7,0.2c0.7,0.1,1.3,0.2,2,0.5c0.1,0.1,0.2,0.1,0.4,0.2c0.2,0,0.3,0.3,0.5,0.3c0.3,0.1,0.6,0.3,0.8,0.6
		c0.3,0.1,0.7,0,1,0c0.2-0.1,0.4-0.2,0.5-0.4C397.8,58.6,397.7,58.5,397.6,58.5z"/>
</g>
</svg>
